<?xml version="1.0" standalone="no"?>
 <!DOCTYPE svg PUBLIC "-//W3C//DTD SVG 1.1//EN" 
 "http://www.w3.org/Graphics/SVG/1.1/DTD/svg11.dtd"> 
<svg
  xmlns:svg="http://www.w3.org/2000/svg"
  xmlns="http://www.w3.org/2000/svg"
  xmlns:xlink="http://www.w3.org/1999/xlink"
  version="1.1"
  width="10.294620cm" height="6.484620cm" viewBox="0 0 40530 25530">
<title>SVG Picture created as Clock Switch-brd.svg date 2021/08/16 08:27:21 </title>
  <desc>Picture generated by PCBNEW </desc>
<g style="fill:#000000; fill-opacity:1;stroke:#000000; stroke-opacity:1;
stroke-linecap:round; stroke-linejoin:round;"
 transform="translate(0 0) scale(1 1)">
</g>
<g style="fill:#000000; fill-opacity:0.0; 
stroke:#000000; stroke-width:-0.000393701; stroke-opacity:1; 
stroke-linecap:round; stroke-linejoin:round;">
<g >
</g>
<g style="fill:#000000; fill-opacity:0.0; 
stroke:#000000; stroke-width:629.921; stroke-opacity:1; 
stroke-linecap:round; stroke-linejoin:round;">
<path d="M29019 12519
L29019 12519
" />
</g>
<g style="fill:#000000; fill-opacity:1.0; 
stroke:#000000; stroke-width:0; stroke-opacity:1; 
stroke-linecap:round; stroke-linejoin:round;">
<circle cx="29019.7" cy="11519.7" r="314.961" /> 
</g>
<g style="fill:#000000; fill-opacity:1.0; 
stroke:#000000; stroke-width:39.3701; stroke-opacity:1; 
stroke-linecap:round; stroke-linejoin:round;">
</g>
<g >
</g>
<g style="fill:#000000; fill-opacity:1.0; 
stroke:#000000; stroke-width:39.3701; stroke-opacity:1; 
stroke-linecap:round; stroke-linejoin:round;">
</g>
<g style="fill:#000000; fill-opacity:1.0; 
stroke:#000000; stroke-width:750; stroke-opacity:1; 
stroke-linecap:round; stroke-linejoin:round;">
</g>
<g style="fill:#000000; fill-opacity:0.0; 
stroke:#000000; stroke-width:750; stroke-opacity:1; 
stroke-linecap:round; stroke-linejoin:round;">
<path d="M25038 10019
L25000 10019
" />
<path d="M25038 9019
L25000 9019
" />
</g>
<g style="fill:#000000; fill-opacity:0.0; 
stroke:#000000; stroke-width:0; stroke-opacity:1; 
stroke-linecap:round; stroke-linejoin:round;">
</g>
<g style="fill:#000000; fill-opacity:1.0; 
stroke:#000000; stroke-width:0; stroke-opacity:1; 
stroke-linecap:round; stroke-linejoin:round;">
<path style="fill:#000000; fill-opacity:1.0; 
stroke:#000000; stroke-width:0; stroke-opacity:1; 
stroke-linecap:round; stroke-linejoin:round;fill-rule:evenodd;"
d="M 24626,7644.69
25413.4,7644.69
25413.4,8394.69
24626,8394.69
Z" /> 
</g>
<g >
</g>
<g style="fill:#000000; fill-opacity:1.0; 
stroke:#000000; stroke-width:0; stroke-opacity:1; 
stroke-linecap:round; stroke-linejoin:round;">
<circle cx="31519.7" cy="7019.69" r="590.551" /> 
</g>
<g style="fill:#000000; fill-opacity:1.0; 
stroke:#000000; stroke-width:39.3701; stroke-opacity:1; 
stroke-linecap:round; stroke-linejoin:round;">
</g>
<g style="fill:#000000; fill-opacity:1.0; 
stroke:#000000; stroke-width:0; stroke-opacity:1; 
stroke-linecap:round; stroke-linejoin:round;">
<path style="fill:#000000; fill-opacity:1.0; 
stroke:#000000; stroke-width:0; stroke-opacity:1; 
stroke-linecap:round; stroke-linejoin:round;fill-rule:evenodd;"
d="M 32110.2,9610.24
30929.1,9610.24
30929.1,8429.13
32110.2,8429.13
Z" /> 
</g>
<g >
</g>
<g style="fill:#000000; fill-opacity:1.0; 
stroke:#000000; stroke-width:0; stroke-opacity:1; 
stroke-linecap:round; stroke-linejoin:round;">
<circle cx="17519.7" cy="6019.69" r="590.551" /> 
</g>
<g style="fill:#000000; fill-opacity:1.0; 
stroke:#000000; stroke-width:39.3701; stroke-opacity:1; 
stroke-linecap:round; stroke-linejoin:round;">
</g>
<g style="fill:#000000; fill-opacity:1.0; 
stroke:#000000; stroke-width:0; stroke-opacity:1; 
stroke-linecap:round; stroke-linejoin:round;">
<path style="fill:#000000; fill-opacity:1.0; 
stroke:#000000; stroke-width:0; stroke-opacity:1; 
stroke-linecap:round; stroke-linejoin:round;fill-rule:evenodd;"
d="M 20110.2,5429.13
20110.2,6610.24
18929.1,6610.24
18929.1,5429.13
Z" /> 
</g>
<g >
</g>
<g style="fill:#000000; fill-opacity:1.0; 
stroke:#000000; stroke-width:0; stroke-opacity:1; 
stroke-linecap:round; stroke-linejoin:round;">
</g>
<g style="fill:#000000; fill-opacity:1.0; 
stroke:#000000; stroke-width:669.291; stroke-opacity:1; 
stroke-linecap:round; stroke-linejoin:round;">
</g>
<g style="fill:#000000; fill-opacity:0.0; 
stroke:#000000; stroke-width:669.291; stroke-opacity:1; 
stroke-linecap:round; stroke-linejoin:round;">
<path d="M24519 19519
L24519 19519
" />
<path d="M24519 18519
L24519 18519
" />
<path d="M24519 17519
L24519 17519
" />
<path d="M24519 16519
L24519 16519
" />
<path d="M24519 15519
L24519 15519
" />
</g>
<g style="fill:#000000; fill-opacity:0.0; 
stroke:#000000; stroke-width:0; stroke-opacity:1; 
stroke-linecap:round; stroke-linejoin:round;">
</g>
<g style="fill:#000000; fill-opacity:1.0; 
stroke:#000000; stroke-width:0; stroke-opacity:1; 
stroke-linecap:round; stroke-linejoin:round;">
<path style="fill:#000000; fill-opacity:1.0; 
stroke:#000000; stroke-width:0; stroke-opacity:1; 
stroke-linecap:round; stroke-linejoin:round;fill-rule:evenodd;"
d="M 24185,14854.3
24185,14185
24854.3,14185
24854.3,14854.3
Z" /> 
</g>
<g >
</g>
<g >
</g>
<g >
</g>
<g >
</g>
<g >
</g>
<g style="fill:#000000; fill-opacity:1.0; 
stroke:#000000; stroke-width:0; stroke-opacity:1; 
stroke-linecap:round; stroke-linejoin:round;">
</g>
<g style="fill:#000000; fill-opacity:1.0; 
stroke:#000000; stroke-width:1259.84; stroke-opacity:1; 
stroke-linecap:round; stroke-linejoin:round;">
</g>
<g style="fill:#000000; fill-opacity:0.0; 
stroke:#000000; stroke-width:1259.84; stroke-opacity:1; 
stroke-linecap:round; stroke-linejoin:round;">
<path d="M18519 16019
L18519 16019
" />
</g>
<g style="fill:#000000; fill-opacity:0.0; 
stroke:#000000; stroke-width:0; stroke-opacity:1; 
stroke-linecap:round; stroke-linejoin:round;">
</g>
<g style="fill:#000000; fill-opacity:1.0; 
stroke:#000000; stroke-width:0; stroke-opacity:1; 
stroke-linecap:round; stroke-linejoin:round;">
<path style="fill:#000000; fill-opacity:1.0; 
stroke:#000000; stroke-width:0; stroke-opacity:1; 
stroke-linecap:round; stroke-linejoin:round;fill-rule:evenodd;"
d="M 17889.8,9389.76
19149.6,9389.76
19149.6,10649.6
17889.8,10649.6
Z" /> 
</g>
<g >
</g>
<g style="fill:#000000; fill-opacity:1.0; 
stroke:#000000; stroke-width:0; stroke-opacity:1; 
stroke-linecap:round; stroke-linejoin:round;">
</g>
<g style="fill:#000000; fill-opacity:1.0; 
stroke:#000000; stroke-width:629.921; stroke-opacity:1; 
stroke-linecap:round; stroke-linejoin:round;">
</g>
<g style="fill:#000000; fill-opacity:0.0; 
stroke:#000000; stroke-width:629.921; stroke-opacity:1; 
stroke-linecap:round; stroke-linejoin:round;">
<path d="M14519 20019
L14519 20019
" />
<path d="M8519 20019
L8519 20019
" />
<path d="M14519 6019
L14519 6019
" />
<path d="M8519 19019
L8519 19019
" />
<path d="M14519 7019
L14519 7019
" />
<path d="M8519 18019
L8519 18019
" />
<path d="M14519 8019
L14519 8019
" />
<path d="M8519 17019
L8519 17019
" />
<path d="M14519 9019
L14519 9019
" />
<path d="M8519 16019
L8519 16019
" />
<path d="M14519 10019
L14519 10019
" />
<path d="M8519 15019
L8519 15019
" />
<path d="M14519 11019
L14519 11019
" />
<path d="M8519 14019
L8519 14019
" />
<path d="M14519 12019
L14519 12019
" />
<path d="M8519 13019
L8519 13019
" />
<path d="M14519 13019
L14519 13019
" />
<path d="M8519 12019
L8519 12019
" />
<path d="M14519 14019
L14519 14019
" />
<path d="M8519 11019
L8519 11019
" />
<path d="M14519 15019
L14519 15019
" />
<path d="M8519 10019
L8519 10019
" />
<path d="M14519 16019
L14519 16019
" />
<path d="M8519 9019
L8519 9019
" />
<path d="M14519 17019
L14519 17019
" />
<path d="M8519 8019
L8519 8019
" />
<path d="M14519 18019
L14519 18019
" />
<path d="M8519 7019
L8519 7019
" />
<path d="M14519 19019
L14519 19019
" />
</g>
<g style="fill:#000000; fill-opacity:0.0; 
stroke:#000000; stroke-width:0; stroke-opacity:1; 
stroke-linecap:round; stroke-linejoin:round;">
</g>
<g style="fill:#000000; fill-opacity:1.0; 
stroke:#000000; stroke-width:0; stroke-opacity:1; 
stroke-linecap:round; stroke-linejoin:round;">
<path style="fill:#000000; fill-opacity:1.0; 
stroke:#000000; stroke-width:0; stroke-opacity:1; 
stroke-linecap:round; stroke-linejoin:round;fill-rule:evenodd;"
d="M 8204.72,6334.65
8204.72,5704.72
8834.65,5704.72
8834.65,6334.65
Z" /> 
</g>
<g >
</g>
<g >
</g>
<g style="fill:#000000; fill-opacity:1.0; 
stroke:#000000; stroke-width:0; stroke-opacity:1; 
stroke-linecap:round; stroke-linejoin:round;">
</g>
<g style="fill:#000000; fill-opacity:1.0; 
stroke:#000000; stroke-width:590.551; stroke-opacity:1; 
stroke-linecap:round; stroke-linejoin:round;">
</g>
<g style="fill:#000000; fill-opacity:0.0; 
stroke:#000000; stroke-width:590.551; stroke-opacity:1; 
stroke-linecap:round; stroke-linejoin:round;">
<path d="M16019 9519
L15519 9019
" />
<path d="M17519 20019
L16019 18519
" />
<path d="M21019 15519
L20519 16019
" />
<path d="M16019 18519
L16019 9519
" />
<path d="M22019 15519
L21019 15519
" />
<path d="M20519 16019
L20519 19019
" />
<path d="M20519 19019
L19519 20019
" />
<path d="M15519 9019
L14519 9019
" />
<path d="M19519 20019
L17519 20019
" />
<path d="M22019 15519
L24519 15519
" />
<path d="M24519 17519
L23519 17519
" />
<path d="M23519 17519
L22519 18519
" />
<path d="M22519 18519
L22519 21019
" />
<path d="M22519 21019
L21019 22519
" />
<path d="M21019 22519
L13019 22519
" />
<path d="M13019 22519
L12019 21519
" />
<path d="M12019 21519
L12019 13519
" />
<path d="M13519 12019
L14519 12019
" />
<path d="M12019 13519
L13519 12019
" />
<path d="M29019 11519
L29019 9519
" />
<path d="M27519 8019
L25019 8019
" />
<path d="M29019 9519
L27519 8019
" />
<path d="M29019 11519
L28019 11519
" />
<path d="M28019 11519
L26519 13019
" />
<path d="M26519 13019
L26519 22519
" />
<path d="M26519 22519
L25019 24019
" />
<path d="M25019 24019
L12519 24019
" />
<path d="M12519 24019
L10519 22019
" />
<path d="M10519 22019
L10519 13519
" />
<path d="M10019 13019
L8519 13019
" />
<path d="M10519 13519
L10019 13019
" />
<path d="M24519 16519
L22019 16519
" />
<path d="M22019 16519
L21519 17019
" />
<path d="M21519 17019
L21519 20019
" />
<path d="M21519 20019
L20019 21519
" />
<path d="M20019 21519
L14019 21519
" />
<path d="M14019 21519
L13019 20519
" />
<path d="M13019 20519
L13019 14019
" />
<path d="M14019 13019
L14519 13019
" />
<path d="M13019 14019
L14019 13019
" />
<path d="M19519 6019
L19519 4519
" />
<path d="M19519 4519
L19019 4019
" />
<path d="M19019 4019
L15019 4019
" />
<path d="M14519 4519
L14519 6019
" />
<path d="M15019 4019
L14519 4519
" />
<path d="M18519 10019
L19519 9019
" />
<path d="M31519 9019
L33019 9019
" />
<path d="M33019 9019
L33519 8519
" />
<path d="M33519 8519
L33519 6519
" />
<path d="M33519 6519
L32519 5519
" />
<path d="M32519 5519
L23519 5519
" />
<path d="M23519 5519
L21519 7519
" />
<path d="M21519 7519
L20019 7519
" />
<path d="M19519 9019
L19519 8019
" />
<path d="M20019 7519
L19519 8019
" />
<path d="M19519 8019
L19519 6019
" />
<path d="M18519 16019
L18519 14519
" />
<path d="M23019 10019
L19769 13269
" />
<path d="M19769 13269
L20019 13019
" />
<path d="M18519 14519
L19769 13269
" />
<path d="M24019 7019
L23019 8019
" />
<path d="M31519 7019
L24019 7019
" />
<path d="M23019 8019
L23019 10019
" />
<path d="M23768 9270
L23019 10019
" />
<path d="M24768 9270
L23768 9270
" />
<path d="M25019 9019
L24768 9270
" />
</g>
<g >
</g>
<g style="fill:#000000; fill-opacity:0.0; 
stroke:#000000; stroke-width:590.551; stroke-opacity:1; 
stroke-linecap:round; stroke-linejoin:round;">
</g>
<g style="fill:#000000; fill-opacity:1.0; 
stroke:#000000; stroke-width:100; stroke-opacity:1; 
stroke-linecap:round; stroke-linejoin:round;">
<path style="fill:#000000; fill-opacity:1.0; 
stroke:#000000; stroke-width:100; stroke-opacity:1; 
stroke-linecap:round; stroke-linejoin:round;fill-rule:evenodd;"
d="M 40250,25250
289.37,25250
289.37,20933
2139.76,20933
2139.76,21106.3
2173.58,21276.3
2239.91,21436.5
2336.21,21580.6
2458.77,21703.2
2602.89,21799.5
2763.02,21865.8
2933.02,21899.6
3106.35,21899.6
3276.35,21865.8
3436.48,21799.5
3580.6,21703.2
3703.16,21580.6
3799.46,21436.5
3865.79,21276.3
3899.61,21106.3
3899.61,20933
3865.79,20763
3799.46,20602.9
3703.16,20458.8
3580.6,20336.2
3436.48,20239.9
3276.35,20173.6
3106.35,20139.8
2933.02,20139.8
2763.02,20173.6
2602.89,20239.9
2458.77,20336.2
2336.21,20458.8
2239.91,20602.9
2173.58,20763
2139.76,20933
289.37,20933
289.37,9964.04
7954.72,9964.04
7954.72,10075.3
7976.44,10184.5
8019.02,10287.3
8080.85,10379.8
8159.54,10458.5
8251.09,10519.7
8159.54,10580.9
8080.85,10659.5
8019.02,10752.1
7976.44,10854.9
7954.72,10964
7954.72,11075.3
7976.44,11184.5
8019.02,11287.3
8080.85,11379.8
8159.54,11458.5
8251.09,11519.7
8159.54,11580.9
8080.85,11659.5
8019.02,11752.1
7976.44,11854.9
7954.72,11964
7954.72,12075.3
7976.44,12184.5
8019.02,12287.3
8080.85,12379.8
8159.54,12458.5
8251.09,12519.7
8159.54,12580.9
8080.85,12659.5
8019.02,12752.1
7976.44,12854.9
7954.72,12964
7954.72,13075.3
7976.44,13184.5
8019.02,13287.3
8080.85,13379.8
8159.54,13458.5
8251.09,13519.7
8159.54,13580.9
8080.85,13659.5
8019.02,13752.1
7976.44,13854.9
7954.72,13964
7954.72,14075.3
7976.44,14184.5
8019.02,14287.3
8080.85,14379.8
8159.54,14458.5
8251.09,14519.7
8159.54,14580.9
8080.85,14659.5
8019.02,14752.1
7976.44,14854.9
7954.72,14964
7954.72,15075.3
7976.44,15184.5
8019.02,15287.3
8080.85,15379.8
8159.54,15458.5
8251.09,15519.7
8159.54,15580.9
8080.85,15659.5
8019.02,15752.1
7976.44,15854.9
7954.72,15964
7954.72,16075.3
7976.44,16184.5
8019.02,16287.3
8080.85,16379.8
8159.54,16458.5
8251.09,16519.7
8159.54,16580.9
8080.85,16659.5
8019.02,16752.1
7976.44,16854.9
7954.72,16964
7954.72,17075.3
7976.44,17184.5
8019.02,17287.3
8080.85,17379.8
8159.54,17458.5
8251.09,17519.7
8159.54,17580.9
8080.85,17659.5
8019.02,17752.1
7976.44,17854.9
7954.72,17964
7954.72,18075.3
7976.44,18184.5
8019.02,18287.3
8080.85,18379.8
8159.54,18458.5
8251.09,18519.7
8159.54,18580.9
8080.85,18659.5
8019.02,18752.1
7976.44,18854.9
7954.72,18964
7954.72,19075.3
7976.44,19184.5
8019.02,19287.3
8080.85,19379.8
8159.54,19458.5
8251.09,19519.7
8159.54,19580.9
8080.85,19659.5
8019.02,19752.1
7976.44,19854.9
7954.72,19964
7954.72,20075.3
7976.44,20184.5
8019.02,20287.3
8080.85,20379.8
8159.54,20458.5
8252.08,20520.3
8354.89,20562.9
8464.04,20584.6
8575.33,20584.6
8684.48,20562.9
8787.29,20520.3
8879.83,20458.5
8958.52,20379.8
9020.35,20287.3
9062.93,20184.5
9084.65,20075.3
9084.65,19964
9062.93,19854.9
9020.35,19752.1
8958.52,19659.5
8879.83,19580.9
8788.28,19519.7
8879.83,19458.5
8958.52,19379.8
9020.35,19287.3
9062.93,19184.5
9084.65,19075.3
9084.65,18964
9062.93,18854.9
9020.35,18752.1
8958.52,18659.5
8879.83,18580.9
8788.28,18519.7
8879.83,18458.5
8958.52,18379.8
9020.35,18287.3
9062.93,18184.5
9084.65,18075.3
9084.65,17964
9062.93,17854.9
9020.35,17752.1
8958.52,17659.5
8879.83,17580.9
8788.28,17519.7
8879.83,17458.5
8958.52,17379.8
9020.35,17287.3
9062.93,17184.5
9084.65,17075.3
9084.65,16964
9062.93,16854.9
9020.35,16752.1
8958.52,16659.5
8879.83,16580.9
8788.28,16519.7
8879.83,16458.5
8958.52,16379.8
9020.35,16287.3
9062.93,16184.5
9084.65,16075.3
9084.65,15964
9062.93,15854.9
9020.35,15752.1
8958.52,15659.5
8879.83,15580.9
8788.28,15519.7
8879.83,15458.5
8958.52,15379.8
9020.35,15287.3
9062.93,15184.5
9084.65,15075.3
9084.65,14964
9062.93,14854.9
9020.35,14752.1
8958.52,14659.5
8879.83,14580.9
8788.28,14519.7
8879.83,14458.5
8958.52,14379.8
9020.35,14287.3
9062.93,14184.5
9084.65,14075.3
9084.65,13964
9062.93,13854.9
9020.35,13752.1
8958.52,13659.5
8879.83,13580.9
8856.04,13565
9793.83,13565
9974.41,13745.5
9974.41,21992.9
9971.77,22019.7
9974.41,22046.5
9974.41,22046.5
9982.3,22126.6
10013.5,22229.4
10064.1,22324.1
10132.3,22407.1
10153.1,22424.2
12115.2,24386.3
12132.3,24407.1
12153.1,24424.2
12153.1,24424.2
12172.1,24439.8
12215.3,24475.3
12310,24525.9
12412.8,24557.1
12422,24558
12492.9,24565
12492.9,24565
12519.7,24567.6
12546.5,24565
24992.9,24565
25019.7,24567.6
25046.5,24565
25046.5,24565
25126.6,24557.1
25229.4,24525.9
25324.1,24475.3
25407.1,24407.1
25424.2,24386.3
26886.3,22924.2
26907.1,22907.1
26975.3,22824.1
27025.9,22729.4
27057.1,22626.6
27065,22546.5
27065,22546.5
27067.6,22519.7
27065,22492.9
27065,20933
30139.8,20933
30139.8,21106.3
30173.6,21276.3
30239.9,21436.5
30336.2,21580.6
30458.8,21703.2
30602.9,21799.5
30763,21865.8
30933,21899.6
31106.3,21899.6
31276.3,21865.8
31436.5,21799.5
31580.6,21703.2
31703.2,21580.6
31799.5,21436.5
31865.8,21276.3
31899.6,21106.3
31899.6,20933
31865.8,20763
31799.5,20602.9
31703.2,20458.8
31580.6,20336.2
31436.5,20239.9
31276.3,20173.6
31106.3,20139.8
30933,20139.8
30763,20173.6
30602.9,20239.9
30458.8,20336.2
30336.2,20458.8
30239.9,20602.9
30173.6,20763
30139.8,20933
27065,20933
27065,13245.5
28245.5,12065
28865.1,12065
28964,12084.6
29075.3,12084.6
29184.5,12062.9
29287.3,12020.3
29379.8,11958.5
29458.5,11879.8
29520.3,11787.3
29562.9,11684.5
29584.6,11575.3
29584.6,11464
29565,11365.1
29565,9546.47
29567.6,9519.69
29565,9492.9
29565,9492.9
29557.1,9412.79
29525.9,9310.01
29475.3,9215.28
29450,9184.48
29424.2,9153.06
29424.2,9153.06
29407.1,9132.25
29386.3,9115.18
27924.2,7653.06
27907.1,7632.25
27825.1,7564.96
30876.2,7564.96
30983.9,7672.58
31121.5,7764.57
31274.5,7827.93
31436.9,7860.24
31602.5,7860.24
31764.9,7827.93
31917.8,7764.57
32055.5,7672.58
32172.6,7555.51
32264.6,7417.84
32327.9,7264.86
32360.2,7102.47
32360.2,6936.9
32327.9,6774.51
32264.6,6621.54
32172.6,6483.87
32055.5,6366.79
31917.8,6274.8
31764.9,6211.44
31602.5,6179.13
31436.9,6179.13
31274.5,6211.44
31121.5,6274.8
30983.9,6366.79
30876.2,6474.41
24046.5,6474.41
24019.7,6471.77
23992.9,6474.41
23992.9,6474.41
23912.8,6482.3
23810,6513.48
23715.3,6564.11
23632.3,6632.25
23615.2,6653.06
22653.1,7615.18
22632.3,7632.25
22615.2,7653.06
22615.2,7653.06
22599.2,7672.58
22564.1,7715.28
22556.6,7729.36
22513.5,7810.01
22499.9,7854.89
22482.3,7912.79
22474.4,7992.9
22474.4,7992.9
22471.8,8019.69
22474.4,8046.47
22474.4,9793.82
19653.1,12615.2
19403.1,12865.2
19403.1,12865.2
18153.1,14115.2
18132.3,14132.3
18115.2,14153.1
18115.2,14153.1
18064.1,14215.3
18013.5,14310
17982.3,14412.8
17971.8,14519.7
17974.4,14546.5
17974.4,15325.8
17958.8,15336.2
17836.2,15458.8
17739.9,15602.9
17673.6,15763
17639.8,15933
17639.8,16106.4
17673.6,16276.3
17739.9,16436.5
17836.2,16580.6
17958.8,16703.2
18102.9,16799.5
18263,16865.8
18433,16899.6
18606.3,16899.6
18776.3,16865.8
18936.5,16799.5
19080.6,16703.2
19203.2,16580.6
19299.5,16436.5
19365.8,16276.3
19399.6,16106.4
19399.6,15933
19365.8,15763
19299.5,15602.9
19203.2,15458.8
19080.6,15336.2
19065,15325.8
19065,14745.5
20174.2,13636.3
20174.2,13636.3
23386.3,10424.2
23407.1,10407.1
23424.2,10386.3
23994.6,9815.94
24741.9,9815.94
24768.7,9818.58
24795.5,9815.94
24795.5,9815.94
24875.6,9808.05
24978.4,9776.87
25073.1,9726.24
25156.1,9658.1
25173.2,9637.29
25180.9,9629.56
25278.7,9599.9
25387.3,9541.87
25482.5,9463.77
25560.6,9368.6
25618.6,9260.02
25654.3,9142.21
25666.4,9019.69
25654.3,8897.16
25618.6,8779.35
25560.6,8670.77
25519.9,8621.22
25553,8603.56
25591,8572.32
25597.1,8564.96
27293.8,8564.96
28474.4,9745.55
28474.4,10974.4
28046.5,10974.4
28019.7,10971.8
27992.9,10974.4
27992.9,10974.4
27912.8,10982.3
27810,11013.5
27715.3,11064.1
27653.1,11115.2
27653.1,11115.2
27632.3,11132.3
27615.2,11153.1
26153.1,12615.2
26132.3,12632.3
26115.2,12653.1
26115.2,12653.1
26078.9,12697.3
26064.1,12715.3
26044.4,12752.1
26013.5,12810
25996.7,12865.2
25982.3,12912.8
25974.4,12992.9
25974.4,12992.9
25971.8,13019.7
25974.4,13046.5
25974.4,22293.8
24793.8,23474.4
12745.5,23474.4
11065,21793.8
11065,13546.5
11067.6,13519.7
11471.8,13519.7
11474.4,13546.5
11474.4,21492.9
11471.8,21519.7
11474.4,21546.5
11474.4,21546.5
11482.3,21626.6
11513.5,21729.4
11564.1,21824.1
11632.3,21907.1
11653.1,21924.2
12615.2,22886.3
12632.3,22907.1
12715.3,22975.3
12810,23025.9
12912.8,23057.1
12992.9,23065
12992.9,23065
13019.7,23067.6
13046.5,23065
20992.9,23065
21019.7,23067.6
21046.5,23065
21046.5,23065
21126.6,23057.1
21229.4,23025.9
21324.1,22975.3
21407.1,22907.1
21424.2,22886.3
22886.3,21424.2
22907.1,21407.1
22975.3,21324.1
23025.9,21229.4
23057.1,21126.6
23065,21046.5
23065,21046.5
23067.6,21019.7
23065,20992.9
23065,18745.5
23745.5,18065
24147.9,18065
24147,18065.6
24065.6,18147
24001.6,18242.8
23957.5,18349.2
23935,18462.1
23935,18577.3
23957.5,18690.2
24001.6,18796.6
24065.6,18892.4
24147,18973.8
24215.7,19019.7
24147,19065.6
24065.6,19147
24001.6,19242.8
23957.5,19349.2
23935,19462.1
23935,19577.3
23957.5,19690.2
24001.6,19796.6
24065.6,19892.4
24147,19973.8
24242.8,20037.8
24349.2,20081.9
24462.1,20104.3
24577.3,20104.3
24690.2,20081.9
24796.6,20037.8
24892.4,19973.8
24973.8,19892.4
25037.8,19796.6
25081.9,19690.2
25104.3,19577.3
25104.3,19462.1
25081.9,19349.2
25037.8,19242.8
24973.8,19147
24892.4,19065.6
24823.7,19019.7
24892.4,18973.8
24973.8,18892.4
25037.8,18796.6
25081.9,18690.2
25104.3,18577.3
25104.3,18462.1
25081.9,18349.2
25037.8,18242.8
24973.8,18147
24892.4,18065.6
24823.7,18019.7
24892.4,17973.8
24973.8,17892.4
25037.8,17796.6
25081.9,17690.2
25104.3,17577.3
25104.3,17462.1
25081.9,17349.2
25037.8,17242.8
24973.8,17147
24892.4,17065.6
24823.7,17019.7
24892.4,16973.8
24973.8,16892.4
25037.8,16796.6
25081.9,16690.2
25104.3,16577.3
25104.3,16462.1
25081.9,16349.2
25037.8,16242.8
24973.8,16147
24892.4,16065.6
24823.7,16019.7
24892.4,15973.8
24973.8,15892.4
25037.8,15796.6
25081.9,15690.2
25104.3,15577.3
25104.3,15462.1
25081.9,15349.2
25037.8,15242.8
24973.8,15147
24892.4,15065.6
24796.6,15001.6
24690.2,14957.5
24577.3,14935
24462.1,14935
24349.2,14957.5
24308.3,14974.4
21046.5,14974.4
21019.7,14971.8
20992.9,14974.4
20992.9,14974.4
20912.8,14982.3
20810,15013.5
20715.3,15064.1
20711,15067.6
20653.1,15115.2
20653.1,15115.2
20632.3,15132.3
20615.2,15153.1
20153.1,15615.2
20132.3,15632.3
20115.2,15653.1
20115.2,15653.1
20064.1,15715.3
20013.5,15810
19999.9,15854.9
19982.3,15912.8
19974.4,15992.9
19974.4,15992.9
19971.8,16019.7
19974.4,16046.5
19974.4,18793.8
19293.8,19474.4
17745.5,19474.4
16565,18293.8
16565,9546.47
16567.6,9519.69
16565,9492.9
16565,9492.9
16557.1,9412.79
16525.9,9310.01
16475.3,9215.28
16407.1,9132.25
16386.3,9115.18
15924.2,8653.06
15907.1,8632.25
15824.1,8564.11
15729.4,8513.48
15626.6,8482.3
15546.5,8474.41
15546.5,8474.41
15519.7,8471.77
15492.9,8474.41
14856,8474.41
14879.8,8458.52
14958.5,8379.83
15020.3,8287.29
15062.9,8184.48
15084.6,8075.33
15084.6,7964.04
15062.9,7854.89
15020.3,7752.08
14958.5,7659.54
14879.8,7580.85
14787.3,7519.02
14684.5,7476.44
14575.3,7454.72
14464,7454.72
14354.9,7476.44
14252.1,7519.02
14159.5,7580.85
14080.9,7659.54
14019,7752.08
13976.4,7854.89
13954.7,7964.04
13954.7,8075.33
13976.4,8184.48
14019,8287.29
14080.9,8379.83
14159.5,8458.52
14251.1,8519.69
14159.5,8580.85
14080.9,8659.54
14019,8752.08
13976.4,8854.89
13954.7,8964.04
13954.7,9075.33
13976.4,9184.48
14019,9287.29
14080.9,9379.83
14159.5,9458.52
14251.1,9519.69
14159.5,9580.85
14080.9,9659.54
14019,9752.08
13976.4,9854.89
13954.7,9964.04
13954.7,10075.3
13976.4,10184.5
14019,10287.3
14080.9,10379.8
14159.5,10458.5
14251.1,10519.7
14159.5,10580.9
14080.9,10659.5
14019,10752.1
13976.4,10854.9
13954.7,10964
13954.7,11075.3
13976.4,11184.5
14019,11287.3
14080.9,11379.8
14159.5,11458.5
14183.3,11474.4
13546.5,11474.4
13519.7,11471.8
13492.9,11474.4
13492.9,11474.4
13412.8,11482.3
13310,11513.5
13215.3,11564.1
13153.1,11615.2
13153.1,11615.2
13132.3,11632.3
13115.2,11653.1
11653.1,13115.2
11632.3,13132.3
11615.2,13153.1
11615.2,13153.1
11564.1,13215.3
11513.5,13310
11482.3,13412.8
11471.8,13519.7
11067.6,13519.7
11067.6,13519.7
11065,13492.9
11065,13492.9
11057.1,13412.8
11025.9,13310
10975.3,13215.3
10932.2,13162.8
10924.2,13153.1
10924.2,13153.1
10907.1,13132.3
10886.3,13115.2
10424.2,12653.1
10407.1,12632.3
10324.1,12564.1
10229.4,12513.5
10126.6,12482.3
10046.5,12474.4
10046.5,12474.4
10019.7,12471.8
9992.9,12474.4
8856.04,12474.4
8879.83,12458.5
8958.52,12379.8
9020.35,12287.3
9062.93,12184.5
9084.65,12075.3
9084.65,11964
9062.93,11854.9
9020.35,11752.1
8958.52,11659.5
8879.83,11580.9
8788.28,11519.7
8879.83,11458.5
8958.52,11379.8
9020.35,11287.3
9062.93,11184.5
9084.65,11075.3
9084.65,10964
9062.93,10854.9
9020.35,10752.1
8958.52,10659.5
8879.83,10580.9
8788.28,10519.7
8879.83,10458.5
8958.52,10379.8
9020.35,10287.3
9062.93,10184.5
9084.65,10075.3
9084.65,9964.04
9062.93,9854.89
9020.35,9752.08
8958.52,9659.54
8879.83,9580.85
8787.29,9519.02
8684.48,9476.44
8575.33,9454.72
8464.04,9454.72
8354.89,9476.44
8252.08,9519.02
8159.54,9580.85
8080.85,9659.54
8019.02,9752.08
7976.44,9854.89
7954.72,9964.04
289.37,9964.04
289.37,5704.72
7953.52,5704.72
7953.52,6334.65
7958.34,6383.65
7972.64,6430.78
7995.85,6474.21
8027.09,6512.28
8065.16,6543.52
8108.59,6566.73
8155.72,6581.03
8159.04,6581.36
8080.85,6659.54
8019.02,6752.08
7976.44,6854.89
7954.72,6964.04
7954.72,7075.33
7976.44,7184.48
8019.02,7287.29
8080.85,7379.83
8159.54,7458.52
8251.09,7519.69
8159.54,7580.85
8080.85,7659.54
8019.02,7752.08
7976.44,7854.89
7954.72,7964.04
7954.72,8075.33
7976.44,8184.48
8019.02,8287.29
8080.85,8379.83
8159.54,8458.52
8252.08,8520.35
8354.89,8562.93
8464.04,8584.65
8575.33,8584.65
8684.48,8562.93
8787.29,8520.35
8879.83,8458.52
8958.52,8379.83
9020.35,8287.29
9062.93,8184.48
9084.65,8075.33
9084.65,7964.04
9062.93,7854.89
9020.35,7752.08
8958.52,7659.54
8879.83,7580.85
8788.28,7519.69
8879.83,7458.52
8958.52,7379.83
9020.35,7287.29
9062.93,7184.48
9084.65,7075.33
9084.65,6964.04
9062.93,6854.89
9020.35,6752.08
8958.52,6659.54
8880.33,6581.36
8883.65,6581.03
8930.78,6566.73
8974.21,6543.52
9012.28,6512.28
9043.52,6474.21
9066.73,6430.78
9081.03,6383.65
9085.86,6334.65
9085.86,5964.04
13954.7,5964.04
13954.7,6075.33
13976.4,6184.48
14019,6287.29
14080.9,6379.83
14159.5,6458.52
14252.1,6520.35
14354.9,6562.93
14464,6584.65
14575.3,6584.65
14684.5,6562.93
14787.3,6520.35
14879.8,6458.52
14958.5,6379.83
15020.3,6287.29
15062.9,6184.48
15084.6,6075.33
15084.6,5964.04
15065,5865.08
15065,4745.55
15245.5,4564.96
18793.8,4564.96
18974.4,4745.55
18974.4,5177.92
18929.1,5177.92
18880.1,5182.75
18833,5197.05
18789.6,5220.26
18751.5,5251.5
18720.3,5289.57
18697,5333
18682.8,5380.13
18677.9,5429.13
18677.9,6610.24
18682.8,6659.25
18697,6706.37
18720.3,6749.8
18751.5,6787.87
18789.6,6819.11
18833,6842.32
18880.1,6856.62
18929.1,6861.45
18974.4,6861.45
18974.4,7992.9
18971.8,8019.69
18974.4,8046.47
18974.4,8046.47
18974.4,8046.48
18974.4,8793.83
18629.7,9138.55
17889.8,9138.55
17840.8,9143.38
17793.6,9157.68
17750.2,9180.89
17712.1,9212.13
17680.9,9250.2
17657.7,9293.63
17643.4,9340.76
17638.6,9389.76
17638.6,10649.6
17643.4,10698.6
17657.7,10745.7
17680.9,10789.2
17712.1,10827.2
17750.2,10858.5
17793.6,10881.7
17840.8,10896
17889.8,10900.8
19149.6,10900.8
19198.6,10896
19245.7,10881.7
19289.2,10858.5
19327.2,10827.2
19358.5,10789.2
19381.7,10745.7
19396,10698.6
19400.8,10649.6
19400.8,9909.69
19886.3,9424.19
19907.1,9407.12
19931.4,9377.56
19975.3,9324.09
19975.3,9324.09
20025.9,9229.36
20057.1,9126.58
20065,9046.47
20065,9046.47
20067.6,9019.69
20065,8992.9
20065,8245.55
20245.5,8064.96
21492.9,8064.96
21519.7,8067.6
21546.5,8064.96
21546.5,8064.96
21626.6,8057.07
21729.4,8025.89
21824.1,7975.26
21907.1,7907.12
21924.2,7886.31
23745.5,6064.96
32293.8,6064.96
32974.4,6745.55
32974.4,8293.82
32793.8,8474.41
32361.4,8474.41
32361.4,8429.13
32356.6,8380.13
32342.3,8333
32319.1,8289.57
32287.9,8251.5
32249.8,8220.26
32206.4,8197.05
32159.2,8182.75
32110.2,8177.92
30929.1,8177.92
30880.1,8182.75
30833,8197.05
30789.6,8220.26
30751.5,8251.5
30720.3,8289.57
30697,8333
30682.8,8380.13
30677.9,8429.13
30677.9,9610.24
30682.8,9659.25
30697,9706.37
30720.3,9749.8
30751.5,9787.87
30789.6,9819.11
30833,9842.32
30880.1,9856.62
30929.1,9861.45
32110.2,9861.45
32159.2,9856.62
32206.4,9842.32
32249.8,9819.11
32287.9,9787.87
32319.1,9749.8
32342.3,9706.37
32356.6,9659.25
32361.4,9610.24
32361.4,9564.96
32992.9,9564.96
33019.7,9567.6
33046.5,9564.96
33046.5,9564.96
33126.6,9557.07
33229.4,9525.89
33324.1,9475.26
33407.1,9407.12
33424.2,9386.31
33886.3,8924.19
33907.1,8907.12
33924.2,8886.32
33924.2,8886.31
33975.3,8824.09
33975.3,8824.09
34025.9,8729.36
34057.1,8626.58
34065,8546.47
34065,8546.47
34067.6,8519.69
34065,8492.9
34065,6546.47
34067.6,6519.69
34065,6492.9
34065,6492.9
34057.1,6412.79
34025.9,6310.01
33975.3,6215.28
33907.1,6132.25
33886.3,6115.18
32924.2,5153.06
32907.1,5132.25
32824.1,5064.11
32729.4,5013.48
32626.6,4982.3
32546.5,4974.41
32546.5,4974.41
32519.7,4971.77
32492.9,4974.41
23546.5,4974.41
23519.7,4971.77
23492.9,4974.41
23492.9,4974.41
23422,4981.39
23412.8,4982.3
23310,5013.48
23215.3,5064.11
23172.1,5099.56
23153.1,5115.18
23153.1,5115.18
23132.3,5132.25
23115.2,5153.06
21293.8,6974.41
20065,6974.41
20065,6861.45
20110.2,6861.45
20159.2,6856.62
20206.4,6842.32
20249.8,6819.11
20287.9,6787.87
20319.1,6749.8
20342.3,6706.37
20356.6,6659.25
20361.4,6610.24
20361.4,5429.13
20356.6,5380.13
20342.3,5333
20319.1,5289.57
20287.9,5251.5
20249.8,5220.26
20206.4,5197.05
20159.2,5182.75
20110.2,5177.92
20065,5177.92
20065,4546.47
20067.6,4519.69
20065,4492.9
20065,4492.9
20057.1,4412.79
20025.9,4310.01
19975.3,4215.28
19960.5,4197.28
19924.2,4153.06
19924.2,4153.06
19907.1,4132.25
19886.3,4115.18
19424.2,3653.06
19407.1,3632.25
19324.1,3564.11
19229.4,3513.48
19126.6,3482.3
19046.5,3474.41
19046.5,3474.41
19019.7,3471.77
18992.9,3474.41
15046.5,3474.41
15019.7,3471.77
14992.9,3474.41
14992.9,3474.41
14912.8,3482.3
14810,3513.48
14715.3,3564.11
14715.3,3564.11
14715.3,3564.11
14653.1,3615.18
14653.1,3615.18
14632.3,3632.25
14615.2,3653.06
14153.1,4115.18
14132.3,4132.25
14064.1,4215.28
14056.6,4229.36
14013.5,4310.01
13982.3,4412.79
13982.3,4412.79
13974.4,4492.9
13974.4,4492.9
13971.8,4519.69
13974.4,4546.47
13974.4,5865.08
13954.7,5964.04
9085.86,5964.04
9085.86,5704.72
9081.03,5655.72
9066.73,5608.59
9043.52,5565.16
9012.28,5527.09
8974.21,5495.85
8930.78,5472.64
8883.65,5458.34
8834.65,5453.52
8204.72,5453.52
8155.72,5458.34
8108.59,5472.64
8065.16,5495.85
8027.09,5527.09
7995.85,5565.16
7972.64,5608.59
7958.34,5655.72
7953.52,5704.72
289.37,5704.72
289.37,3433.02
2139.76,3433.02
2139.76,3606.35
2173.58,3776.35
2239.91,3936.48
2336.21,4080.6
2458.77,4203.16
2602.89,4299.46
2763.02,4365.79
2933.02,4399.61
3106.35,4399.61
3276.35,4365.79
3436.48,4299.46
3580.6,4203.16
3703.16,4080.6
3799.46,3936.48
3865.79,3776.35
3899.61,3606.35
3899.61,3433.02
30139.8,3433.02
30139.8,3606.35
30173.6,3776.35
30239.9,3936.48
30336.2,4080.6
30458.8,4203.16
30602.9,4299.46
30763,4365.79
30933,4399.61
31106.3,4399.61
31276.3,4365.79
31436.5,4299.46
31580.6,4203.16
31703.2,4080.6
31799.5,3936.48
31865.8,3776.35
31899.6,3606.35
31899.6,3433.02
31865.8,3263.02
31799.5,3102.89
31703.2,2958.77
31580.6,2836.21
31436.5,2739.91
31276.3,2673.58
31106.3,2639.76
30933,2639.76
30763,2673.58
30602.9,2739.91
30458.8,2836.21
30336.2,2958.77
30239.9,3102.89
30173.6,3263.02
30139.8,3433.02
3899.61,3433.02
3865.79,3263.02
3799.46,3102.89
3703.16,2958.77
3580.6,2836.21
3436.48,2739.91
3276.35,2673.58
3106.35,2639.76
2933.02,2639.76
2763.02,2673.58
2602.89,2739.91
2458.77,2836.21
2336.21,2958.77
2239.91,3102.89
2173.58,3263.02
2139.76,3433.02
289.37,3433.02
289.37,289.37
40250,289.37
Z" /> 
</g>
</g>
<g style="fill:#FFFFFF; fill-opacity:1.0; 
stroke:#FFFFFF; stroke-width:100; stroke-opacity:1; 
stroke-linecap:round; stroke-linejoin:round;">
</g>
<g style="fill:#FFFFFF; fill-opacity:1.0; 
stroke:#FFFFFF; stroke-width:0; stroke-opacity:1; 
stroke-linecap:round; stroke-linejoin:round;">
<circle cx="29019.7" cy="12519.7" r="157.48" /> 
</g>
<g style="fill:#FFFFFF; fill-opacity:1.0; 
stroke:#FFFFFF; stroke-width:39.3701; stroke-opacity:1; 
stroke-linecap:round; stroke-linejoin:round;">
</g>
<g style="fill:#FFFFFF; fill-opacity:1.0; 
stroke:#FFFFFF; stroke-width:0; stroke-opacity:1; 
stroke-linecap:round; stroke-linejoin:round;">
<circle cx="29019.7" cy="11519.7" r="157.48" /> 
</g>
<g style="fill:#FFFFFF; fill-opacity:1.0; 
stroke:#FFFFFF; stroke-width:39.3701; stroke-opacity:1; 
stroke-linecap:round; stroke-linejoin:round;">
</g>
<g style="fill:#FFFFFF; fill-opacity:1.0; 
stroke:#FFFFFF; stroke-width:0; stroke-opacity:1; 
stroke-linecap:round; stroke-linejoin:round;">
<circle cx="25019.7" cy="10019.7" r="216.535" /> 
</g>
<g style="fill:#FFFFFF; fill-opacity:1.0; 
stroke:#FFFFFF; stroke-width:39.3701; stroke-opacity:1; 
stroke-linecap:round; stroke-linejoin:round;">
</g>
<g style="fill:#FFFFFF; fill-opacity:1.0; 
stroke:#FFFFFF; stroke-width:0; stroke-opacity:1; 
stroke-linecap:round; stroke-linejoin:round;">
<circle cx="25019.7" cy="9019.69" r="216.535" /> 
</g>
<g style="fill:#FFFFFF; fill-opacity:1.0; 
stroke:#FFFFFF; stroke-width:39.3701; stroke-opacity:1; 
stroke-linecap:round; stroke-linejoin:round;">
</g>
<g style="fill:#FFFFFF; fill-opacity:1.0; 
stroke:#FFFFFF; stroke-width:0; stroke-opacity:1; 
stroke-linecap:round; stroke-linejoin:round;">
<circle cx="25019.7" cy="8019.69" r="216.535" /> 
</g>
<g style="fill:#FFFFFF; fill-opacity:1.0; 
stroke:#FFFFFF; stroke-width:39.3701; stroke-opacity:1; 
stroke-linecap:round; stroke-linejoin:round;">
</g>
<g style="fill:#FFFFFF; fill-opacity:1.0; 
stroke:#FFFFFF; stroke-width:0; stroke-opacity:1; 
stroke-linecap:round; stroke-linejoin:round;">
<circle cx="31519.7" cy="7019.69" r="299.213" /> 
</g>
<g style="fill:#FFFFFF; fill-opacity:1.0; 
stroke:#FFFFFF; stroke-width:39.3701; stroke-opacity:1; 
stroke-linecap:round; stroke-linejoin:round;">
</g>
<g style="fill:#FFFFFF; fill-opacity:1.0; 
stroke:#FFFFFF; stroke-width:0; stroke-opacity:1; 
stroke-linecap:round; stroke-linejoin:round;">
<circle cx="31519.7" cy="9019.69" r="299.213" /> 
</g>
<g style="fill:#FFFFFF; fill-opacity:1.0; 
stroke:#FFFFFF; stroke-width:39.3701; stroke-opacity:1; 
stroke-linecap:round; stroke-linejoin:round;">
</g>
<g style="fill:#FFFFFF; fill-opacity:1.0; 
stroke:#FFFFFF; stroke-width:0; stroke-opacity:1; 
stroke-linecap:round; stroke-linejoin:round;">
<circle cx="17519.7" cy="6019.69" r="299.213" /> 
</g>
<g style="fill:#FFFFFF; fill-opacity:1.0; 
stroke:#FFFFFF; stroke-width:39.3701; stroke-opacity:1; 
stroke-linecap:round; stroke-linejoin:round;">
</g>
<g style="fill:#FFFFFF; fill-opacity:1.0; 
stroke:#FFFFFF; stroke-width:0; stroke-opacity:1; 
stroke-linecap:round; stroke-linejoin:round;">
<circle cx="19519.7" cy="6019.69" r="299.213" /> 
</g>
<g style="fill:#FFFFFF; fill-opacity:1.0; 
stroke:#FFFFFF; stroke-width:39.3701; stroke-opacity:1; 
stroke-linecap:round; stroke-linejoin:round;">
</g>
<g style="fill:#FFFFFF; fill-opacity:1.0; 
stroke:#FFFFFF; stroke-width:0; stroke-opacity:1; 
stroke-linecap:round; stroke-linejoin:round;">
<circle cx="24519.7" cy="19519.7" r="196.85" /> 
</g>
<g style="fill:#FFFFFF; fill-opacity:1.0; 
stroke:#FFFFFF; stroke-width:39.3701; stroke-opacity:1; 
stroke-linecap:round; stroke-linejoin:round;">
</g>
<g style="fill:#FFFFFF; fill-opacity:1.0; 
stroke:#FFFFFF; stroke-width:0; stroke-opacity:1; 
stroke-linecap:round; stroke-linejoin:round;">
<circle cx="24519.7" cy="18519.7" r="196.85" /> 
</g>
<g style="fill:#FFFFFF; fill-opacity:1.0; 
stroke:#FFFFFF; stroke-width:39.3701; stroke-opacity:1; 
stroke-linecap:round; stroke-linejoin:round;">
</g>
<g style="fill:#FFFFFF; fill-opacity:1.0; 
stroke:#FFFFFF; stroke-width:0; stroke-opacity:1; 
stroke-linecap:round; stroke-linejoin:round;">
<circle cx="24519.7" cy="17519.7" r="196.85" /> 
</g>
<g style="fill:#FFFFFF; fill-opacity:1.0; 
stroke:#FFFFFF; stroke-width:39.3701; stroke-opacity:1; 
stroke-linecap:round; stroke-linejoin:round;">
</g>
<g style="fill:#FFFFFF; fill-opacity:1.0; 
stroke:#FFFFFF; stroke-width:0; stroke-opacity:1; 
stroke-linecap:round; stroke-linejoin:round;">
<circle cx="24519.7" cy="16519.7" r="196.85" /> 
</g>
<g style="fill:#FFFFFF; fill-opacity:1.0; 
stroke:#FFFFFF; stroke-width:39.3701; stroke-opacity:1; 
stroke-linecap:round; stroke-linejoin:round;">
</g>
<g style="fill:#FFFFFF; fill-opacity:1.0; 
stroke:#FFFFFF; stroke-width:0; stroke-opacity:1; 
stroke-linecap:round; stroke-linejoin:round;">
<circle cx="24519.7" cy="15519.7" r="196.85" /> 
</g>
<g style="fill:#FFFFFF; fill-opacity:1.0; 
stroke:#FFFFFF; stroke-width:39.3701; stroke-opacity:1; 
stroke-linecap:round; stroke-linejoin:round;">
</g>
<g style="fill:#FFFFFF; fill-opacity:1.0; 
stroke:#FFFFFF; stroke-width:0; stroke-opacity:1; 
stroke-linecap:round; stroke-linejoin:round;">
<circle cx="24519.7" cy="14519.7" r="196.85" /> 
</g>
<g style="fill:#FFFFFF; fill-opacity:1.0; 
stroke:#FFFFFF; stroke-width:39.3701; stroke-opacity:1; 
stroke-linecap:round; stroke-linejoin:round;">
</g>
<g style="fill:#FFFFFF; fill-opacity:1.0; 
stroke:#FFFFFF; stroke-width:0; stroke-opacity:1; 
stroke-linecap:round; stroke-linejoin:round;">
<circle cx="31019.7" cy="21019.7" r="629.921" /> 
</g>
<g style="fill:#FFFFFF; fill-opacity:1.0; 
stroke:#FFFFFF; stroke-width:39.3701; stroke-opacity:1; 
stroke-linecap:round; stroke-linejoin:round;">
</g>
<g style="fill:#FFFFFF; fill-opacity:1.0; 
stroke:#FFFFFF; stroke-width:0; stroke-opacity:1; 
stroke-linecap:round; stroke-linejoin:round;">
<circle cx="3019.69" cy="21019.7" r="629.921" /> 
</g>
<g style="fill:#FFFFFF; fill-opacity:1.0; 
stroke:#FFFFFF; stroke-width:39.3701; stroke-opacity:1; 
stroke-linecap:round; stroke-linejoin:round;">
</g>
<g style="fill:#FFFFFF; fill-opacity:1.0; 
stroke:#FFFFFF; stroke-width:0; stroke-opacity:1; 
stroke-linecap:round; stroke-linejoin:round;">
<circle cx="31019.7" cy="3519.69" r="629.921" /> 
</g>
<g style="fill:#FFFFFF; fill-opacity:1.0; 
stroke:#FFFFFF; stroke-width:39.3701; stroke-opacity:1; 
stroke-linecap:round; stroke-linejoin:round;">
</g>
<g style="fill:#FFFFFF; fill-opacity:1.0; 
stroke:#FFFFFF; stroke-width:0; stroke-opacity:1; 
stroke-linecap:round; stroke-linejoin:round;">
<circle cx="3019.69" cy="3519.69" r="629.921" /> 
</g>
<g style="fill:#FFFFFF; fill-opacity:1.0; 
stroke:#FFFFFF; stroke-width:39.3701; stroke-opacity:1; 
stroke-linecap:round; stroke-linejoin:round;">
</g>
<g style="fill:#FFFFFF; fill-opacity:1.0; 
stroke:#FFFFFF; stroke-width:0; stroke-opacity:1; 
stroke-linecap:round; stroke-linejoin:round;">
<circle cx="18519.7" cy="16019.7" r="314.961" /> 
</g>
<g style="fill:#FFFFFF; fill-opacity:1.0; 
stroke:#FFFFFF; stroke-width:39.3701; stroke-opacity:1; 
stroke-linecap:round; stroke-linejoin:round;">
</g>
<g style="fill:#FFFFFF; fill-opacity:1.0; 
stroke:#FFFFFF; stroke-width:0; stroke-opacity:1; 
stroke-linecap:round; stroke-linejoin:round;">
<circle cx="18519.7" cy="10019.7" r="314.961" /> 
</g>
<g style="fill:#FFFFFF; fill-opacity:1.0; 
stroke:#FFFFFF; stroke-width:39.3701; stroke-opacity:1; 
stroke-linecap:round; stroke-linejoin:round;">
</g>
<g style="fill:#FFFFFF; fill-opacity:1.0; 
stroke:#FFFFFF; stroke-width:0; stroke-opacity:1; 
stroke-linecap:round; stroke-linejoin:round;">
<circle cx="14519.7" cy="20019.7" r="196.85" /> 
</g>
<g style="fill:#FFFFFF; fill-opacity:1.0; 
stroke:#FFFFFF; stroke-width:39.3701; stroke-opacity:1; 
stroke-linecap:round; stroke-linejoin:round;">
</g>
<g style="fill:#FFFFFF; fill-opacity:1.0; 
stroke:#FFFFFF; stroke-width:0; stroke-opacity:1; 
stroke-linecap:round; stroke-linejoin:round;">
<circle cx="8519.69" cy="20019.7" r="196.85" /> 
</g>
<g style="fill:#FFFFFF; fill-opacity:1.0; 
stroke:#FFFFFF; stroke-width:39.3701; stroke-opacity:1; 
stroke-linecap:round; stroke-linejoin:round;">
</g>
<g style="fill:#FFFFFF; fill-opacity:1.0; 
stroke:#FFFFFF; stroke-width:0; stroke-opacity:1; 
stroke-linecap:round; stroke-linejoin:round;">
<circle cx="14519.7" cy="6019.69" r="196.85" /> 
</g>
<g style="fill:#FFFFFF; fill-opacity:1.0; 
stroke:#FFFFFF; stroke-width:39.3701; stroke-opacity:1; 
stroke-linecap:round; stroke-linejoin:round;">
</g>
<g style="fill:#FFFFFF; fill-opacity:1.0; 
stroke:#FFFFFF; stroke-width:0; stroke-opacity:1; 
stroke-linecap:round; stroke-linejoin:round;">
<circle cx="8519.69" cy="19019.7" r="196.85" /> 
</g>
<g style="fill:#FFFFFF; fill-opacity:1.0; 
stroke:#FFFFFF; stroke-width:39.3701; stroke-opacity:1; 
stroke-linecap:round; stroke-linejoin:round;">
</g>
<g style="fill:#FFFFFF; fill-opacity:1.0; 
stroke:#FFFFFF; stroke-width:0; stroke-opacity:1; 
stroke-linecap:round; stroke-linejoin:round;">
<circle cx="14519.7" cy="7019.69" r="196.85" /> 
</g>
<g style="fill:#FFFFFF; fill-opacity:1.0; 
stroke:#FFFFFF; stroke-width:39.3701; stroke-opacity:1; 
stroke-linecap:round; stroke-linejoin:round;">
</g>
<g style="fill:#FFFFFF; fill-opacity:1.0; 
stroke:#FFFFFF; stroke-width:0; stroke-opacity:1; 
stroke-linecap:round; stroke-linejoin:round;">
<circle cx="8519.69" cy="18019.7" r="196.85" /> 
</g>
<g style="fill:#FFFFFF; fill-opacity:1.0; 
stroke:#FFFFFF; stroke-width:39.3701; stroke-opacity:1; 
stroke-linecap:round; stroke-linejoin:round;">
</g>
<g style="fill:#FFFFFF; fill-opacity:1.0; 
stroke:#FFFFFF; stroke-width:0; stroke-opacity:1; 
stroke-linecap:round; stroke-linejoin:round;">
<circle cx="14519.7" cy="8019.69" r="196.85" /> 
</g>
<g style="fill:#FFFFFF; fill-opacity:1.0; 
stroke:#FFFFFF; stroke-width:39.3701; stroke-opacity:1; 
stroke-linecap:round; stroke-linejoin:round;">
</g>
<g style="fill:#FFFFFF; fill-opacity:1.0; 
stroke:#FFFFFF; stroke-width:0; stroke-opacity:1; 
stroke-linecap:round; stroke-linejoin:round;">
<circle cx="8519.69" cy="17019.7" r="196.85" /> 
</g>
<g style="fill:#FFFFFF; fill-opacity:1.0; 
stroke:#FFFFFF; stroke-width:39.3701; stroke-opacity:1; 
stroke-linecap:round; stroke-linejoin:round;">
</g>
<g style="fill:#FFFFFF; fill-opacity:1.0; 
stroke:#FFFFFF; stroke-width:0; stroke-opacity:1; 
stroke-linecap:round; stroke-linejoin:round;">
<circle cx="14519.7" cy="9019.69" r="196.85" /> 
</g>
<g style="fill:#FFFFFF; fill-opacity:1.0; 
stroke:#FFFFFF; stroke-width:39.3701; stroke-opacity:1; 
stroke-linecap:round; stroke-linejoin:round;">
</g>
<g style="fill:#FFFFFF; fill-opacity:1.0; 
stroke:#FFFFFF; stroke-width:0; stroke-opacity:1; 
stroke-linecap:round; stroke-linejoin:round;">
<circle cx="8519.69" cy="16019.7" r="196.85" /> 
</g>
<g style="fill:#FFFFFF; fill-opacity:1.0; 
stroke:#FFFFFF; stroke-width:39.3701; stroke-opacity:1; 
stroke-linecap:round; stroke-linejoin:round;">
</g>
<g style="fill:#FFFFFF; fill-opacity:1.0; 
stroke:#FFFFFF; stroke-width:0; stroke-opacity:1; 
stroke-linecap:round; stroke-linejoin:round;">
<circle cx="14519.7" cy="10019.7" r="196.85" /> 
</g>
<g style="fill:#FFFFFF; fill-opacity:1.0; 
stroke:#FFFFFF; stroke-width:39.3701; stroke-opacity:1; 
stroke-linecap:round; stroke-linejoin:round;">
</g>
<g style="fill:#FFFFFF; fill-opacity:1.0; 
stroke:#FFFFFF; stroke-width:0; stroke-opacity:1; 
stroke-linecap:round; stroke-linejoin:round;">
<circle cx="8519.69" cy="15019.7" r="196.85" /> 
</g>
<g style="fill:#FFFFFF; fill-opacity:1.0; 
stroke:#FFFFFF; stroke-width:39.3701; stroke-opacity:1; 
stroke-linecap:round; stroke-linejoin:round;">
</g>
<g style="fill:#FFFFFF; fill-opacity:1.0; 
stroke:#FFFFFF; stroke-width:0; stroke-opacity:1; 
stroke-linecap:round; stroke-linejoin:round;">
<circle cx="14519.7" cy="11019.7" r="196.85" /> 
</g>
<g style="fill:#FFFFFF; fill-opacity:1.0; 
stroke:#FFFFFF; stroke-width:39.3701; stroke-opacity:1; 
stroke-linecap:round; stroke-linejoin:round;">
</g>
<g style="fill:#FFFFFF; fill-opacity:1.0; 
stroke:#FFFFFF; stroke-width:0; stroke-opacity:1; 
stroke-linecap:round; stroke-linejoin:round;">
<circle cx="8519.69" cy="14019.7" r="196.85" /> 
</g>
<g style="fill:#FFFFFF; fill-opacity:1.0; 
stroke:#FFFFFF; stroke-width:39.3701; stroke-opacity:1; 
stroke-linecap:round; stroke-linejoin:round;">
</g>
<g style="fill:#FFFFFF; fill-opacity:1.0; 
stroke:#FFFFFF; stroke-width:0; stroke-opacity:1; 
stroke-linecap:round; stroke-linejoin:round;">
<circle cx="14519.7" cy="12019.7" r="196.85" /> 
</g>
<g style="fill:#FFFFFF; fill-opacity:1.0; 
stroke:#FFFFFF; stroke-width:39.3701; stroke-opacity:1; 
stroke-linecap:round; stroke-linejoin:round;">
</g>
<g style="fill:#FFFFFF; fill-opacity:1.0; 
stroke:#FFFFFF; stroke-width:0; stroke-opacity:1; 
stroke-linecap:round; stroke-linejoin:round;">
<circle cx="8519.69" cy="13019.7" r="196.85" /> 
</g>
<g style="fill:#FFFFFF; fill-opacity:1.0; 
stroke:#FFFFFF; stroke-width:39.3701; stroke-opacity:1; 
stroke-linecap:round; stroke-linejoin:round;">
</g>
<g style="fill:#FFFFFF; fill-opacity:1.0; 
stroke:#FFFFFF; stroke-width:0; stroke-opacity:1; 
stroke-linecap:round; stroke-linejoin:round;">
<circle cx="14519.7" cy="13019.7" r="196.85" /> 
</g>
<g style="fill:#FFFFFF; fill-opacity:1.0; 
stroke:#FFFFFF; stroke-width:39.3701; stroke-opacity:1; 
stroke-linecap:round; stroke-linejoin:round;">
</g>
<g style="fill:#FFFFFF; fill-opacity:1.0; 
stroke:#FFFFFF; stroke-width:0; stroke-opacity:1; 
stroke-linecap:round; stroke-linejoin:round;">
<circle cx="8519.69" cy="12019.7" r="196.85" /> 
</g>
<g style="fill:#FFFFFF; fill-opacity:1.0; 
stroke:#FFFFFF; stroke-width:39.3701; stroke-opacity:1; 
stroke-linecap:round; stroke-linejoin:round;">
</g>
<g style="fill:#FFFFFF; fill-opacity:1.0; 
stroke:#FFFFFF; stroke-width:0; stroke-opacity:1; 
stroke-linecap:round; stroke-linejoin:round;">
<circle cx="14519.7" cy="14019.7" r="196.85" /> 
</g>
<g style="fill:#FFFFFF; fill-opacity:1.0; 
stroke:#FFFFFF; stroke-width:39.3701; stroke-opacity:1; 
stroke-linecap:round; stroke-linejoin:round;">
</g>
<g style="fill:#FFFFFF; fill-opacity:1.0; 
stroke:#FFFFFF; stroke-width:0; stroke-opacity:1; 
stroke-linecap:round; stroke-linejoin:round;">
<circle cx="8519.69" cy="11019.7" r="196.85" /> 
</g>
<g style="fill:#FFFFFF; fill-opacity:1.0; 
stroke:#FFFFFF; stroke-width:39.3701; stroke-opacity:1; 
stroke-linecap:round; stroke-linejoin:round;">
</g>
<g style="fill:#FFFFFF; fill-opacity:1.0; 
stroke:#FFFFFF; stroke-width:0; stroke-opacity:1; 
stroke-linecap:round; stroke-linejoin:round;">
<circle cx="14519.7" cy="15019.7" r="196.85" /> 
</g>
<g style="fill:#FFFFFF; fill-opacity:1.0; 
stroke:#FFFFFF; stroke-width:39.3701; stroke-opacity:1; 
stroke-linecap:round; stroke-linejoin:round;">
</g>
<g style="fill:#FFFFFF; fill-opacity:1.0; 
stroke:#FFFFFF; stroke-width:0; stroke-opacity:1; 
stroke-linecap:round; stroke-linejoin:round;">
<circle cx="8519.69" cy="10019.7" r="196.85" /> 
</g>
<g style="fill:#FFFFFF; fill-opacity:1.0; 
stroke:#FFFFFF; stroke-width:39.3701; stroke-opacity:1; 
stroke-linecap:round; stroke-linejoin:round;">
</g>
<g style="fill:#FFFFFF; fill-opacity:1.0; 
stroke:#FFFFFF; stroke-width:0; stroke-opacity:1; 
stroke-linecap:round; stroke-linejoin:round;">
<circle cx="14519.7" cy="16019.7" r="196.85" /> 
</g>
<g style="fill:#FFFFFF; fill-opacity:1.0; 
stroke:#FFFFFF; stroke-width:39.3701; stroke-opacity:1; 
stroke-linecap:round; stroke-linejoin:round;">
</g>
<g style="fill:#FFFFFF; fill-opacity:1.0; 
stroke:#FFFFFF; stroke-width:0; stroke-opacity:1; 
stroke-linecap:round; stroke-linejoin:round;">
<circle cx="8519.69" cy="9019.69" r="196.85" /> 
</g>
<g style="fill:#FFFFFF; fill-opacity:1.0; 
stroke:#FFFFFF; stroke-width:39.3701; stroke-opacity:1; 
stroke-linecap:round; stroke-linejoin:round;">
</g>
<g style="fill:#FFFFFF; fill-opacity:1.0; 
stroke:#FFFFFF; stroke-width:0; stroke-opacity:1; 
stroke-linecap:round; stroke-linejoin:round;">
<circle cx="14519.7" cy="17019.7" r="196.85" /> 
</g>
<g style="fill:#FFFFFF; fill-opacity:1.0; 
stroke:#FFFFFF; stroke-width:39.3701; stroke-opacity:1; 
stroke-linecap:round; stroke-linejoin:round;">
</g>
<g style="fill:#FFFFFF; fill-opacity:1.0; 
stroke:#FFFFFF; stroke-width:0; stroke-opacity:1; 
stroke-linecap:round; stroke-linejoin:round;">
<circle cx="8519.69" cy="8019.69" r="196.85" /> 
</g>
<g style="fill:#FFFFFF; fill-opacity:1.0; 
stroke:#FFFFFF; stroke-width:39.3701; stroke-opacity:1; 
stroke-linecap:round; stroke-linejoin:round;">
</g>
<g style="fill:#FFFFFF; fill-opacity:1.0; 
stroke:#FFFFFF; stroke-width:0; stroke-opacity:1; 
stroke-linecap:round; stroke-linejoin:round;">
<circle cx="14519.7" cy="18019.7" r="196.85" /> 
</g>
<g style="fill:#FFFFFF; fill-opacity:1.0; 
stroke:#FFFFFF; stroke-width:39.3701; stroke-opacity:1; 
stroke-linecap:round; stroke-linejoin:round;">
</g>
<g style="fill:#FFFFFF; fill-opacity:1.0; 
stroke:#FFFFFF; stroke-width:0; stroke-opacity:1; 
stroke-linecap:round; stroke-linejoin:round;">
<circle cx="8519.69" cy="7019.69" r="196.85" /> 
</g>
<g style="fill:#FFFFFF; fill-opacity:1.0; 
stroke:#FFFFFF; stroke-width:39.3701; stroke-opacity:1; 
stroke-linecap:round; stroke-linejoin:round;">
</g>
<g style="fill:#FFFFFF; fill-opacity:1.0; 
stroke:#FFFFFF; stroke-width:0; stroke-opacity:1; 
stroke-linecap:round; stroke-linejoin:round;">
<circle cx="14519.7" cy="19019.7" r="196.85" /> 
</g>
<g style="fill:#FFFFFF; fill-opacity:1.0; 
stroke:#FFFFFF; stroke-width:39.3701; stroke-opacity:1; 
stroke-linecap:round; stroke-linejoin:round;">
</g>
<g style="fill:#FFFFFF; fill-opacity:1.0; 
stroke:#FFFFFF; stroke-width:0; stroke-opacity:1; 
stroke-linecap:round; stroke-linejoin:round;">
<circle cx="8519.69" cy="6019.69" r="196.85" /> 
</g>
<g style="fill:#FFFFFF; fill-opacity:1.0; 
stroke:#FFFFFF; stroke-width:39.3701; stroke-opacity:1; 
stroke-linecap:round; stroke-linejoin:round;">
</g>
<g style="fill:#000000; fill-opacity:1.0; 
stroke:#000000; stroke-width:39.3701; stroke-opacity:1; 
stroke-linecap:round; stroke-linejoin:round;">
</g>
<g style="fill:#000000; fill-opacity:0.0; 
stroke:#000000; stroke-width:39.3701; stroke-opacity:1; 
stroke-linecap:round; stroke-linejoin:round;">
<path d="M40519 19
L40519 25519
" />
<path d="M19 19
L40519 19
" />
<path d="M19 25519
L19 19
" />
<path d="M40519 25519
L19 25519
" />
<g >
</g>
<g >
</g>
<g >
</g>
<g >
</g>
<g >
</g>
<g >
</g>
<g >
</g>
<g >
</g>
<g >
</g>
<g >
</g>
<g >
</g>
<g >
</g>
</g> 
</svg>
