<?xml version="1.0" standalone="no"?>
 <!DOCTYPE svg PUBLIC "-//W3C//DTD SVG 1.1//EN" 
 "http://www.w3.org/Graphics/SVG/1.1/DTD/svg11.dtd"> 
<svg
  xmlns:svg="http://www.w3.org/2000/svg"
  xmlns="http://www.w3.org/2000/svg"
  xmlns:xlink="http://www.w3.org/1999/xlink"
  version="1.1"
  width="8.145780cm" height="6.393180cm" viewBox="0 0 32070 25170">
<title>SVG Picture created as ThermoSanitizer-B_Cu.svg date 2021/08/16 08:17:58 </title>
  <desc>Picture generated by PCBNEW </desc>
<g style="fill:#000000; fill-opacity:1;stroke:#000000; stroke-opacity:1;
stroke-linecap:round; stroke-linejoin:round;"
 transform="translate(0 0) scale(1 1)">
</g>
<g style="fill:#000000; fill-opacity:0.0; 
stroke:#000000; stroke-width:-0.000393701; stroke-opacity:1; 
stroke-linecap:round; stroke-linejoin:round;">
<g >
</g>
<g style="fill:#000000; fill-opacity:0.0; 
stroke:#000000; stroke-width:629.921; stroke-opacity:1; 
stroke-linecap:round; stroke-linejoin:round;">
<path d="M23019 12310
L23019 12310
" />
</g>
<g style="fill:#000000; fill-opacity:1.0; 
stroke:#000000; stroke-width:0; stroke-opacity:1; 
stroke-linecap:round; stroke-linejoin:round;">
<circle cx="23019.7" cy="13310" r="314.961" /> 
</g>
<g style="fill:#000000; fill-opacity:1.0; 
stroke:#000000; stroke-width:39.3701; stroke-opacity:1; 
stroke-linecap:round; stroke-linejoin:round;">
</g>
<g >
</g>
<g style="fill:#000000; fill-opacity:1.0; 
stroke:#000000; stroke-width:39.3701; stroke-opacity:1; 
stroke-linecap:round; stroke-linejoin:round;">
</g>
<g style="fill:#000000; fill-opacity:1.0; 
stroke:#000000; stroke-width:750; stroke-opacity:1; 
stroke-linecap:round; stroke-linejoin:round;">
</g>
<g style="fill:#000000; fill-opacity:0.0; 
stroke:#000000; stroke-width:750; stroke-opacity:1; 
stroke-linecap:round; stroke-linejoin:round;">
<path d="M16519 11291
L16519 11328
" />
<path d="M15519 11291
L15519 11328
" />
</g>
<g style="fill:#000000; fill-opacity:0.0; 
stroke:#000000; stroke-width:0; stroke-opacity:1; 
stroke-linecap:round; stroke-linejoin:round;">
</g>
<g style="fill:#000000; fill-opacity:1.0; 
stroke:#000000; stroke-width:0; stroke-opacity:1; 
stroke-linecap:round; stroke-linejoin:round;">
<path style="fill:#000000; fill-opacity:1.0; 
stroke:#000000; stroke-width:0; stroke-opacity:1; 
stroke-linecap:round; stroke-linejoin:round;fill-rule:evenodd;"
d="M 14144.7,11703.7
14144.7,10916.3
14894.7,10916.3
14894.7,11703.7
Z" /> 
</g>
<g >
</g>
<g style="fill:#000000; fill-opacity:1.0; 
stroke:#000000; stroke-width:0; stroke-opacity:1; 
stroke-linecap:round; stroke-linejoin:round;">
<circle cx="18019.7" cy="5310.04" r="590.551" /> 
</g>
<g style="fill:#000000; fill-opacity:1.0; 
stroke:#000000; stroke-width:39.3701; stroke-opacity:1; 
stroke-linecap:round; stroke-linejoin:round;">
</g>
<g style="fill:#000000; fill-opacity:1.0; 
stroke:#000000; stroke-width:0; stroke-opacity:1; 
stroke-linecap:round; stroke-linejoin:round;">
<path style="fill:#000000; fill-opacity:1.0; 
stroke:#000000; stroke-width:0; stroke-opacity:1; 
stroke-linecap:round; stroke-linejoin:round;fill-rule:evenodd;"
d="M 20610.2,4719.49
20610.2,5900.59
19429.1,5900.59
19429.1,4719.49
Z" /> 
</g>
<g >
</g>
<g style="fill:#000000; fill-opacity:1.0; 
stroke:#000000; stroke-width:0; stroke-opacity:1; 
stroke-linecap:round; stroke-linejoin:round;">
<circle cx="13519.7" cy="5310.04" r="590.551" /> 
</g>
<g style="fill:#000000; fill-opacity:1.0; 
stroke:#000000; stroke-width:39.3701; stroke-opacity:1; 
stroke-linecap:round; stroke-linejoin:round;">
</g>
<g style="fill:#000000; fill-opacity:1.0; 
stroke:#000000; stroke-width:0; stroke-opacity:1; 
stroke-linecap:round; stroke-linejoin:round;">
<path style="fill:#000000; fill-opacity:1.0; 
stroke:#000000; stroke-width:0; stroke-opacity:1; 
stroke-linecap:round; stroke-linejoin:round;fill-rule:evenodd;"
d="M 16110.2,4719.49
16110.2,5900.59
14929.1,5900.59
14929.1,4719.49
Z" /> 
</g>
<g >
</g>
<g style="fill:#000000; fill-opacity:1.0; 
stroke:#000000; stroke-width:0; stroke-opacity:1; 
stroke-linecap:round; stroke-linejoin:round;">
<circle cx="15519.7" cy="17810" r="590.551" /> 
</g>
<g style="fill:#000000; fill-opacity:1.0; 
stroke:#000000; stroke-width:39.3701; stroke-opacity:1; 
stroke-linecap:round; stroke-linejoin:round;">
</g>
<g style="fill:#000000; fill-opacity:1.0; 
stroke:#000000; stroke-width:0; stroke-opacity:1; 
stroke-linecap:round; stroke-linejoin:round;">
<path style="fill:#000000; fill-opacity:1.0; 
stroke:#000000; stroke-width:0; stroke-opacity:1; 
stroke-linecap:round; stroke-linejoin:round;fill-rule:evenodd;"
d="M 12929.1,18400.6
12929.1,17219.5
14110.2,17219.5
14110.2,18400.6
Z" /> 
</g>
<g >
</g>
<g style="fill:#000000; fill-opacity:1.0; 
stroke:#000000; stroke-width:0; stroke-opacity:1; 
stroke-linecap:round; stroke-linejoin:round;">
</g>
<g style="fill:#000000; fill-opacity:1.0; 
stroke:#000000; stroke-width:669.291; stroke-opacity:1; 
stroke-linecap:round; stroke-linejoin:round;">
</g>
<g style="fill:#000000; fill-opacity:0.0; 
stroke:#000000; stroke-width:669.291; stroke-opacity:1; 
stroke-linecap:round; stroke-linejoin:round;">
<path d="M21019 16810
L21019 16810
" />
<path d="M20019 16810
L20019 16810
" />
<path d="M19019 16810
L19019 16810
" />
</g>
<g style="fill:#000000; fill-opacity:0.0; 
stroke:#000000; stroke-width:0; stroke-opacity:1; 
stroke-linecap:round; stroke-linejoin:round;">
</g>
<g style="fill:#000000; fill-opacity:1.0; 
stroke:#000000; stroke-width:0; stroke-opacity:1; 
stroke-linecap:round; stroke-linejoin:round;">
<path style="fill:#000000; fill-opacity:1.0; 
stroke:#000000; stroke-width:0; stroke-opacity:1; 
stroke-linecap:round; stroke-linejoin:round;fill-rule:evenodd;"
d="M 18354.3,17144.7
17685,17144.7
17685,16475.4
18354.3,16475.4
Z" /> 
</g>
<g >
</g>
<g >
</g>
<g >
</g>
<g >
</g>
<g >
</g>
<g style="fill:#000000; fill-opacity:1.0; 
stroke:#000000; stroke-width:0; stroke-opacity:1; 
stroke-linecap:round; stroke-linejoin:round;">
</g>
<g style="fill:#000000; fill-opacity:1.0; 
stroke:#000000; stroke-width:1259.84; stroke-opacity:1; 
stroke-linecap:round; stroke-linejoin:round;">
</g>
<g style="fill:#000000; fill-opacity:0.0; 
stroke:#000000; stroke-width:1259.84; stroke-opacity:1; 
stroke-linecap:round; stroke-linejoin:round;">
<path d="M19519 8810
L19519 8810
" />
</g>
<g style="fill:#000000; fill-opacity:0.0; 
stroke:#000000; stroke-width:0; stroke-opacity:1; 
stroke-linecap:round; stroke-linejoin:round;">
</g>
<g style="fill:#000000; fill-opacity:1.0; 
stroke:#000000; stroke-width:0; stroke-opacity:1; 
stroke-linecap:round; stroke-linejoin:round;">
<path style="fill:#000000; fill-opacity:1.0; 
stroke:#000000; stroke-width:0; stroke-opacity:1; 
stroke-linecap:round; stroke-linejoin:round;fill-rule:evenodd;"
d="M 20149.6,15440
18889.8,15440
18889.8,14180.1
20149.6,14180.1
Z" /> 
</g>
<g >
</g>
<g style="fill:#000000; fill-opacity:1.0; 
stroke:#000000; stroke-width:0; stroke-opacity:1; 
stroke-linecap:round; stroke-linejoin:round;">
</g>
<g style="fill:#000000; fill-opacity:1.0; 
stroke:#000000; stroke-width:629.921; stroke-opacity:1; 
stroke-linecap:round; stroke-linejoin:round;">
</g>
<g style="fill:#000000; fill-opacity:0.0; 
stroke:#000000; stroke-width:629.921; stroke-opacity:1; 
stroke-linecap:round; stroke-linejoin:round;">
<path d="M11019 19310
L11019 19310
" />
<path d="M5019 19310
L5019 19310
" />
<path d="M11019 5310
L11019 5310
" />
<path d="M5019 18310
L5019 18310
" />
<path d="M11019 6310
L11019 6310
" />
<path d="M5019 17310
L5019 17310
" />
<path d="M11019 7310
L11019 7310
" />
<path d="M5019 16310
L5019 16310
" />
<path d="M11019 8310
L11019 8310
" />
<path d="M5019 15310
L5019 15310
" />
<path d="M11019 9310
L11019 9310
" />
<path d="M5019 14310
L5019 14310
" />
<path d="M11019 10310
L11019 10310
" />
<path d="M5019 13310
L5019 13310
" />
<path d="M11019 11310
L11019 11310
" />
<path d="M5019 12310
L5019 12310
" />
<path d="M11019 12310
L11019 12310
" />
<path d="M5019 11310
L5019 11310
" />
<path d="M11019 13310
L11019 13310
" />
<path d="M5019 10310
L5019 10310
" />
<path d="M11019 14310
L11019 14310
" />
<path d="M5019 9310
L5019 9310
" />
<path d="M11019 15310
L11019 15310
" />
<path d="M5019 8310
L5019 8310
" />
<path d="M11019 16310
L11019 16310
" />
<path d="M5019 7310
L5019 7310
" />
<path d="M11019 17310
L11019 17310
" />
<path d="M5019 6310
L5019 6310
" />
<path d="M11019 18310
L11019 18310
" />
</g>
<g style="fill:#000000; fill-opacity:0.0; 
stroke:#000000; stroke-width:0; stroke-opacity:1; 
stroke-linecap:round; stroke-linejoin:round;">
</g>
<g style="fill:#000000; fill-opacity:1.0; 
stroke:#000000; stroke-width:0; stroke-opacity:1; 
stroke-linecap:round; stroke-linejoin:round;">
<path style="fill:#000000; fill-opacity:1.0; 
stroke:#000000; stroke-width:0; stroke-opacity:1; 
stroke-linecap:round; stroke-linejoin:round;fill-rule:evenodd;"
d="M 4704.72,5625
4704.72,4995.08
5334.65,4995.08
5334.65,5625
Z" /> 
</g>
<g >
</g>
<g >
</g>
<g style="fill:#000000; fill-opacity:1.0; 
stroke:#000000; stroke-width:0; stroke-opacity:1; 
stroke-linecap:round; stroke-linejoin:round;">
</g>
<g style="fill:#000000; fill-opacity:1.0; 
stroke:#000000; stroke-width:629.921; stroke-opacity:1; 
stroke-linecap:round; stroke-linejoin:round;">
</g>
<g style="fill:#000000; fill-opacity:0.0; 
stroke:#000000; stroke-width:629.921; stroke-opacity:1; 
stroke-linecap:round; stroke-linejoin:round;">
<path d="M13519 17810
L13519 16310
" />
<path d="M18019 16310
L16519 14810
" />
<path d="M15019 14810
L16519 14810
" />
<path d="M18019 16810
L18019 16310
" />
<path d="M16519 14810
L19519 14810
" />
<path d="M14019 15810
L13019 15810
" />
<path d="M14019 15810
L15019 14810
" />
<path d="M13519 16310
L14019 15810
" />
<path d="M13019 15810
L12019 14810
" />
<path d="M12019 14810
L12019 8310
" />
<path d="M12019 8310
L11019 8310
" />
<path d="M12019 8310
L12519 8310
" />
<path d="M20019 5310
L20019 6310
" />
<path d="M20019 6310
L19019 7310
" />
<path d="M13519 7310
L12519 8310
" />
<path d="M19019 7310
L13519 7310
" />
<path d="M20019 16810
L20019 18810
" />
<path d="M18019 20810
L8019 20810
" />
<path d="M8019 20810
L7019 19810
" />
<path d="M7019 19810
L7019 17810
" />
<path d="M6519 17310
L5019 17310
" />
<path d="M7019 17810
L6519 17310
" />
<path d="M19019 16810
L19019 19810
" />
<path d="M20019 18810
L19019 19810
" />
<path d="M19019 19810
L18019 20810
" />
<path d="M4574 12310
L4019 12864
" />
<path d="M5019 12310
L4574 12310
" />
<path d="M4019 12864
L4019 20810
" />
<path d="M4019 20810
L5019 21810
" />
<path d="M23019 17810
L19019 21810
" />
<path d="M5019 21810
L19019 21810
" />
<path d="M23019 13310
L23019 17810
" />
<path d="M14519 12810
L14519 11415
" />
<path d="M23019 13310
L22019 13310
" />
<path d="M22019 13310
L21519 12810
" />
<path d="M21519 12810
L14519 12810
" />
<path d="M15519 5310
L15519 4310
" />
<path d="M15519 4310
L15019 3810
" />
<path d="M15019 3810
L10019 3810
" />
<path d="M10019 3810
L9519 4310
" />
<path d="M9519 4310
L9519 4810
" />
<path d="M10019 5310
L11019 5310
" />
<path d="M9519 4810
L10019 5310
" />
<path d="M18019 4310
L18019 5310
" />
<path d="M15519 11310
L15519 10310
" />
<path d="M15519 10310
L16019 9810
" />
<path d="M16019 9810
L19019 9810
" />
<path d="M19019 9810
L19519 9310
" />
<path d="M19519 9310
L19519 8810
" />
<path d="M19519 8810
L21519 8810
" />
<path d="M21519 8810
L22019 8310
" />
<path d="M22019 8310
L22019 3810
" />
<path d="M22019 3810
L21519 3310
" />
<path d="M21519 3310
L18519 3310
" />
<path d="M18019 3810
L18019 4310
" />
<path d="M18519 3310
L18019 3810
" />
</g>
<g >
</g>
<g style="fill:#000000; fill-opacity:0.0; 
stroke:#000000; stroke-width:629.921; stroke-opacity:1; 
stroke-linecap:round; stroke-linejoin:round;">
</g>
<g style="fill:#000000; fill-opacity:1.0; 
stroke:#000000; stroke-width:196.85; stroke-opacity:1; 
stroke-linecap:round; stroke-linejoin:round;">
<path style="fill:#000000; fill-opacity:1.0; 
stroke:#000000; stroke-width:196.85; stroke-opacity:1; 
stroke-linecap:round; stroke-linejoin:round;fill-rule:evenodd;"
d="M 25701.6,22991.9
337.796,22991.9
337.796,20218.6
1091.34,20218.6
1091.34,20401.5
1127.01,20580.8
1197,20749.8
1298.59,20901.8
1427.9,21031.1
1579.95,21132.7
1748.9,21202.7
1928.25,21238.4
2111.12,21238.4
2290.47,21202.7
2459.42,21132.7
2611.47,21031.1
2740.78,20901.8
2842.38,20749.8
2912.36,20580.8
2948.03,20401.5
2948.03,20218.6
2912.36,20039.3
2842.38,19870.3
2740.78,19718.3
2611.47,19588.9
2459.42,19487.3
2290.47,19417.4
2111.12,19381.7
1928.25,19381.7
1748.9,19417.4
1579.95,19487.3
1427.9,19588.9
1298.59,19718.3
1197,19870.3
1127.01,20039.3
1091.34,20218.6
337.796,20218.6
337.796,12864.6
3403.33,12864.6
3406.3,12894.7
3406.3,20779.9
3403.33,20810
3415.18,20930.3
3450.25,21045.9
3507.21,21152.5
3535.79,21187.3
3583.86,21245.9
3607.27,21265.1
4564.65,22222.5
4583.86,22245.9
4607.26,22265.1
4677.26,22322.5
4783.82,22379.5
4783.82,22379.5
4899.44,22414.5
4989.55,22423.4
4989.56,22423.4
5019.69,22426.4
5049.82,22423.4
18989.6,22423.4
19019.7,22426.4
19049.8,22423.4
19049.8,22423.4
19139.9,22414.5
19255.6,22379.5
19362.1,22322.5
19455.5,22245.9
19474.7,22222.5
21478.6,20218.6
23091.3,20218.6
23091.3,20401.5
23127,20580.8
23197,20749.8
23298.6,20901.8
23427.9,21031.1
23579.9,21132.7
23748.9,21202.7
23928.3,21238.4
24111.1,21238.4
24290.5,21202.7
24459.4,21132.7
24611.5,21031.1
24740.8,20901.8
24842.4,20749.8
24912.4,20580.8
24948,20401.5
24948,20218.6
24912.4,20039.3
24842.4,19870.3
24740.8,19718.3
24611.5,19588.9
24459.4,19487.3
24290.5,19417.4
24111.1,19381.7
23928.3,19381.7
23748.9,19417.4
23579.9,19487.3
23427.9,19588.9
23298.6,19718.3
23197,19870.3
23127,20039.3
23091.3,20218.6
21478.6,20218.6
23432.1,18265.1
23455.5,18245.9
23508.7,18181
23532.2,18152.5
23589.1,18045.9
23589.1,18045.9
23624.2,17930.3
23633.1,17840.2
23633.1,17840.2
23636,17810
23633.1,17779.9
23633.1,13340.2
23636,13310
23633.1,13279.9
23633.1,13249.6
23627.2,13219.9
23624.2,13189.8
23615.4,13160.8
23609.5,13131.1
23597.9,13103.1
23589.1,13074.2
23574.8,13047.5
23563.3,13019.5
23546.4,12994.3
23532.2,12967.6
23513,12944.2
23496.1,12919
23474.7,12897.6
23455.5,12874.2
23432.1,12855
23410.7,12833.6
23385.5,12816.8
23362.1,12797.6
23335.4,12783.3
23310.2,12766.5
23282.3,12754.9
23255.6,12740.6
23226.6,12731.8
23198.6,12720.2
23168.9,12714.3
23139.9,12705.5
23109.8,12702.6
23080.1,12696.7
23049.8,12696.7
23019.7,12693.7
22989.6,12696.7
22273.8,12696.7
21974.7,12397.6
21955.5,12374.2
21862.1,12297.6
21755.6,12240.6
21639.9,12205.5
21549.8,12196.7
21549.8,12196.7
21519.7,12193.7
21489.6,12196.7
15133.1,12196.7
15133.1,11883.7
15133.6,11883
15143.7,11891.4
15260.7,11953.9
15387.7,11992.4
15519.7,12005.4
15651.7,11992.4
15778.6,11953.9
15895.6,11891.4
15998.2,11807.2
16082.3,11704.7
16144.9,11587.7
16183.4,11460.8
16193.1,11361.8
16193.1,11258.3
16183.4,11159.3
16144.9,11032.4
16133.1,11010.3
16133.1,10564.1
16273.8,10423.4
18989.6,10423.4
19019.7,10426.4
19049.8,10423.4
19049.8,10423.4
19139.9,10414.5
19255.6,10379.5
19362.1,10322.5
19455.5,10245.9
19474.7,10222.5
19932.1,9765.08
19955.5,9745.87
20001.5,9689.79
20032.2,9652.47
20089,9546.16
20111.5,9531.13
20219.2,9423.43
21489.6,9423.43
21519.7,9426.39
21549.8,9423.43
21549.8,9423.43
21639.9,9414.55
21755.6,9379.48
21862.1,9322.52
21955.5,9245.87
21974.7,9222.46
22432.1,8765.07
22455.5,8745.87
22501.5,8689.79
22532.2,8652.47
22589.1,8545.91
22591.1,8539.25
22624.2,8430.28
22633.1,8340.17
22633.1,8340.17
22636,8310.04
22633.1,8279.91
22633.1,4718.61
23091.3,4718.61
23091.3,4901.47
23127,5080.83
23197,5249.78
23298.6,5401.83
23427.9,5531.13
23579.9,5632.73
23748.9,5702.71
23928.3,5738.39
24111.1,5738.39
24290.5,5702.71
24459.4,5632.73
24611.5,5531.13
24740.8,5401.83
24842.4,5249.78
24912.4,5080.83
24948,4901.47
24948,4718.61
24912.4,4539.25
24842.4,4370.3
24740.8,4218.25
24611.5,4088.95
24459.4,3987.35
24290.5,3917.37
24111.1,3881.69
23928.3,3881.69
23748.9,3917.37
23579.9,3987.35
23427.9,4088.95
23298.6,4218.25
23197,4370.3
23127,4539.25
23091.3,4718.61
22633.1,4718.61
22633.1,3840.17
22636,3810.04
22627.4,3722.46
22624.2,3689.79
22589.1,3574.17
22589.1,3574.17
22532.2,3467.61
22474.7,3397.62
22455.5,3374.21
22432.1,3355
21974.7,2897.62
21955.5,2874.21
21862.1,2797.56
21755.6,2740.6
21639.9,2705.53
21549.8,2696.65
21549.8,2696.65
21519.7,2693.69
21489.6,2696.65
18549.8,2696.65
18519.7,2693.69
18489.6,2696.65
18489.6,2696.65
18399.4,2705.53
18283.8,2740.6
18283.8,2740.6
18177.3,2797.56
18128.9,2837.21
18083.9,2874.21
18064.6,2897.62
17607.3,3355
17583.9,3374.21
17525.2,3445.73
17507.2,3467.61
17465.4,3545.91
17450.2,3574.17
17415.2,3689.8
17412,3722.46
17403.3,3810.04
17406.3,3840.17
17406.3,4666.22
17329.2,4743.35
17231.9,4888.95
17164.9,5050.73
17130.7,5222.48
17130.7,5397.6
17164.9,5569.34
17231.9,5731.13
17329.2,5876.73
17453,6000.55
17598.6,6097.84
17760.4,6164.85
17932.1,6199.02
18107.2,6199.02
18279,6164.85
18440.8,6097.84
18586.4,6000.55
18710.2,5876.73
18807.5,5731.13
18874.5,5569.34
18908.7,5397.6
18908.7,5222.48
18874.5,5050.73
18807.5,4888.95
18710.2,4743.35
18633.1,4666.22
18633.1,4064.11
18773.8,3923.43
21265.6,3923.43
21406.3,4064.11
21406.3,8055.97
21265.6,8196.65
20219.2,8196.65
20111.5,8088.95
19959.4,7987.35
19790.5,7917.37
19611.1,7881.69
19428.3,7881.69
19248.9,7917.37
19079.9,7987.35
18927.9,8088.95
18798.6,8218.25
18697,8370.3
18627,8539.25
18591.3,8718.61
18591.3,8901.47
18627,9080.83
18675,9196.65
16049.8,9196.65
16019.7,9193.69
15989.6,9196.65
15989.6,9196.65
15899.4,9205.53
15783.8,9240.6
15783.8,9240.6
15677.3,9297.56
15628.9,9337.21
15583.9,9374.21
15564.6,9397.62
15107.3,9855
15083.9,9874.21
15037.8,9930.28
15007.2,9967.61
14950.2,10074.2
14915.2,10189.8
14903.3,10310
14906.3,10340.2
14906.3,10617.6
14894.7,10616.5
14144.7,10616.5
14086.2,10622.2
14029.9,10639.3
13978.1,10667
13932.6,10704.3
13895.4,10749.7
13867.6,10801.6
13850.6,10857.8
13844.8,10916.3
13844.8,11703.7
13850.6,11762.2
13867.6,11818.5
13895.4,11870.3
13906.3,11883.7
13906.3,12779.9
13903.3,12810
13915.2,12930.3
13950.2,13045.9
14007.2,13152.5
14052,13207
14083.9,13245.9
14177.3,13322.5
14283.8,13379.5
14399.4,13414.5
14519.7,13426.4
14549.8,13423.4
21265.6,13423.4
21564.6,13722.5
21583.9,13745.9
21607.3,13765.1
21677.3,13822.5
21783.8,13879.5
21783.8,13879.5
21899.4,13914.5
21989.6,13923.4
21989.6,13923.4
22019.7,13926.4
22049.8,13923.4
22406.3,13923.4
22406.3,17556
18765.6,21196.7
18500.5,21196.7
19432.1,20265.1
19455.5,20245.9
19474.7,20222.5
20432.1,19265.1
20455.5,19245.9
20498.3,19193.7
20532.2,19152.5
20589.1,19045.9
20589.1,19045.9
20624.2,18930.3
20633.1,18840.2
20633.1,18840.2
20636,18810
20633.1,18779.9
20633.1,16971.4
20652.8,16872.4
20652.8,16747.7
20628.4,16625.4
20580.7,16510.2
20511.4,16406.5
20423.2,16318.3
20319.6,16249
20204.3,16201.3
20082,16177
19957.3,16177
19835,16201.3
19719.8,16249
19616.1,16318.3
19527.9,16406.5
19519.7,16418.8
19511.4,16406.5
19423.2,16318.3
19319.6,16249
19204.3,16201.3
19082,16177
18957.3,16177
18835,16201.3
18719.8,16249
18635.6,16305.3
18631.4,16263.4
18624.2,16189.8
18589.1,16074.2
18559.9,16019.5
18532.2,15967.6
18485.5,15910.7
18455.5,15874.2
18432.1,15855
18000.5,15423.4
18589.9,15423.4
18589.9,15440
18595.7,15498.5
18612.7,15554.7
18640.4,15606.6
18677.7,15652
18723.2,15689.3
18775,15717
18831.3,15734.1
18889.8,15739.8
20149.6,15739.8
20208.1,15734.1
20264.4,15717
20316.2,15689.3
20361.6,15652
20398.9,15606.6
20426.6,15554.7
20443.7,15498.5
20449.5,15440
20449.5,14180.1
20443.7,14121.6
20426.6,14065.4
20398.9,14013.5
20361.6,13968.1
20316.2,13930.8
20264.4,13903.1
20208.1,13886
20149.6,13880.2
18889.8,13880.2
18831.3,13886
18775,13903.1
18723.2,13930.8
18677.7,13968.1
18640.4,14013.5
18612.7,14065.4
18595.7,14121.6
18589.9,14180.1
18589.9,14196.7
16549.8,14196.7
16519.7,14193.7
16489.6,14196.7
15049.8,14196.7
15019.7,14193.7
14989.6,14196.7
14989.6,14196.7
14899.4,14205.5
14783.8,14240.6
14783.8,14240.6
14677.3,14297.6
14620.1,14344.5
14583.9,14374.2
14564.6,14397.6
13765.6,15196.7
13273.8,15196.7
12633.1,14556
12633.1,8915.23
12639.9,8914.55
12755.6,8879.48
12862.1,8822.52
12955.5,8745.87
12974.7,8722.46
13773.8,7923.43
18989.6,7923.43
19019.7,7926.39
19049.8,7923.43
19049.8,7923.43
19139.9,7914.55
19255.6,7879.48
19362.1,7822.52
19455.5,7745.87
19474.7,7722.46
20432.1,6765.08
20455.5,6745.87
20498.3,6693.69
20532.2,6652.47
20589.1,6545.91
20589.1,6545.91
20624.2,6430.28
20633.1,6340.17
20633.1,6340.17
20636,6310.04
20633.1,6279.91
20633.1,6198.21
20668.7,6194.7
20725,6177.63
20776.8,6149.92
20822.3,6112.63
20859.6,6067.19
20887.3,6015.35
20904.3,5959.09
20910.1,5900.59
20910.1,4719.49
20904.3,4660.99
20887.3,4604.73
20859.6,4552.89
20822.3,4507.45
20776.8,4470.16
20725,4442.45
20668.7,4425.38
20610.2,4419.62
19429.1,4419.62
19370.6,4425.38
19314.4,4442.45
19262.5,4470.16
19217.1,4507.45
19179.8,4552.89
19152.1,4604.73
19135,4660.99
19129.3,4719.49
19129.3,5900.59
19135,5959.09
19152.1,6015.35
19179.8,6067.19
19217.1,6112.63
19262.5,6149.92
19295,6167.27
18765.6,6696.65
13549.8,6696.65
13519.7,6693.69
13489.6,6696.65
13489.6,6696.65
13399.4,6705.53
13283.8,6740.6
13283.8,6740.6
13177.3,6797.56
13120.1,6844.47
13083.9,6874.21
13064.6,6897.62
12265.6,7696.65
12049.8,7696.65
12019.7,7693.69
11989.6,7696.65
11499.1,7696.65
11563.3,7600.59
11609.5,7488.96
11633.1,7370.45
11633.1,7249.63
11609.5,7131.12
11563.3,7019.49
11496.1,6919.03
11410.7,6833.59
11310.2,6766.46
11198.6,6720.23
11080.1,6696.65
10959.3,6696.65
10840.8,6720.23
10729.1,6766.46
10628.7,6833.59
10543.2,6919.03
10476.1,7019.49
10429.9,7131.12
10406.3,7249.63
10406.3,7370.45
10429.9,7488.96
10476.1,7600.59
10543.2,7701.05
10628.7,7786.49
10662.9,7809.35
10653.9,7816.77
10628.7,7833.59
10607.3,7855
10583.9,7874.21
10564.6,7897.62
10543.2,7919.03
10526.4,7944.21
10507.2,7967.61
10492.9,7994.31
10476.1,8019.49
10464.5,8047.47
10450.2,8074.17
10441.5,8103.15
10429.9,8131.12
10424,8160.82
10415.2,8189.79
10412.2,8219.93
10406.3,8249.63
10406.3,8279.91
10403.3,8310.04
10406.3,8340.17
10406.3,8370.45
10412.2,8400.15
10415.2,8430.28
10424,8459.26
10429.9,8488.96
10441.5,8516.93
10450.2,8545.91
10464.5,8572.61
10476.1,8600.59
10492.9,8625.76
10507.2,8652.47
10526.4,8675.87
10543.2,8701.05
10564.6,8722.46
10583.9,8745.87
10607.3,8765.08
10628.7,8786.49
10653.9,8803.31
10662.9,8810.73
10628.7,8833.59
10543.2,8919.03
10476.1,9019.49
10429.9,9131.12
10406.3,9249.63
10406.3,9370.45
10429.9,9488.96
10476.1,9600.59
10543.2,9701.05
10628.7,9786.49
10663.9,9810.04
10628.7,9833.59
10543.2,9919.03
10476.1,10019.5
10429.9,10131.1
10406.3,10249.6
10406.3,10370.5
10429.9,10489
10476.1,10600.6
10543.2,10701
10628.7,10786.5
10663.9,10810
10628.7,10833.6
10543.2,10919
10476.1,11019.5
10429.9,11131.1
10406.3,11249.6
10406.3,11370.5
10429.9,11489
10476.1,11600.6
10543.2,11701
10628.7,11786.5
10663.9,11810
10628.7,11833.6
10543.2,11919
10476.1,12019.5
10429.9,12131.1
10406.3,12249.6
10406.3,12370.5
10429.9,12489
10476.1,12600.6
10543.2,12701
10628.7,12786.5
10663.9,12810
10628.7,12833.6
10543.2,12919
10476.1,13019.5
10429.9,13131.1
10406.3,13249.6
10406.3,13370.5
10429.9,13489
10476.1,13600.6
10543.2,13701
10628.7,13786.5
10663.9,13810
10628.7,13833.6
10543.2,13919
10476.1,14019.5
10429.9,14131.1
10406.3,14249.6
10406.3,14370.5
10429.9,14489
10476.1,14600.6
10543.2,14701
10628.7,14786.5
10663.9,14810
10628.7,14833.6
10543.2,14919
10476.1,15019.5
10429.9,15131.1
10406.3,15249.6
10406.3,15370.5
10429.9,15489
10476.1,15600.6
10543.2,15701
10628.7,15786.5
10663.9,15810
10628.7,15833.6
10543.2,15919
10476.1,16019.5
10429.9,16131.1
10406.3,16249.6
10406.3,16370.5
10429.9,16489
10476.1,16600.6
10543.2,16701
10628.7,16786.5
10663.9,16810
10628.7,16833.6
10543.2,16919
10476.1,17019.5
10429.9,17131.1
10406.3,17249.6
10406.3,17370.5
10429.9,17489
10476.1,17600.6
10543.2,17701
10628.7,17786.5
10663.9,17810
10628.7,17833.6
10543.2,17919
10476.1,18019.5
10429.9,18131.1
10406.3,18249.6
10406.3,18370.5
10429.9,18489
10476.1,18600.6
10543.2,18701
10628.7,18786.5
10663.9,18810
10628.7,18833.6
10543.2,18919
10476.1,19019.5
10429.9,19131.1
10406.3,19249.6
10406.3,19370.5
10429.9,19489
10476.1,19600.6
10543.2,19701
10628.7,19786.5
10729.1,19853.6
10840.8,19899.9
10959.3,19923.4
11080.1,19923.4
11198.6,19899.9
11310.2,19853.6
11410.7,19786.5
11496.1,19701
11563.3,19600.6
11609.5,19489
11633.1,19370.5
11633.1,19249.6
11609.5,19131.1
11563.3,19019.5
11496.1,18919
11410.7,18833.6
11375.4,18810
11410.7,18786.5
11496.1,18701
11563.3,18600.6
11609.5,18489
11633.1,18370.5
11633.1,18249.6
11609.5,18131.1
11563.3,18019.5
11496.1,17919
11410.7,17833.6
11375.4,17810
11410.7,17786.5
11496.1,17701
11563.3,17600.6
11609.5,17489
11633.1,17370.5
11633.1,17249.6
11609.5,17131.1
11563.3,17019.5
11496.1,16919
11410.7,16833.6
11375.4,16810
11410.7,16786.5
11496.1,16701
11563.3,16600.6
11609.5,16489
11633.1,16370.5
11633.1,16249.6
11609.5,16131.1
11563.3,16019.5
11496.1,15919
11410.7,15833.6
11375.4,15810
11410.7,15786.5
11496.1,15701
11563.3,15600.6
11609.5,15489
11633.1,15370.5
11633.1,15290.9
12564.6,16222.5
12583.9,16245.9
12607.3,16265.1
12677.3,16322.5
12774,16374.2
12783.8,16379.5
12899.4,16414.5
12906.3,16415.2
12906.3,16921.9
12870.6,16925.4
12814.4,16942.4
12762.5,16970.2
12717.1,17007.4
12679.8,17052.9
12652.1,17104.7
12635,17161
12629.3,17219.5
12629.3,18400.6
12635,18459.1
12652.1,18515.3
12679.8,18567.2
12717.1,18612.6
12762.5,18649.9
12814.4,18677.6
12870.6,18694.7
12929.1,18700.5
14110.2,18700.5
14168.7,18694.7
14225,18677.6
14276.8,18649.9
14322.3,18612.6
14359.6,18567.2
14387.3,18515.3
14404.3,18459.1
14410.1,18400.6
14410.1,17219.5
14404.3,17161
14387.3,17104.7
14359.6,17052.9
14322.3,17007.4
14276.8,16970.2
14225,16942.4
14168.7,16925.4
14133.1,16921.9
14133.1,16564.1
14432.1,16265.1
14455.5,16245.9
14474.7,16222.5
15273.8,15423.4
16265.6,15423.4
17385.2,16543
17385.2,17144.7
17390.9,17203.2
17408,17259.4
17435.7,17311.3
17473,17356.7
17518.4,17394
17570.3,17421.7
17626.5,17438.8
17685,17444.6
18354.3,17444.6
18406.3,17439.4
18406.3,19556
17765.6,20196.7
8273.76,20196.7
7633.07,19556
7633.07,17840.2
7636.04,17810
7627.41,17722.5
7624.2,17689.8
7589.12,17574.2
7574.01,17545.9
7532.16,17467.6
7474.72,17397.6
7455.51,17374.2
7432.11,17355
6974.72,16897.6
6955.51,16874.2
6862.11,16797.6
6755.55,16740.6
6639.93,16705.5
6549.82,16696.7
6549.82,16696.7
6519.69,16693.7
6489.55,16696.7
5499.07,16696.7
5563.26,16600.6
5609.5,16489
5633.07,16370.5
5633.07,16249.6
5609.5,16131.1
5563.26,16019.5
5496.13,15919
5410.7,15833.6
5375.45,15810
5410.7,15786.5
5496.13,15701
5563.26,15600.6
5609.5,15489
5633.07,15370.5
5633.07,15249.6
5609.5,15131.1
5563.26,15019.5
5496.13,14919
5410.7,14833.6
5375.45,14810
5410.7,14786.5
5496.13,14701
5563.26,14600.6
5609.5,14489
5633.07,14370.5
5633.07,14249.6
5609.5,14131.1
5563.26,14019.5
5496.13,13919
5410.7,13833.6
5375.45,13810
5410.7,13786.5
5496.13,13701
5563.26,13600.6
5609.5,13489
5633.07,13370.5
5633.07,13249.6
5609.5,13131.1
5563.26,13019.5
5496.13,12919
5410.7,12833.6
5376.48,12810.7
5385.52,12803.3
5410.7,12786.5
5432.11,12765.1
5455.51,12745.9
5474.72,12722.5
5496.13,12701
5512.96,12675.9
5532.16,12652.5
5546.44,12625.8
5563.26,12600.6
5574.85,12572.6
5589.12,12545.9
5597.91,12516.9
5609.5,12489
5615.41,12459.3
5624.2,12430.3
5627.16,12400.2
5633.07,12370.5
5633.07,12340.2
5636.04,12310
5633.07,12279.9
5633.07,12249.6
5627.16,12219.9
5624.2,12189.8
5615.41,12160.8
5609.5,12131.1
5597.91,12103.1
5589.12,12074.2
5574.85,12047.5
5563.26,12019.5
5546.44,11994.3
5532.16,11967.6
5512.96,11944.2
5496.13,11919
5474.72,11897.6
5455.51,11874.2
5432.11,11855
5410.7,11833.6
5385.52,11816.8
5376.48,11809.4
5410.7,11786.5
5496.13,11701
5563.26,11600.6
5609.5,11489
5633.07,11370.5
5633.07,11249.6
5609.5,11131.1
5563.26,11019.5
5496.13,10919
5410.7,10833.6
5375.45,10810
5410.7,10786.5
5496.13,10701
5563.26,10600.6
5609.5,10489
5633.07,10370.5
5633.07,10249.6
5609.5,10131.1
5563.26,10019.5
5496.13,9919.03
5410.7,9833.59
5375.45,9810.04
5410.7,9786.49
5496.13,9701.05
5563.26,9600.59
5609.5,9488.96
5633.07,9370.45
5633.07,9249.63
5609.5,9131.12
5563.26,9019.49
5496.13,8919.03
5410.7,8833.59
5310.23,8766.46
5198.6,8720.23
5080.1,8696.65
4959.27,8696.65
4840.77,8720.23
4729.14,8766.46
4628.67,8833.59
4543.24,8919.03
4476.11,9019.49
4429.87,9131.12
4406.3,9249.63
4406.3,9370.45
4429.87,9488.96
4476.11,9600.59
4543.24,9701.05
4628.67,9786.49
4663.92,9810.04
4628.67,9833.59
4543.24,9919.03
4476.11,10019.5
4429.87,10131.1
4406.3,10249.6
4406.3,10370.5
4429.87,10489
4476.11,10600.6
4543.24,10701
4628.67,10786.5
4663.92,10810
4628.67,10833.6
4543.24,10919
4476.11,11019.5
4429.87,11131.1
4406.3,11249.6
4406.3,11370.5
4429.87,11489
4476.11,11600.6
4540.54,11697
4454.02,11705.5
4338.4,11740.6
4297.91,11762.2
4231.84,11797.6
4187.93,11833.6
4138.44,11874.2
4119.23,11897.6
3607.27,12409.6
3583.86,12428.8
3525.17,12500.3
3507.21,12522.2
3479.42,12574.2
3450.25,12628.8
3415.17,12744.4
3411.03,12786.5
3403.33,12864.6
337.796,12864.6
337.796,4718.61
1091.34,4718.61
1091.34,4901.47
1127.01,5080.83
1197,5249.78
1298.59,5401.83
1427.9,5531.13
1579.95,5632.73
1748.9,5702.71
1928.25,5738.39
2111.12,5738.39
2290.47,5702.71
2459.42,5632.73
2611.47,5531.13
2740.78,5401.83
2842.38,5249.78
2912.36,5080.83
2929.41,4995.08
4404.86,4995.08
4404.86,5625
4410.62,5683.5
4427.68,5739.75
4455.39,5791.6
4492.69,5837.04
4538.13,5874.33
4570.59,5891.68
4543.24,5919.03
4476.11,6019.49
4429.87,6131.12
4406.3,6249.63
4406.3,6370.45
4429.87,6488.96
4476.11,6600.59
4543.24,6701.05
4628.67,6786.49
4663.92,6810.04
4628.67,6833.59
4543.24,6919.03
4476.11,7019.49
4429.87,7131.12
4406.3,7249.63
4406.3,7370.45
4429.87,7488.96
4476.11,7600.59
4543.24,7701.05
4628.67,7786.49
4729.14,7853.61
4840.77,7899.85
4959.27,7923.43
5080.1,7923.43
5198.6,7899.85
5310.23,7853.61
5410.7,7786.49
5496.13,7701.05
5563.26,7600.59
5609.5,7488.96
5633.07,7370.45
5633.07,7249.63
5609.5,7131.12
5563.26,7019.49
5496.13,6919.03
5410.7,6833.59
5375.45,6810.04
5410.7,6786.49
5496.13,6701.05
5563.26,6600.59
5609.5,6488.96
5633.07,6370.45
5633.07,6249.63
5609.5,6131.12
5563.26,6019.49
5496.13,5919.03
5468.79,5891.68
5501.24,5874.33
5546.69,5837.04
5583.98,5791.6
5611.69,5739.75
5628.75,5683.5
5634.51,5625
5634.51,4995.08
5628.75,4936.58
5611.69,4880.32
5583.98,4828.48
5546.69,4783.04
5501.24,4745.75
5449.4,4718.04
5393.15,4700.97
5334.65,4695.21
4704.72,4695.21
4646.22,4700.97
4589.97,4718.04
4538.13,4745.75
4492.69,4783.04
4455.39,4828.48
4427.68,4880.32
4410.62,4936.58
4404.86,4995.08
2929.41,4995.08
2948.03,4901.47
2948.03,4718.61
2912.36,4539.25
2842.38,4370.3
2802.11,4310.04
8903.33,4310.04
8906.3,4340.17
8906.3,4779.91
8903.33,4810.04
8906.3,4840.17
8906.3,4840.17
8915.17,4930.28
8950.25,5045.91
8950.25,5045.91
9007.21,5152.47
9035.79,5187.29
9083.86,5245.87
9107.27,5265.08
9564.65,5722.46
9583.86,5745.87
9607.26,5765.07
9677.26,5822.52
9738.03,5855
9783.82,5879.48
9899.44,5914.55
9989.55,5923.43
9989.55,5923.43
10019.7,5926.39
10049.8,5923.43
11080.1,5923.43
11109.8,5917.52
11139.9,5914.55
11168.9,5905.76
11198.6,5899.85
11226.6,5888.27
11255.6,5879.48
11282.3,5865.2
11310.2,5853.61
11335.4,5836.79
11362.1,5822.52
11385.5,5803.31
11410.7,5786.49
11432.1,5765.08
11455.5,5745.87
11474.7,5722.46
11496.1,5701.05
11513,5675.87
11532.2,5652.47
11546.4,5625.76
11563.3,5600.59
11574.8,5572.61
11589.1,5545.91
11597.9,5516.93
11609.5,5488.96
11615.4,5459.26
11624.2,5430.28
11627.2,5400.15
11633.1,5370.45
11633.1,5340.17
11636,5310.04
11633.1,5279.91
11633.1,5249.63
11627.2,5219.93
11624.2,5189.79
11615.4,5160.82
11609.5,5131.12
11597.9,5103.15
11589.1,5074.17
11574.8,5047.47
11563.3,5019.49
11546.4,4994.31
11532.2,4967.61
11513,4944.21
11496.1,4919.03
11474.7,4897.62
11455.5,4874.21
11432.1,4855
11410.7,4833.59
11385.5,4816.77
11362.1,4797.56
11335.4,4783.29
11310.2,4766.46
11282.3,4754.88
11255.6,4740.6
11226.6,4731.81
11198.6,4720.23
11168.9,4714.32
11139.9,4705.53
11109.8,4702.56
11080.1,4696.65
10273.8,4696.65
10137.1,4560.04
10273.8,4423.43
14765.6,4423.43
14795,4452.81
14762.5,4470.16
14717.1,4507.45
14679.8,4552.89
14652.1,4604.73
14635,4660.99
14629.3,4719.49
14629.3,5900.59
14635,5959.09
14652.1,6015.35
14679.8,6067.19
14717.1,6112.63
14762.5,6149.92
14814.4,6177.63
14870.6,6194.7
14929.1,6200.46
16110.2,6200.46
16168.7,6194.7
16225,6177.63
16276.8,6149.92
16322.3,6112.63
16359.6,6067.19
16387.3,6015.35
16404.3,5959.09
16410.1,5900.59
16410.1,4719.49
16404.3,4660.99
16387.3,4604.73
16359.6,4552.89
16322.3,4507.45
16276.8,4470.16
16225,4442.45
16168.7,4425.38
16133.1,4421.87
16133.1,4340.17
16136,4310.04
16127,4218.25
16124.2,4189.79
16089.1,4074.17
16089.1,4074.17
16032.2,3967.61
15974.7,3897.62
15955.5,3874.21
15932.1,3855
15474.7,3397.62
15455.5,3374.21
15362.1,3297.56
15255.6,3240.6
15139.9,3205.53
15049.8,3196.65
15049.8,3196.65
15019.7,3193.69
14989.6,3196.65
10049.8,3196.65
10019.7,3193.69
9989.55,3196.65
9989.55,3196.65
9899.44,3205.53
9783.82,3240.6
9783.82,3240.6
9677.26,3297.56
9628.95,3337.21
9583.86,3374.21
9564.65,3397.62
9107.27,3855
9083.86,3874.21
9025.17,3945.73
9007.21,3967.61
8996.66,3987.35
8950.25,4074.17
8915.17,4189.8
8911.96,4222.46
8903.33,4310.04
2802.11,4310.04
2740.78,4218.25
2611.47,4088.95
2459.42,3987.35
2290.47,3917.37
2111.12,3881.69
1928.25,3881.69
1748.9,3917.37
1579.95,3987.35
1427.9,4088.95
1298.59,4218.25
1197,4370.3
1127.01,4539.25
1091.34,4718.61
337.796,4718.61
337.796,2628.15
25701.6,2628.15
Z" /> 
</g>
</g>
<g style="fill:#FFFFFF; fill-opacity:1.0; 
stroke:#FFFFFF; stroke-width:196.85; stroke-opacity:1; 
stroke-linecap:round; stroke-linejoin:round;">
</g>
<g style="fill:#FFFFFF; fill-opacity:1.0; 
stroke:#FFFFFF; stroke-width:0; stroke-opacity:1; 
stroke-linecap:round; stroke-linejoin:round;">
<circle cx="23019.7" cy="12310" r="157.48" /> 
</g>
<g style="fill:#FFFFFF; fill-opacity:1.0; 
stroke:#FFFFFF; stroke-width:39.3701; stroke-opacity:1; 
stroke-linecap:round; stroke-linejoin:round;">
</g>
<g style="fill:#FFFFFF; fill-opacity:1.0; 
stroke:#FFFFFF; stroke-width:0; stroke-opacity:1; 
stroke-linecap:round; stroke-linejoin:round;">
<circle cx="23019.7" cy="13310" r="157.48" /> 
</g>
<g style="fill:#FFFFFF; fill-opacity:1.0; 
stroke:#FFFFFF; stroke-width:39.3701; stroke-opacity:1; 
stroke-linecap:round; stroke-linejoin:round;">
</g>
<g style="fill:#FFFFFF; fill-opacity:1.0; 
stroke:#FFFFFF; stroke-width:0; stroke-opacity:1; 
stroke-linecap:round; stroke-linejoin:round;">
<circle cx="16519.7" cy="11310" r="216.535" /> 
</g>
<g style="fill:#FFFFFF; fill-opacity:1.0; 
stroke:#FFFFFF; stroke-width:39.3701; stroke-opacity:1; 
stroke-linecap:round; stroke-linejoin:round;">
</g>
<g style="fill:#FFFFFF; fill-opacity:1.0; 
stroke:#FFFFFF; stroke-width:0; stroke-opacity:1; 
stroke-linecap:round; stroke-linejoin:round;">
<circle cx="15519.7" cy="11310" r="216.535" /> 
</g>
<g style="fill:#FFFFFF; fill-opacity:1.0; 
stroke:#FFFFFF; stroke-width:39.3701; stroke-opacity:1; 
stroke-linecap:round; stroke-linejoin:round;">
</g>
<g style="fill:#FFFFFF; fill-opacity:1.0; 
stroke:#FFFFFF; stroke-width:0; stroke-opacity:1; 
stroke-linecap:round; stroke-linejoin:round;">
<circle cx="14519.7" cy="11310" r="216.535" /> 
</g>
<g style="fill:#FFFFFF; fill-opacity:1.0; 
stroke:#FFFFFF; stroke-width:39.3701; stroke-opacity:1; 
stroke-linecap:round; stroke-linejoin:round;">
</g>
<g style="fill:#FFFFFF; fill-opacity:1.0; 
stroke:#FFFFFF; stroke-width:0; stroke-opacity:1; 
stroke-linecap:round; stroke-linejoin:round;">
<circle cx="18019.7" cy="5310.04" r="299.213" /> 
</g>
<g style="fill:#FFFFFF; fill-opacity:1.0; 
stroke:#FFFFFF; stroke-width:39.3701; stroke-opacity:1; 
stroke-linecap:round; stroke-linejoin:round;">
</g>
<g style="fill:#FFFFFF; fill-opacity:1.0; 
stroke:#FFFFFF; stroke-width:0; stroke-opacity:1; 
stroke-linecap:round; stroke-linejoin:round;">
<circle cx="20019.7" cy="5310.04" r="299.213" /> 
</g>
<g style="fill:#FFFFFF; fill-opacity:1.0; 
stroke:#FFFFFF; stroke-width:39.3701; stroke-opacity:1; 
stroke-linecap:round; stroke-linejoin:round;">
</g>
<g style="fill:#FFFFFF; fill-opacity:1.0; 
stroke:#FFFFFF; stroke-width:0; stroke-opacity:1; 
stroke-linecap:round; stroke-linejoin:round;">
<circle cx="13519.7" cy="5310.04" r="299.213" /> 
</g>
<g style="fill:#FFFFFF; fill-opacity:1.0; 
stroke:#FFFFFF; stroke-width:39.3701; stroke-opacity:1; 
stroke-linecap:round; stroke-linejoin:round;">
</g>
<g style="fill:#FFFFFF; fill-opacity:1.0; 
stroke:#FFFFFF; stroke-width:0; stroke-opacity:1; 
stroke-linecap:round; stroke-linejoin:round;">
<circle cx="15519.7" cy="5310.04" r="299.213" /> 
</g>
<g style="fill:#FFFFFF; fill-opacity:1.0; 
stroke:#FFFFFF; stroke-width:39.3701; stroke-opacity:1; 
stroke-linecap:round; stroke-linejoin:round;">
</g>
<g style="fill:#FFFFFF; fill-opacity:1.0; 
stroke:#FFFFFF; stroke-width:0; stroke-opacity:1; 
stroke-linecap:round; stroke-linejoin:round;">
<circle cx="15519.7" cy="17810" r="299.213" /> 
</g>
<g style="fill:#FFFFFF; fill-opacity:1.0; 
stroke:#FFFFFF; stroke-width:39.3701; stroke-opacity:1; 
stroke-linecap:round; stroke-linejoin:round;">
</g>
<g style="fill:#FFFFFF; fill-opacity:1.0; 
stroke:#FFFFFF; stroke-width:0; stroke-opacity:1; 
stroke-linecap:round; stroke-linejoin:round;">
<circle cx="13519.7" cy="17810" r="299.213" /> 
</g>
<g style="fill:#FFFFFF; fill-opacity:1.0; 
stroke:#FFFFFF; stroke-width:39.3701; stroke-opacity:1; 
stroke-linecap:round; stroke-linejoin:round;">
</g>
<g style="fill:#FFFFFF; fill-opacity:1.0; 
stroke:#FFFFFF; stroke-width:0; stroke-opacity:1; 
stroke-linecap:round; stroke-linejoin:round;">
<circle cx="21019.7" cy="16810" r="196.85" /> 
</g>
<g style="fill:#FFFFFF; fill-opacity:1.0; 
stroke:#FFFFFF; stroke-width:39.3701; stroke-opacity:1; 
stroke-linecap:round; stroke-linejoin:round;">
</g>
<g style="fill:#FFFFFF; fill-opacity:1.0; 
stroke:#FFFFFF; stroke-width:0; stroke-opacity:1; 
stroke-linecap:round; stroke-linejoin:round;">
<circle cx="20019.7" cy="16810" r="196.85" /> 
</g>
<g style="fill:#FFFFFF; fill-opacity:1.0; 
stroke:#FFFFFF; stroke-width:39.3701; stroke-opacity:1; 
stroke-linecap:round; stroke-linejoin:round;">
</g>
<g style="fill:#FFFFFF; fill-opacity:1.0; 
stroke:#FFFFFF; stroke-width:0; stroke-opacity:1; 
stroke-linecap:round; stroke-linejoin:round;">
<circle cx="19019.7" cy="16810" r="196.85" /> 
</g>
<g style="fill:#FFFFFF; fill-opacity:1.0; 
stroke:#FFFFFF; stroke-width:39.3701; stroke-opacity:1; 
stroke-linecap:round; stroke-linejoin:round;">
</g>
<g style="fill:#FFFFFF; fill-opacity:1.0; 
stroke:#FFFFFF; stroke-width:0; stroke-opacity:1; 
stroke-linecap:round; stroke-linejoin:round;">
<circle cx="18019.7" cy="16810" r="196.85" /> 
</g>
<g style="fill:#FFFFFF; fill-opacity:1.0; 
stroke:#FFFFFF; stroke-width:39.3701; stroke-opacity:1; 
stroke-linecap:round; stroke-linejoin:round;">
</g>
<g style="fill:#FFFFFF; fill-opacity:1.0; 
stroke:#FFFFFF; stroke-width:0; stroke-opacity:1; 
stroke-linecap:round; stroke-linejoin:round;">
<circle cx="24019.7" cy="20310" r="629.921" /> 
</g>
<g style="fill:#FFFFFF; fill-opacity:1.0; 
stroke:#FFFFFF; stroke-width:39.3701; stroke-opacity:1; 
stroke-linecap:round; stroke-linejoin:round;">
</g>
<g style="fill:#FFFFFF; fill-opacity:1.0; 
stroke:#FFFFFF; stroke-width:0; stroke-opacity:1; 
stroke-linecap:round; stroke-linejoin:round;">
<circle cx="2019.69" cy="4810.04" r="629.921" /> 
</g>
<g style="fill:#FFFFFF; fill-opacity:1.0; 
stroke:#FFFFFF; stroke-width:39.3701; stroke-opacity:1; 
stroke-linecap:round; stroke-linejoin:round;">
</g>
<g style="fill:#FFFFFF; fill-opacity:1.0; 
stroke:#FFFFFF; stroke-width:0; stroke-opacity:1; 
stroke-linecap:round; stroke-linejoin:round;">
<circle cx="24019.7" cy="4810.04" r="629.921" /> 
</g>
<g style="fill:#FFFFFF; fill-opacity:1.0; 
stroke:#FFFFFF; stroke-width:39.3701; stroke-opacity:1; 
stroke-linecap:round; stroke-linejoin:round;">
</g>
<g style="fill:#FFFFFF; fill-opacity:1.0; 
stroke:#FFFFFF; stroke-width:0; stroke-opacity:1; 
stroke-linecap:round; stroke-linejoin:round;">
<circle cx="2019.69" cy="20310" r="629.921" /> 
</g>
<g style="fill:#FFFFFF; fill-opacity:1.0; 
stroke:#FFFFFF; stroke-width:39.3701; stroke-opacity:1; 
stroke-linecap:round; stroke-linejoin:round;">
</g>
<g style="fill:#FFFFFF; fill-opacity:1.0; 
stroke:#FFFFFF; stroke-width:0; stroke-opacity:1; 
stroke-linecap:round; stroke-linejoin:round;">
<circle cx="19519.7" cy="8810.04" r="314.961" /> 
</g>
<g style="fill:#FFFFFF; fill-opacity:1.0; 
stroke:#FFFFFF; stroke-width:39.3701; stroke-opacity:1; 
stroke-linecap:round; stroke-linejoin:round;">
</g>
<g style="fill:#FFFFFF; fill-opacity:1.0; 
stroke:#FFFFFF; stroke-width:0; stroke-opacity:1; 
stroke-linecap:round; stroke-linejoin:round;">
<circle cx="19519.7" cy="14810" r="314.961" /> 
</g>
<g style="fill:#FFFFFF; fill-opacity:1.0; 
stroke:#FFFFFF; stroke-width:39.3701; stroke-opacity:1; 
stroke-linecap:round; stroke-linejoin:round;">
</g>
<g style="fill:#FFFFFF; fill-opacity:1.0; 
stroke:#FFFFFF; stroke-width:0; stroke-opacity:1; 
stroke-linecap:round; stroke-linejoin:round;">
<circle cx="11019.7" cy="19310" r="196.85" /> 
</g>
<g style="fill:#FFFFFF; fill-opacity:1.0; 
stroke:#FFFFFF; stroke-width:39.3701; stroke-opacity:1; 
stroke-linecap:round; stroke-linejoin:round;">
</g>
<g style="fill:#FFFFFF; fill-opacity:1.0; 
stroke:#FFFFFF; stroke-width:0; stroke-opacity:1; 
stroke-linecap:round; stroke-linejoin:round;">
<circle cx="5019.69" cy="19310" r="196.85" /> 
</g>
<g style="fill:#FFFFFF; fill-opacity:1.0; 
stroke:#FFFFFF; stroke-width:39.3701; stroke-opacity:1; 
stroke-linecap:round; stroke-linejoin:round;">
</g>
<g style="fill:#FFFFFF; fill-opacity:1.0; 
stroke:#FFFFFF; stroke-width:0; stroke-opacity:1; 
stroke-linecap:round; stroke-linejoin:round;">
<circle cx="11019.7" cy="5310.04" r="196.85" /> 
</g>
<g style="fill:#FFFFFF; fill-opacity:1.0; 
stroke:#FFFFFF; stroke-width:39.3701; stroke-opacity:1; 
stroke-linecap:round; stroke-linejoin:round;">
</g>
<g style="fill:#FFFFFF; fill-opacity:1.0; 
stroke:#FFFFFF; stroke-width:0; stroke-opacity:1; 
stroke-linecap:round; stroke-linejoin:round;">
<circle cx="5019.69" cy="18310" r="196.85" /> 
</g>
<g style="fill:#FFFFFF; fill-opacity:1.0; 
stroke:#FFFFFF; stroke-width:39.3701; stroke-opacity:1; 
stroke-linecap:round; stroke-linejoin:round;">
</g>
<g style="fill:#FFFFFF; fill-opacity:1.0; 
stroke:#FFFFFF; stroke-width:0; stroke-opacity:1; 
stroke-linecap:round; stroke-linejoin:round;">
<circle cx="11019.7" cy="6310.04" r="196.85" /> 
</g>
<g style="fill:#FFFFFF; fill-opacity:1.0; 
stroke:#FFFFFF; stroke-width:39.3701; stroke-opacity:1; 
stroke-linecap:round; stroke-linejoin:round;">
</g>
<g style="fill:#FFFFFF; fill-opacity:1.0; 
stroke:#FFFFFF; stroke-width:0; stroke-opacity:1; 
stroke-linecap:round; stroke-linejoin:round;">
<circle cx="5019.69" cy="17310" r="196.85" /> 
</g>
<g style="fill:#FFFFFF; fill-opacity:1.0; 
stroke:#FFFFFF; stroke-width:39.3701; stroke-opacity:1; 
stroke-linecap:round; stroke-linejoin:round;">
</g>
<g style="fill:#FFFFFF; fill-opacity:1.0; 
stroke:#FFFFFF; stroke-width:0; stroke-opacity:1; 
stroke-linecap:round; stroke-linejoin:round;">
<circle cx="11019.7" cy="7310.04" r="196.85" /> 
</g>
<g style="fill:#FFFFFF; fill-opacity:1.0; 
stroke:#FFFFFF; stroke-width:39.3701; stroke-opacity:1; 
stroke-linecap:round; stroke-linejoin:round;">
</g>
<g style="fill:#FFFFFF; fill-opacity:1.0; 
stroke:#FFFFFF; stroke-width:0; stroke-opacity:1; 
stroke-linecap:round; stroke-linejoin:round;">
<circle cx="5019.69" cy="16310" r="196.85" /> 
</g>
<g style="fill:#FFFFFF; fill-opacity:1.0; 
stroke:#FFFFFF; stroke-width:39.3701; stroke-opacity:1; 
stroke-linecap:round; stroke-linejoin:round;">
</g>
<g style="fill:#FFFFFF; fill-opacity:1.0; 
stroke:#FFFFFF; stroke-width:0; stroke-opacity:1; 
stroke-linecap:round; stroke-linejoin:round;">
<circle cx="11019.7" cy="8310.04" r="196.85" /> 
</g>
<g style="fill:#FFFFFF; fill-opacity:1.0; 
stroke:#FFFFFF; stroke-width:39.3701; stroke-opacity:1; 
stroke-linecap:round; stroke-linejoin:round;">
</g>
<g style="fill:#FFFFFF; fill-opacity:1.0; 
stroke:#FFFFFF; stroke-width:0; stroke-opacity:1; 
stroke-linecap:round; stroke-linejoin:round;">
<circle cx="5019.69" cy="15310" r="196.85" /> 
</g>
<g style="fill:#FFFFFF; fill-opacity:1.0; 
stroke:#FFFFFF; stroke-width:39.3701; stroke-opacity:1; 
stroke-linecap:round; stroke-linejoin:round;">
</g>
<g style="fill:#FFFFFF; fill-opacity:1.0; 
stroke:#FFFFFF; stroke-width:0; stroke-opacity:1; 
stroke-linecap:round; stroke-linejoin:round;">
<circle cx="11019.7" cy="9310.04" r="196.85" /> 
</g>
<g style="fill:#FFFFFF; fill-opacity:1.0; 
stroke:#FFFFFF; stroke-width:39.3701; stroke-opacity:1; 
stroke-linecap:round; stroke-linejoin:round;">
</g>
<g style="fill:#FFFFFF; fill-opacity:1.0; 
stroke:#FFFFFF; stroke-width:0; stroke-opacity:1; 
stroke-linecap:round; stroke-linejoin:round;">
<circle cx="5019.69" cy="14310" r="196.85" /> 
</g>
<g style="fill:#FFFFFF; fill-opacity:1.0; 
stroke:#FFFFFF; stroke-width:39.3701; stroke-opacity:1; 
stroke-linecap:round; stroke-linejoin:round;">
</g>
<g style="fill:#FFFFFF; fill-opacity:1.0; 
stroke:#FFFFFF; stroke-width:0; stroke-opacity:1; 
stroke-linecap:round; stroke-linejoin:round;">
<circle cx="11019.7" cy="10310" r="196.85" /> 
</g>
<g style="fill:#FFFFFF; fill-opacity:1.0; 
stroke:#FFFFFF; stroke-width:39.3701; stroke-opacity:1; 
stroke-linecap:round; stroke-linejoin:round;">
</g>
<g style="fill:#FFFFFF; fill-opacity:1.0; 
stroke:#FFFFFF; stroke-width:0; stroke-opacity:1; 
stroke-linecap:round; stroke-linejoin:round;">
<circle cx="5019.69" cy="13310" r="196.85" /> 
</g>
<g style="fill:#FFFFFF; fill-opacity:1.0; 
stroke:#FFFFFF; stroke-width:39.3701; stroke-opacity:1; 
stroke-linecap:round; stroke-linejoin:round;">
</g>
<g style="fill:#FFFFFF; fill-opacity:1.0; 
stroke:#FFFFFF; stroke-width:0; stroke-opacity:1; 
stroke-linecap:round; stroke-linejoin:round;">
<circle cx="11019.7" cy="11310" r="196.85" /> 
</g>
<g style="fill:#FFFFFF; fill-opacity:1.0; 
stroke:#FFFFFF; stroke-width:39.3701; stroke-opacity:1; 
stroke-linecap:round; stroke-linejoin:round;">
</g>
<g style="fill:#FFFFFF; fill-opacity:1.0; 
stroke:#FFFFFF; stroke-width:0; stroke-opacity:1; 
stroke-linecap:round; stroke-linejoin:round;">
<circle cx="5019.69" cy="12310" r="196.85" /> 
</g>
<g style="fill:#FFFFFF; fill-opacity:1.0; 
stroke:#FFFFFF; stroke-width:39.3701; stroke-opacity:1; 
stroke-linecap:round; stroke-linejoin:round;">
</g>
<g style="fill:#FFFFFF; fill-opacity:1.0; 
stroke:#FFFFFF; stroke-width:0; stroke-opacity:1; 
stroke-linecap:round; stroke-linejoin:round;">
<circle cx="11019.7" cy="12310" r="196.85" /> 
</g>
<g style="fill:#FFFFFF; fill-opacity:1.0; 
stroke:#FFFFFF; stroke-width:39.3701; stroke-opacity:1; 
stroke-linecap:round; stroke-linejoin:round;">
</g>
<g style="fill:#FFFFFF; fill-opacity:1.0; 
stroke:#FFFFFF; stroke-width:0; stroke-opacity:1; 
stroke-linecap:round; stroke-linejoin:round;">
<circle cx="5019.69" cy="11310" r="196.85" /> 
</g>
<g style="fill:#FFFFFF; fill-opacity:1.0; 
stroke:#FFFFFF; stroke-width:39.3701; stroke-opacity:1; 
stroke-linecap:round; stroke-linejoin:round;">
</g>
<g style="fill:#FFFFFF; fill-opacity:1.0; 
stroke:#FFFFFF; stroke-width:0; stroke-opacity:1; 
stroke-linecap:round; stroke-linejoin:round;">
<circle cx="11019.7" cy="13310" r="196.85" /> 
</g>
<g style="fill:#FFFFFF; fill-opacity:1.0; 
stroke:#FFFFFF; stroke-width:39.3701; stroke-opacity:1; 
stroke-linecap:round; stroke-linejoin:round;">
</g>
<g style="fill:#FFFFFF; fill-opacity:1.0; 
stroke:#FFFFFF; stroke-width:0; stroke-opacity:1; 
stroke-linecap:round; stroke-linejoin:round;">
<circle cx="5019.69" cy="10310" r="196.85" /> 
</g>
<g style="fill:#FFFFFF; fill-opacity:1.0; 
stroke:#FFFFFF; stroke-width:39.3701; stroke-opacity:1; 
stroke-linecap:round; stroke-linejoin:round;">
</g>
<g style="fill:#FFFFFF; fill-opacity:1.0; 
stroke:#FFFFFF; stroke-width:0; stroke-opacity:1; 
stroke-linecap:round; stroke-linejoin:round;">
<circle cx="11019.7" cy="14310" r="196.85" /> 
</g>
<g style="fill:#FFFFFF; fill-opacity:1.0; 
stroke:#FFFFFF; stroke-width:39.3701; stroke-opacity:1; 
stroke-linecap:round; stroke-linejoin:round;">
</g>
<g style="fill:#FFFFFF; fill-opacity:1.0; 
stroke:#FFFFFF; stroke-width:0; stroke-opacity:1; 
stroke-linecap:round; stroke-linejoin:round;">
<circle cx="5019.69" cy="9310.04" r="196.85" /> 
</g>
<g style="fill:#FFFFFF; fill-opacity:1.0; 
stroke:#FFFFFF; stroke-width:39.3701; stroke-opacity:1; 
stroke-linecap:round; stroke-linejoin:round;">
</g>
<g style="fill:#FFFFFF; fill-opacity:1.0; 
stroke:#FFFFFF; stroke-width:0; stroke-opacity:1; 
stroke-linecap:round; stroke-linejoin:round;">
<circle cx="11019.7" cy="15310" r="196.85" /> 
</g>
<g style="fill:#FFFFFF; fill-opacity:1.0; 
stroke:#FFFFFF; stroke-width:39.3701; stroke-opacity:1; 
stroke-linecap:round; stroke-linejoin:round;">
</g>
<g style="fill:#FFFFFF; fill-opacity:1.0; 
stroke:#FFFFFF; stroke-width:0; stroke-opacity:1; 
stroke-linecap:round; stroke-linejoin:round;">
<circle cx="5019.69" cy="8310.04" r="196.85" /> 
</g>
<g style="fill:#FFFFFF; fill-opacity:1.0; 
stroke:#FFFFFF; stroke-width:39.3701; stroke-opacity:1; 
stroke-linecap:round; stroke-linejoin:round;">
</g>
<g style="fill:#FFFFFF; fill-opacity:1.0; 
stroke:#FFFFFF; stroke-width:0; stroke-opacity:1; 
stroke-linecap:round; stroke-linejoin:round;">
<circle cx="11019.7" cy="16310" r="196.85" /> 
</g>
<g style="fill:#FFFFFF; fill-opacity:1.0; 
stroke:#FFFFFF; stroke-width:39.3701; stroke-opacity:1; 
stroke-linecap:round; stroke-linejoin:round;">
</g>
<g style="fill:#FFFFFF; fill-opacity:1.0; 
stroke:#FFFFFF; stroke-width:0; stroke-opacity:1; 
stroke-linecap:round; stroke-linejoin:round;">
<circle cx="5019.69" cy="7310.04" r="196.85" /> 
</g>
<g style="fill:#FFFFFF; fill-opacity:1.0; 
stroke:#FFFFFF; stroke-width:39.3701; stroke-opacity:1; 
stroke-linecap:round; stroke-linejoin:round;">
</g>
<g style="fill:#FFFFFF; fill-opacity:1.0; 
stroke:#FFFFFF; stroke-width:0; stroke-opacity:1; 
stroke-linecap:round; stroke-linejoin:round;">
<circle cx="11019.7" cy="17310" r="196.85" /> 
</g>
<g style="fill:#FFFFFF; fill-opacity:1.0; 
stroke:#FFFFFF; stroke-width:39.3701; stroke-opacity:1; 
stroke-linecap:round; stroke-linejoin:round;">
</g>
<g style="fill:#FFFFFF; fill-opacity:1.0; 
stroke:#FFFFFF; stroke-width:0; stroke-opacity:1; 
stroke-linecap:round; stroke-linejoin:round;">
<circle cx="5019.69" cy="6310.04" r="196.85" /> 
</g>
<g style="fill:#FFFFFF; fill-opacity:1.0; 
stroke:#FFFFFF; stroke-width:39.3701; stroke-opacity:1; 
stroke-linecap:round; stroke-linejoin:round;">
</g>
<g style="fill:#FFFFFF; fill-opacity:1.0; 
stroke:#FFFFFF; stroke-width:0; stroke-opacity:1; 
stroke-linecap:round; stroke-linejoin:round;">
<circle cx="11019.7" cy="18310" r="196.85" /> 
</g>
<g style="fill:#FFFFFF; fill-opacity:1.0; 
stroke:#FFFFFF; stroke-width:39.3701; stroke-opacity:1; 
stroke-linecap:round; stroke-linejoin:round;">
</g>
<g style="fill:#FFFFFF; fill-opacity:1.0; 
stroke:#FFFFFF; stroke-width:0; stroke-opacity:1; 
stroke-linecap:round; stroke-linejoin:round;">
<circle cx="5019.69" cy="5310.04" r="196.85" /> 
</g>
<g style="fill:#FFFFFF; fill-opacity:1.0; 
stroke:#FFFFFF; stroke-width:39.3701; stroke-opacity:1; 
stroke-linecap:round; stroke-linejoin:round;">
</g>
<g style="fill:#000000; fill-opacity:1.0; 
stroke:#000000; stroke-width:39.3701; stroke-opacity:1; 
stroke-linecap:round; stroke-linejoin:round;">
</g>
<g style="fill:#000000; fill-opacity:0.0; 
stroke:#000000; stroke-width:39.3701; stroke-opacity:1; 
stroke-linecap:round; stroke-linejoin:round;">
<path d="M26019 2310
L26019 23310
" />
<path d="M19 2310
L26019 2310
" />
<path d="M19 23310
L19 2310
" />
<path d="M26019 23310
L19 23310
" />
<g >
</g>
<g >
</g>
<g >
</g>
<g >
</g>
<g >
</g>
<g >
</g>
<g >
</g>
<g >
</g>
<g >
</g>
<g >
</g>
<g >
</g>
<g >
</g>
<g >
</g>
</g> 
</svg>
