%TF.GenerationSoftware,KiCad,Pcbnew,(5.1.6)-1*%
%TF.CreationDate,2021-10-28T13:29:10+07:00*%
%TF.ProjectId,ThermoSanitizer,54686572-6d6f-4536-916e-6974697a6572,rev?*%
%TF.SameCoordinates,Original*%
%TF.FileFunction,Copper,L2,Bot*%
%TF.FilePolarity,Positive*%
%FSLAX46Y46*%
G04 Gerber Fmt 4.6, Leading zero omitted, Abs format (unit mm)*
G04 Created by KiCad (PCBNEW (5.1.6)-1) date 2021-10-28 13:29:10*
%MOMM*%
%LPD*%
G01*
G04 APERTURE LIST*
%TA.AperFunction,ComponentPad*%
%ADD10O,1.600000X1.600000*%
%TD*%
%TA.AperFunction,ComponentPad*%
%ADD11C,1.600000*%
%TD*%
%TA.AperFunction,ComponentPad*%
%ADD12O,1.905000X2.000000*%
%TD*%
%TA.AperFunction,ComponentPad*%
%ADD13R,1.905000X2.000000*%
%TD*%
%TA.AperFunction,ComponentPad*%
%ADD14C,3.000000*%
%TD*%
%TA.AperFunction,ComponentPad*%
%ADD15R,3.000000X3.000000*%
%TD*%
%TA.AperFunction,ComponentPad*%
%ADD16O,1.700000X1.700000*%
%TD*%
%TA.AperFunction,ComponentPad*%
%ADD17R,1.700000X1.700000*%
%TD*%
%TA.AperFunction,ComponentPad*%
%ADD18O,3.200000X3.200000*%
%TD*%
%TA.AperFunction,ComponentPad*%
%ADD19R,3.200000X3.200000*%
%TD*%
%TA.AperFunction,ComponentPad*%
%ADD20R,1.600000X1.600000*%
%TD*%
%TA.AperFunction,Conductor*%
%ADD21C,1.600000*%
%TD*%
%TA.AperFunction,Conductor*%
%ADD22C,0.500000*%
%TD*%
G04 APERTURE END LIST*
D10*
%TO.P,R1,2*%
%TO.N,GND*%
X100330000Y-91440000D03*
D11*
%TO.P,R1,1*%
%TO.N,MOTOR*%
X100330000Y-93980000D03*
%TD*%
D12*
%TO.P,Q1,3*%
%TO.N,GND*%
X83820000Y-88900000D03*
%TO.P,Q1,2*%
%TO.N,Net-(D1-Pad2)*%
X81280000Y-88900000D03*
D13*
%TO.P,Q1,1*%
%TO.N,MOTOR*%
X78740000Y-88900000D03*
%TD*%
D14*
%TO.P,J4,2*%
%TO.N,Net-(D1-Pad2)*%
X87630000Y-73660000D03*
D15*
%TO.P,J4,1*%
%TO.N,+5V*%
X92710000Y-73660000D03*
%TD*%
D14*
%TO.P,J3,2*%
%TO.N,GND*%
X76200000Y-73660000D03*
D15*
%TO.P,J3,1*%
%TO.N,+9V*%
X81280000Y-73660000D03*
%TD*%
D14*
%TO.P,J2,2*%
%TO.N,GND*%
X81280000Y-105410000D03*
D15*
%TO.P,J2,1*%
%TO.N,+5V*%
X76200000Y-105410000D03*
%TD*%
D16*
%TO.P,J1,4*%
%TO.N,GND*%
X95250000Y-102870000D03*
%TO.P,J1,3*%
%TO.N,TRIG&ECHO*%
X92710000Y-102870000D03*
%TO.P,J1,2*%
X90170000Y-102870000D03*
D17*
%TO.P,J1,1*%
%TO.N,+5V*%
X87630000Y-102870000D03*
%TD*%
D18*
%TO.P,D1,2*%
%TO.N,Net-(D1-Pad2)*%
X91440000Y-82550000D03*
D19*
%TO.P,D1,1*%
%TO.N,+5V*%
X91440000Y-97790000D03*
%TD*%
D10*
%TO.P,A1,16*%
%TO.N,Net-(A1-Pad16)*%
X69850000Y-109220000D03*
%TO.P,A1,15*%
%TO.N,Net-(A1-Pad15)*%
X54610000Y-109220000D03*
%TO.P,A1,30*%
%TO.N,+9V*%
X69850000Y-73660000D03*
%TO.P,A1,14*%
%TO.N,Net-(A1-Pad14)*%
X54610000Y-106680000D03*
%TO.P,A1,29*%
%TO.N,GND*%
X69850000Y-76200000D03*
%TO.P,A1,13*%
%TO.N,TRIG&ECHO*%
X54610000Y-104140000D03*
%TO.P,A1,28*%
%TO.N,Net-(A1-Pad28)*%
X69850000Y-78740000D03*
%TO.P,A1,12*%
%TO.N,Net-(A1-Pad12)*%
X54610000Y-101600000D03*
%TO.P,A1,27*%
%TO.N,+5V*%
X69850000Y-81280000D03*
%TO.P,A1,11*%
%TO.N,Net-(A1-Pad11)*%
X54610000Y-99060000D03*
%TO.P,A1,26*%
%TO.N,Net-(A1-Pad26)*%
X69850000Y-83820000D03*
%TO.P,A1,10*%
%TO.N,Net-(A1-Pad10)*%
X54610000Y-96520000D03*
%TO.P,A1,25*%
%TO.N,Net-(A1-Pad25)*%
X69850000Y-86360000D03*
%TO.P,A1,9*%
%TO.N,Net-(A1-Pad9)*%
X54610000Y-93980000D03*
%TO.P,A1,24*%
%TO.N,Net-(A1-Pad24)*%
X69850000Y-88900000D03*
%TO.P,A1,8*%
%TO.N,MOTOR*%
X54610000Y-91440000D03*
%TO.P,A1,23*%
%TO.N,Net-(A1-Pad23)*%
X69850000Y-91440000D03*
%TO.P,A1,7*%
%TO.N,Net-(A1-Pad7)*%
X54610000Y-88900000D03*
%TO.P,A1,22*%
%TO.N,Net-(A1-Pad22)*%
X69850000Y-93980000D03*
%TO.P,A1,6*%
%TO.N,Net-(A1-Pad6)*%
X54610000Y-86360000D03*
%TO.P,A1,21*%
%TO.N,Net-(A1-Pad21)*%
X69850000Y-96520000D03*
%TO.P,A1,5*%
%TO.N,Net-(A1-Pad5)*%
X54610000Y-83820000D03*
%TO.P,A1,20*%
%TO.N,Net-(A1-Pad20)*%
X69850000Y-99060000D03*
%TO.P,A1,4*%
%TO.N,GND*%
X54610000Y-81280000D03*
%TO.P,A1,19*%
%TO.N,Net-(A1-Pad19)*%
X69850000Y-101600000D03*
%TO.P,A1,3*%
%TO.N,Net-(A1-Pad3)*%
X54610000Y-78740000D03*
%TO.P,A1,18*%
%TO.N,Net-(A1-Pad18)*%
X69850000Y-104140000D03*
%TO.P,A1,2*%
%TO.N,Net-(A1-Pad2)*%
X54610000Y-76200000D03*
%TO.P,A1,17*%
%TO.N,Net-(A1-Pad17)*%
X69850000Y-106680000D03*
D20*
%TO.P,A1,1*%
%TO.N,Net-(A1-Pad1)*%
X54610000Y-73660000D03*
%TD*%
D21*
%TO.N,+5V*%
X76200000Y-105410000D02*
X76200000Y-101600000D01*
X87630000Y-101600000D02*
X83820000Y-97790000D01*
X80010000Y-97790000D02*
X83820000Y-97790000D01*
X87630000Y-102870000D02*
X87630000Y-101600000D01*
X83820000Y-97790000D02*
X91440000Y-97790000D01*
X77470000Y-100330000D02*
X74930000Y-100330000D01*
X77470000Y-100330000D02*
X80010000Y-97790000D01*
X76200000Y-101600000D02*
X77470000Y-100330000D01*
X74930000Y-100330000D02*
X72390000Y-97790000D01*
X72390000Y-97790000D02*
X72390000Y-81280000D01*
X72390000Y-81280000D02*
X69850000Y-81280000D01*
X72390000Y-81280000D02*
X73660000Y-81280000D01*
X92710000Y-73660000D02*
X92710000Y-76200000D01*
X92710000Y-76200000D02*
X90170000Y-78740000D01*
X76200000Y-78740000D02*
X73660000Y-81280000D01*
X90170000Y-78740000D02*
X76200000Y-78740000D01*
%TO.N,TRIG&ECHO*%
X92710000Y-102870000D02*
X92710000Y-107950000D01*
X87630000Y-113030000D02*
X62230000Y-113030000D01*
X62230000Y-113030000D02*
X59690000Y-110490000D01*
X59690000Y-110490000D02*
X59690000Y-105410000D01*
X58420000Y-104140000D02*
X54610000Y-104140000D01*
X59690000Y-105410000D02*
X58420000Y-104140000D01*
X90170000Y-102870000D02*
X90170000Y-110490000D01*
X92710000Y-107950000D02*
X90170000Y-110490000D01*
X90170000Y-110490000D02*
X87630000Y-113030000D01*
%TO.N,MOTOR*%
X53478630Y-91440000D02*
X52070000Y-92848630D01*
X54610000Y-91440000D02*
X53478630Y-91440000D01*
X52070000Y-92848630D02*
X52070000Y-113030000D01*
X52070000Y-113030000D02*
X54610000Y-115570000D01*
X100330000Y-105410000D02*
X90170000Y-115570000D01*
X54610000Y-115570000D02*
X90170000Y-115570000D01*
X100330000Y-93980000D02*
X100330000Y-105410000D01*
X78740000Y-92710000D02*
X78740000Y-89168766D01*
X100330000Y-93980000D02*
X97790000Y-93980000D01*
X97790000Y-93980000D02*
X96520000Y-92710000D01*
X96520000Y-92710000D02*
X78740000Y-92710000D01*
%TO.N,+9V*%
X81280000Y-73660000D02*
X81280000Y-71120000D01*
X81280000Y-71120000D02*
X80010000Y-69850000D01*
X80010000Y-69850000D02*
X67310000Y-69850000D01*
X67310000Y-69850000D02*
X66040000Y-71120000D01*
X66040000Y-71120000D02*
X66040000Y-72390000D01*
X67310000Y-73660000D02*
X69850000Y-73660000D01*
X66040000Y-72390000D02*
X67310000Y-73660000D01*
%TO.N,Net-(D1-Pad2)*%
X87630000Y-71120000D02*
X87630000Y-73660000D01*
X81280000Y-88900000D02*
X81280000Y-86360000D01*
X81280000Y-86360000D02*
X82550000Y-85090000D01*
X82550000Y-85090000D02*
X90170000Y-85090000D01*
X90170000Y-85090000D02*
X91440000Y-83820000D01*
X91440000Y-83820000D02*
X91440000Y-82550000D01*
X91440000Y-82550000D02*
X96520000Y-82550000D01*
X96520000Y-82550000D02*
X97790000Y-81280000D01*
X97790000Y-81280000D02*
X97790000Y-69850000D01*
X97790000Y-69850000D02*
X96520000Y-68580000D01*
X96520000Y-68580000D02*
X88900000Y-68580000D01*
X87630000Y-69850000D02*
X87630000Y-71120000D01*
X88900000Y-68580000D02*
X87630000Y-69850000D01*
%TD*%
D22*
%TO.N,GND*%
G36*
X107142001Y-118572000D02*
G01*
X42718000Y-118572000D01*
X42718000Y-111527757D01*
X44632000Y-111527757D01*
X44632000Y-111992243D01*
X44722617Y-112447803D01*
X44900368Y-112876932D01*
X45158422Y-113263137D01*
X45486863Y-113591578D01*
X45873068Y-113849632D01*
X46302197Y-114027383D01*
X46757757Y-114118000D01*
X47222243Y-114118000D01*
X47677803Y-114027383D01*
X48106932Y-113849632D01*
X48493137Y-113591578D01*
X48821578Y-113263137D01*
X49079632Y-112876932D01*
X49257383Y-112447803D01*
X49348000Y-111992243D01*
X49348000Y-111527757D01*
X49257383Y-111072197D01*
X49079632Y-110643068D01*
X48821578Y-110256863D01*
X48493137Y-109928422D01*
X48106932Y-109670368D01*
X47677803Y-109492617D01*
X47222243Y-109402000D01*
X46757757Y-109402000D01*
X46302197Y-109492617D01*
X45873068Y-109670368D01*
X45486863Y-109928422D01*
X45158422Y-110256863D01*
X44900368Y-110643068D01*
X44722617Y-111072197D01*
X44632000Y-111527757D01*
X42718000Y-111527757D01*
X42718000Y-92848630D01*
X50504462Y-92848630D01*
X50512000Y-92925163D01*
X50512001Y-112953457D01*
X50504462Y-113030000D01*
X50534544Y-113335421D01*
X50623632Y-113629106D01*
X50768303Y-113899766D01*
X50840903Y-113988229D01*
X50962998Y-114137003D01*
X51022453Y-114185796D01*
X53454208Y-116617552D01*
X53502997Y-116677003D01*
X53562445Y-116725790D01*
X53740232Y-116871697D01*
X54010893Y-117016368D01*
X54010895Y-117016369D01*
X54304579Y-117105457D01*
X54533465Y-117128000D01*
X54533469Y-117128000D01*
X54609999Y-117135538D01*
X54686530Y-117128000D01*
X90093467Y-117128000D01*
X90170000Y-117135538D01*
X90246533Y-117128000D01*
X90246535Y-117128000D01*
X90475421Y-117105457D01*
X90769105Y-117016369D01*
X91039766Y-116871697D01*
X91277003Y-116677003D01*
X91325801Y-116617542D01*
X96415586Y-111527757D01*
X100512000Y-111527757D01*
X100512000Y-111992243D01*
X100602617Y-112447803D01*
X100780368Y-112876932D01*
X101038422Y-113263137D01*
X101366863Y-113591578D01*
X101753068Y-113849632D01*
X102182197Y-114027383D01*
X102637757Y-114118000D01*
X103102243Y-114118000D01*
X103557803Y-114027383D01*
X103986932Y-113849632D01*
X104373137Y-113591578D01*
X104701578Y-113263137D01*
X104959632Y-112876932D01*
X105137383Y-112447803D01*
X105228000Y-111992243D01*
X105228000Y-111527757D01*
X105137383Y-111072197D01*
X104959632Y-110643068D01*
X104701578Y-110256863D01*
X104373137Y-109928422D01*
X103986932Y-109670368D01*
X103557803Y-109492617D01*
X103102243Y-109402000D01*
X102637757Y-109402000D01*
X102182197Y-109492617D01*
X101753068Y-109670368D01*
X101366863Y-109928422D01*
X101038422Y-110256863D01*
X100780368Y-110643068D01*
X100602617Y-111072197D01*
X100512000Y-111527757D01*
X96415586Y-111527757D01*
X101377547Y-106565797D01*
X101437003Y-106517003D01*
X101572116Y-106352367D01*
X101631697Y-106279767D01*
X101776368Y-106009106D01*
X101776369Y-106009105D01*
X101865457Y-105715421D01*
X101888000Y-105486535D01*
X101888000Y-105486533D01*
X101895538Y-105410000D01*
X101888000Y-105333465D01*
X101888000Y-94056535D01*
X101895538Y-93980000D01*
X101888000Y-93903465D01*
X101888000Y-93826550D01*
X101872995Y-93751118D01*
X101865457Y-93674579D01*
X101843130Y-93600976D01*
X101828126Y-93525548D01*
X101798696Y-93454498D01*
X101776369Y-93380895D01*
X101740113Y-93313064D01*
X101710681Y-93242010D01*
X101667951Y-93178060D01*
X101631697Y-93110234D01*
X101582907Y-93050782D01*
X101540177Y-92986833D01*
X101485797Y-92932453D01*
X101437003Y-92872997D01*
X101377547Y-92824203D01*
X101323167Y-92769823D01*
X101259218Y-92727093D01*
X101199766Y-92678303D01*
X101131940Y-92642049D01*
X101067990Y-92599319D01*
X100996936Y-92569887D01*
X100929105Y-92533631D01*
X100855502Y-92511304D01*
X100784452Y-92481874D01*
X100709024Y-92466870D01*
X100635421Y-92444543D01*
X100558883Y-92437005D01*
X100483450Y-92422000D01*
X100406535Y-92422000D01*
X100330000Y-92414462D01*
X100253465Y-92422000D01*
X98435344Y-92422000D01*
X97675800Y-91662457D01*
X97627003Y-91602997D01*
X97389766Y-91408303D01*
X97119105Y-91263631D01*
X96825421Y-91174543D01*
X96596535Y-91152000D01*
X96596533Y-91152000D01*
X96520000Y-91144462D01*
X96443467Y-91152000D01*
X80298000Y-91152000D01*
X80298000Y-90357038D01*
X80299309Y-90355444D01*
X80325100Y-90376610D01*
X80622254Y-90535442D01*
X80944684Y-90633250D01*
X81280000Y-90666276D01*
X81615317Y-90633250D01*
X81937747Y-90535442D01*
X82234901Y-90376610D01*
X82495358Y-90162858D01*
X82709110Y-89902401D01*
X82867942Y-89605246D01*
X82965750Y-89282816D01*
X82990500Y-89031526D01*
X82990500Y-88768473D01*
X82965750Y-88517183D01*
X82867942Y-88194753D01*
X82838000Y-88138735D01*
X82838000Y-87005344D01*
X83195344Y-86648000D01*
X90093467Y-86648000D01*
X90170000Y-86655538D01*
X90246533Y-86648000D01*
X90246535Y-86648000D01*
X90475421Y-86625457D01*
X90769105Y-86536369D01*
X91039766Y-86391697D01*
X91277003Y-86197003D01*
X91325800Y-86137543D01*
X92487553Y-84975792D01*
X92547003Y-84927003D01*
X92663887Y-84784579D01*
X92741697Y-84689767D01*
X92886033Y-84419734D01*
X92943137Y-84381578D01*
X93216715Y-84108000D01*
X96443467Y-84108000D01*
X96520000Y-84115538D01*
X96596533Y-84108000D01*
X96596535Y-84108000D01*
X96825421Y-84085457D01*
X97119105Y-83996369D01*
X97389766Y-83851697D01*
X97627003Y-83657003D01*
X97675800Y-83597543D01*
X98837555Y-82435790D01*
X98897003Y-82387003D01*
X99013887Y-82244579D01*
X99091697Y-82149767D01*
X99236368Y-81879107D01*
X99241498Y-81862197D01*
X99325457Y-81585421D01*
X99348000Y-81356535D01*
X99348000Y-81356534D01*
X99355538Y-81280001D01*
X99348000Y-81203465D01*
X99348000Y-72157757D01*
X100512000Y-72157757D01*
X100512000Y-72622243D01*
X100602617Y-73077803D01*
X100780368Y-73506932D01*
X101038422Y-73893137D01*
X101366863Y-74221578D01*
X101753068Y-74479632D01*
X102182197Y-74657383D01*
X102637757Y-74748000D01*
X103102243Y-74748000D01*
X103557803Y-74657383D01*
X103986932Y-74479632D01*
X104373137Y-74221578D01*
X104701578Y-73893137D01*
X104959632Y-73506932D01*
X105137383Y-73077803D01*
X105228000Y-72622243D01*
X105228000Y-72157757D01*
X105137383Y-71702197D01*
X104959632Y-71273068D01*
X104701578Y-70886863D01*
X104373137Y-70558422D01*
X103986932Y-70300368D01*
X103557803Y-70122617D01*
X103102243Y-70032000D01*
X102637757Y-70032000D01*
X102182197Y-70122617D01*
X101753068Y-70300368D01*
X101366863Y-70558422D01*
X101038422Y-70886863D01*
X100780368Y-71273068D01*
X100602617Y-71702197D01*
X100512000Y-72157757D01*
X99348000Y-72157757D01*
X99348000Y-69926532D01*
X99355538Y-69849999D01*
X99333629Y-69627553D01*
X99325457Y-69544579D01*
X99236369Y-69250895D01*
X99236368Y-69250893D01*
X99091697Y-68980233D01*
X98945790Y-68802445D01*
X98897003Y-68742997D01*
X98837552Y-68694207D01*
X97675800Y-67532457D01*
X97627003Y-67472997D01*
X97389766Y-67278303D01*
X97119105Y-67133631D01*
X96825421Y-67044543D01*
X96596535Y-67022000D01*
X96596533Y-67022000D01*
X96520000Y-67014462D01*
X96443467Y-67022000D01*
X88976532Y-67022000D01*
X88899999Y-67014462D01*
X88823466Y-67022000D01*
X88823465Y-67022000D01*
X88594579Y-67044543D01*
X88300895Y-67133631D01*
X88300893Y-67133632D01*
X88030233Y-67278303D01*
X87907525Y-67379007D01*
X87792997Y-67472997D01*
X87744207Y-67532448D01*
X86582457Y-68694200D01*
X86522997Y-68742997D01*
X86373923Y-68924646D01*
X86328303Y-68980234D01*
X86222004Y-69179105D01*
X86183631Y-69250896D01*
X86094543Y-69544580D01*
X86086371Y-69627555D01*
X86064462Y-69850000D01*
X86072000Y-69926533D01*
X86072000Y-72024706D01*
X85876097Y-72220609D01*
X85628987Y-72590436D01*
X85458774Y-73001366D01*
X85372000Y-73437606D01*
X85372000Y-73882394D01*
X85458774Y-74318634D01*
X85628987Y-74729564D01*
X85876097Y-75099391D01*
X86190609Y-75413903D01*
X86560436Y-75661013D01*
X86971366Y-75831226D01*
X87407606Y-75918000D01*
X87852394Y-75918000D01*
X88288634Y-75831226D01*
X88699564Y-75661013D01*
X89069391Y-75413903D01*
X89383903Y-75099391D01*
X89631013Y-74729564D01*
X89801226Y-74318634D01*
X89888000Y-73882394D01*
X89888000Y-73437606D01*
X89801226Y-73001366D01*
X89631013Y-72590436D01*
X89383903Y-72220609D01*
X89188000Y-72024706D01*
X89188000Y-70495344D01*
X89545344Y-70138000D01*
X95874656Y-70138000D01*
X96232001Y-70495345D01*
X96232000Y-80634656D01*
X95874656Y-80992000D01*
X93216715Y-80992000D01*
X92943137Y-80718422D01*
X92556932Y-80460368D01*
X92127803Y-80282617D01*
X91672243Y-80192000D01*
X91207757Y-80192000D01*
X90752197Y-80282617D01*
X90323068Y-80460368D01*
X89936863Y-80718422D01*
X89608422Y-81046863D01*
X89350368Y-81433068D01*
X89172617Y-81862197D01*
X89082000Y-82317757D01*
X89082000Y-82782243D01*
X89172617Y-83237803D01*
X89294477Y-83532000D01*
X82626532Y-83532000D01*
X82549999Y-83524462D01*
X82473466Y-83532000D01*
X82473465Y-83532000D01*
X82244579Y-83554543D01*
X81950895Y-83643631D01*
X81950893Y-83643632D01*
X81680233Y-83788303D01*
X81557525Y-83889007D01*
X81442997Y-83982997D01*
X81394208Y-84042447D01*
X80232453Y-85204204D01*
X80172998Y-85252997D01*
X80056114Y-85395422D01*
X79978303Y-85490234D01*
X79833632Y-85760894D01*
X79744544Y-86054579D01*
X79714462Y-86360000D01*
X79722001Y-86436543D01*
X79722001Y-87141239D01*
X79692500Y-87138333D01*
X77787500Y-87138333D01*
X77638906Y-87152968D01*
X77496023Y-87196311D01*
X77364340Y-87266697D01*
X77248920Y-87361420D01*
X77154197Y-87476840D01*
X77083811Y-87608523D01*
X77040468Y-87751406D01*
X77025833Y-87900000D01*
X77025833Y-89900000D01*
X77040468Y-90048594D01*
X77083811Y-90191477D01*
X77154197Y-90323160D01*
X77182001Y-90357039D01*
X77182000Y-92633464D01*
X77174462Y-92710000D01*
X77204543Y-93015421D01*
X77293631Y-93309105D01*
X77438303Y-93579766D01*
X77552073Y-93718396D01*
X77632997Y-93817003D01*
X77870234Y-94011697D01*
X78140895Y-94156369D01*
X78434579Y-94245457D01*
X78740000Y-94275538D01*
X78816535Y-94268000D01*
X95874656Y-94268000D01*
X96634207Y-95027552D01*
X96682997Y-95087003D01*
X96742445Y-95135790D01*
X96920233Y-95281697D01*
X97190893Y-95426368D01*
X97190895Y-95426369D01*
X97484579Y-95515457D01*
X97713465Y-95538000D01*
X97713466Y-95538000D01*
X97789999Y-95545538D01*
X97866532Y-95538000D01*
X98772000Y-95538000D01*
X98772001Y-104764655D01*
X89524657Y-114012000D01*
X88851343Y-114012000D01*
X91217555Y-111645790D01*
X91277003Y-111597003D01*
X91325801Y-111537542D01*
X93757552Y-109105792D01*
X93817003Y-109057003D01*
X93925776Y-108924462D01*
X94011697Y-108819768D01*
X94156368Y-108549107D01*
X94156369Y-108549105D01*
X94245457Y-108255421D01*
X94268000Y-108026535D01*
X94268000Y-108026531D01*
X94275538Y-107950001D01*
X94268000Y-107873470D01*
X94268000Y-103279739D01*
X94318000Y-103028374D01*
X94318000Y-102711626D01*
X94256205Y-102400964D01*
X94134991Y-102108327D01*
X93959015Y-101844960D01*
X93735040Y-101620985D01*
X93471673Y-101445009D01*
X93179036Y-101323795D01*
X92868374Y-101262000D01*
X92551626Y-101262000D01*
X92240964Y-101323795D01*
X91948327Y-101445009D01*
X91684960Y-101620985D01*
X91460985Y-101844960D01*
X91440000Y-101876366D01*
X91419015Y-101844960D01*
X91195040Y-101620985D01*
X90931673Y-101445009D01*
X90639036Y-101323795D01*
X90328374Y-101262000D01*
X90011626Y-101262000D01*
X89700964Y-101323795D01*
X89408327Y-101445009D01*
X89194354Y-101587981D01*
X89183859Y-101481420D01*
X89165457Y-101294579D01*
X89076369Y-101000895D01*
X89002133Y-100862010D01*
X88931697Y-100730233D01*
X88813109Y-100585733D01*
X88737003Y-100492997D01*
X88677553Y-100444208D01*
X87581344Y-99348000D01*
X89078333Y-99348000D01*
X89078333Y-99390000D01*
X89092968Y-99538594D01*
X89136311Y-99681477D01*
X89206697Y-99813160D01*
X89301420Y-99928580D01*
X89416840Y-100023303D01*
X89548523Y-100093689D01*
X89691406Y-100137032D01*
X89840000Y-100151667D01*
X93040000Y-100151667D01*
X93188594Y-100137032D01*
X93331477Y-100093689D01*
X93463160Y-100023303D01*
X93578580Y-99928580D01*
X93673303Y-99813160D01*
X93743689Y-99681477D01*
X93787032Y-99538594D01*
X93801667Y-99390000D01*
X93801667Y-96190000D01*
X93787032Y-96041406D01*
X93743689Y-95898523D01*
X93673303Y-95766840D01*
X93578580Y-95651420D01*
X93463160Y-95556697D01*
X93331477Y-95486311D01*
X93188594Y-95442968D01*
X93040000Y-95428333D01*
X89840000Y-95428333D01*
X89691406Y-95442968D01*
X89548523Y-95486311D01*
X89416840Y-95556697D01*
X89301420Y-95651420D01*
X89206697Y-95766840D01*
X89136311Y-95898523D01*
X89092968Y-96041406D01*
X89078333Y-96190000D01*
X89078333Y-96232000D01*
X83896533Y-96232000D01*
X83820000Y-96224462D01*
X83743467Y-96232000D01*
X80086530Y-96232000D01*
X80009999Y-96224462D01*
X79933469Y-96232000D01*
X79933465Y-96232000D01*
X79704579Y-96254543D01*
X79410895Y-96343631D01*
X79410893Y-96343632D01*
X79140232Y-96488303D01*
X78995033Y-96607466D01*
X78902997Y-96682997D01*
X78854208Y-96742448D01*
X76824657Y-98772000D01*
X75575345Y-98772000D01*
X73948000Y-97144657D01*
X73948000Y-82817173D01*
X73965421Y-82815457D01*
X74259105Y-82726369D01*
X74529766Y-82581697D01*
X74767003Y-82387003D01*
X74815801Y-82327542D01*
X76845345Y-80298000D01*
X90093467Y-80298000D01*
X90170000Y-80305538D01*
X90246533Y-80298000D01*
X90246535Y-80298000D01*
X90475421Y-80275457D01*
X90769105Y-80186369D01*
X91039766Y-80041697D01*
X91277003Y-79847003D01*
X91325801Y-79787542D01*
X93757552Y-77355792D01*
X93817003Y-77307003D01*
X93925776Y-77174462D01*
X94011697Y-77069768D01*
X94156368Y-76799107D01*
X94156369Y-76799105D01*
X94245457Y-76505421D01*
X94268000Y-76276535D01*
X94268000Y-76276531D01*
X94275538Y-76200001D01*
X94268000Y-76123470D01*
X94268000Y-75915955D01*
X94358594Y-75907032D01*
X94501477Y-75863689D01*
X94633160Y-75793303D01*
X94748580Y-75698580D01*
X94843303Y-75583160D01*
X94913689Y-75451477D01*
X94957032Y-75308594D01*
X94971667Y-75160000D01*
X94971667Y-72160000D01*
X94957032Y-72011406D01*
X94913689Y-71868523D01*
X94843303Y-71736840D01*
X94748580Y-71621420D01*
X94633160Y-71526697D01*
X94501477Y-71456311D01*
X94358594Y-71412968D01*
X94210000Y-71398333D01*
X91210000Y-71398333D01*
X91061406Y-71412968D01*
X90918523Y-71456311D01*
X90786840Y-71526697D01*
X90671420Y-71621420D01*
X90576697Y-71736840D01*
X90506311Y-71868523D01*
X90462968Y-72011406D01*
X90448333Y-72160000D01*
X90448333Y-75160000D01*
X90462968Y-75308594D01*
X90506311Y-75451477D01*
X90576697Y-75583160D01*
X90671420Y-75698580D01*
X90786840Y-75793303D01*
X90869285Y-75837371D01*
X89524657Y-77182000D01*
X76276530Y-77182000D01*
X76199999Y-77174462D01*
X76123469Y-77182000D01*
X76123465Y-77182000D01*
X75894579Y-77204543D01*
X75600895Y-77293631D01*
X75600893Y-77293632D01*
X75330232Y-77438303D01*
X75185033Y-77557466D01*
X75092997Y-77632997D01*
X75044208Y-77692447D01*
X73014657Y-79722000D01*
X72466535Y-79722000D01*
X72390000Y-79714462D01*
X72313465Y-79722000D01*
X71067639Y-79722000D01*
X71230681Y-79477990D01*
X71348126Y-79194452D01*
X71408000Y-78893450D01*
X71408000Y-78586550D01*
X71348126Y-78285548D01*
X71230681Y-78002010D01*
X71060177Y-77746833D01*
X70843167Y-77529823D01*
X70587990Y-77359319D01*
X70304452Y-77241874D01*
X70003450Y-77182000D01*
X69696550Y-77182000D01*
X69395548Y-77241874D01*
X69112010Y-77359319D01*
X68856833Y-77529823D01*
X68639823Y-77746833D01*
X68469319Y-78002010D01*
X68351874Y-78285548D01*
X68292000Y-78586550D01*
X68292000Y-78893450D01*
X68351874Y-79194452D01*
X68469319Y-79477990D01*
X68639823Y-79733167D01*
X68856833Y-79950177D01*
X68943744Y-80008249D01*
X68920782Y-80027093D01*
X68856833Y-80069823D01*
X68802453Y-80124203D01*
X68742997Y-80172997D01*
X68694203Y-80232453D01*
X68639823Y-80286833D01*
X68597093Y-80350782D01*
X68548303Y-80410234D01*
X68512049Y-80478060D01*
X68469319Y-80542010D01*
X68439887Y-80613064D01*
X68403631Y-80680895D01*
X68381304Y-80754498D01*
X68351874Y-80825548D01*
X68336870Y-80900976D01*
X68314543Y-80974579D01*
X68307005Y-81051118D01*
X68292000Y-81126550D01*
X68292000Y-81203465D01*
X68284462Y-81280000D01*
X68292000Y-81356534D01*
X68292000Y-81433450D01*
X68307005Y-81508882D01*
X68314543Y-81585421D01*
X68336870Y-81659024D01*
X68351874Y-81734452D01*
X68381304Y-81805502D01*
X68403631Y-81879105D01*
X68439887Y-81946936D01*
X68469319Y-82017990D01*
X68512049Y-82081940D01*
X68548303Y-82149766D01*
X68597093Y-82209218D01*
X68639823Y-82273167D01*
X68694203Y-82327547D01*
X68742997Y-82387003D01*
X68802453Y-82435797D01*
X68856833Y-82490177D01*
X68920782Y-82532907D01*
X68943744Y-82551751D01*
X68856833Y-82609823D01*
X68639823Y-82826833D01*
X68469319Y-83082010D01*
X68351874Y-83365548D01*
X68292000Y-83666550D01*
X68292000Y-83973450D01*
X68351874Y-84274452D01*
X68469319Y-84557990D01*
X68639823Y-84813167D01*
X68856833Y-85030177D01*
X68946364Y-85090000D01*
X68856833Y-85149823D01*
X68639823Y-85366833D01*
X68469319Y-85622010D01*
X68351874Y-85905548D01*
X68292000Y-86206550D01*
X68292000Y-86513450D01*
X68351874Y-86814452D01*
X68469319Y-87097990D01*
X68639823Y-87353167D01*
X68856833Y-87570177D01*
X68946364Y-87630000D01*
X68856833Y-87689823D01*
X68639823Y-87906833D01*
X68469319Y-88162010D01*
X68351874Y-88445548D01*
X68292000Y-88746550D01*
X68292000Y-89053450D01*
X68351874Y-89354452D01*
X68469319Y-89637990D01*
X68639823Y-89893167D01*
X68856833Y-90110177D01*
X68946364Y-90170000D01*
X68856833Y-90229823D01*
X68639823Y-90446833D01*
X68469319Y-90702010D01*
X68351874Y-90985548D01*
X68292000Y-91286550D01*
X68292000Y-91593450D01*
X68351874Y-91894452D01*
X68469319Y-92177990D01*
X68639823Y-92433167D01*
X68856833Y-92650177D01*
X68946364Y-92710000D01*
X68856833Y-92769823D01*
X68639823Y-92986833D01*
X68469319Y-93242010D01*
X68351874Y-93525548D01*
X68292000Y-93826550D01*
X68292000Y-94133450D01*
X68351874Y-94434452D01*
X68469319Y-94717990D01*
X68639823Y-94973167D01*
X68856833Y-95190177D01*
X68946364Y-95250000D01*
X68856833Y-95309823D01*
X68639823Y-95526833D01*
X68469319Y-95782010D01*
X68351874Y-96065548D01*
X68292000Y-96366550D01*
X68292000Y-96673450D01*
X68351874Y-96974452D01*
X68469319Y-97257990D01*
X68639823Y-97513167D01*
X68856833Y-97730177D01*
X68946364Y-97790000D01*
X68856833Y-97849823D01*
X68639823Y-98066833D01*
X68469319Y-98322010D01*
X68351874Y-98605548D01*
X68292000Y-98906550D01*
X68292000Y-99213450D01*
X68351874Y-99514452D01*
X68469319Y-99797990D01*
X68639823Y-100053167D01*
X68856833Y-100270177D01*
X68946364Y-100330000D01*
X68856833Y-100389823D01*
X68639823Y-100606833D01*
X68469319Y-100862010D01*
X68351874Y-101145548D01*
X68292000Y-101446550D01*
X68292000Y-101753450D01*
X68351874Y-102054452D01*
X68469319Y-102337990D01*
X68639823Y-102593167D01*
X68856833Y-102810177D01*
X68946364Y-102870000D01*
X68856833Y-102929823D01*
X68639823Y-103146833D01*
X68469319Y-103402010D01*
X68351874Y-103685548D01*
X68292000Y-103986550D01*
X68292000Y-104293450D01*
X68351874Y-104594452D01*
X68469319Y-104877990D01*
X68639823Y-105133167D01*
X68856833Y-105350177D01*
X68946364Y-105410000D01*
X68856833Y-105469823D01*
X68639823Y-105686833D01*
X68469319Y-105942010D01*
X68351874Y-106225548D01*
X68292000Y-106526550D01*
X68292000Y-106833450D01*
X68351874Y-107134452D01*
X68469319Y-107417990D01*
X68639823Y-107673167D01*
X68856833Y-107890177D01*
X68946364Y-107950000D01*
X68856833Y-108009823D01*
X68639823Y-108226833D01*
X68469319Y-108482010D01*
X68351874Y-108765548D01*
X68292000Y-109066550D01*
X68292000Y-109373450D01*
X68351874Y-109674452D01*
X68469319Y-109957990D01*
X68639823Y-110213167D01*
X68856833Y-110430177D01*
X69112010Y-110600681D01*
X69395548Y-110718126D01*
X69696550Y-110778000D01*
X70003450Y-110778000D01*
X70304452Y-110718126D01*
X70587990Y-110600681D01*
X70843167Y-110430177D01*
X71060177Y-110213167D01*
X71230681Y-109957990D01*
X71348126Y-109674452D01*
X71408000Y-109373450D01*
X71408000Y-109066550D01*
X71348126Y-108765548D01*
X71230681Y-108482010D01*
X71060177Y-108226833D01*
X70843167Y-108009823D01*
X70753636Y-107950000D01*
X70843167Y-107890177D01*
X71060177Y-107673167D01*
X71230681Y-107417990D01*
X71348126Y-107134452D01*
X71408000Y-106833450D01*
X71408000Y-106526550D01*
X71348126Y-106225548D01*
X71230681Y-105942010D01*
X71060177Y-105686833D01*
X70843167Y-105469823D01*
X70753636Y-105410000D01*
X70843167Y-105350177D01*
X71060177Y-105133167D01*
X71230681Y-104877990D01*
X71348126Y-104594452D01*
X71408000Y-104293450D01*
X71408000Y-103986550D01*
X71348126Y-103685548D01*
X71230681Y-103402010D01*
X71060177Y-103146833D01*
X70843167Y-102929823D01*
X70753636Y-102870000D01*
X70843167Y-102810177D01*
X71060177Y-102593167D01*
X71230681Y-102337990D01*
X71348126Y-102054452D01*
X71408000Y-101753450D01*
X71408000Y-101446550D01*
X71348126Y-101145548D01*
X71230681Y-100862010D01*
X71060177Y-100606833D01*
X70843167Y-100389823D01*
X70753636Y-100330000D01*
X70843167Y-100270177D01*
X71060177Y-100053167D01*
X71230681Y-99797990D01*
X71348126Y-99514452D01*
X71408000Y-99213450D01*
X71408000Y-99011343D01*
X73774208Y-101377552D01*
X73822997Y-101437003D01*
X73882445Y-101485790D01*
X74060232Y-101631697D01*
X74305878Y-101762997D01*
X74330895Y-101776369D01*
X74624579Y-101865457D01*
X74642001Y-101867173D01*
X74642001Y-103154045D01*
X74551406Y-103162968D01*
X74408523Y-103206311D01*
X74276840Y-103276697D01*
X74161420Y-103371420D01*
X74066697Y-103486840D01*
X73996311Y-103618523D01*
X73952968Y-103761406D01*
X73938333Y-103910000D01*
X73938333Y-106910000D01*
X73952968Y-107058594D01*
X73996311Y-107201477D01*
X74066697Y-107333160D01*
X74161420Y-107448580D01*
X74276840Y-107543303D01*
X74408523Y-107613689D01*
X74551406Y-107657032D01*
X74700000Y-107671667D01*
X77700000Y-107671667D01*
X77848594Y-107657032D01*
X77991477Y-107613689D01*
X78123160Y-107543303D01*
X78238580Y-107448580D01*
X78333303Y-107333160D01*
X78403689Y-107201477D01*
X78447032Y-107058594D01*
X78461667Y-106910000D01*
X78461667Y-103910000D01*
X78447032Y-103761406D01*
X78403689Y-103618523D01*
X78333303Y-103486840D01*
X78238580Y-103371420D01*
X78123160Y-103276697D01*
X77991477Y-103206311D01*
X77848594Y-103162968D01*
X77758000Y-103154045D01*
X77758000Y-102245344D01*
X78517555Y-101485790D01*
X78577003Y-101437003D01*
X78625801Y-101377542D01*
X80655345Y-99348000D01*
X83174657Y-99348000D01*
X86018333Y-102191678D01*
X86018333Y-103720000D01*
X86032968Y-103868594D01*
X86076311Y-104011477D01*
X86146697Y-104143160D01*
X86241420Y-104258580D01*
X86356840Y-104353303D01*
X86488523Y-104423689D01*
X86631406Y-104467032D01*
X86780000Y-104481667D01*
X88480000Y-104481667D01*
X88612000Y-104468666D01*
X88612001Y-109844654D01*
X86984657Y-111472000D01*
X62875345Y-111472000D01*
X61248000Y-109844657D01*
X61248000Y-105486532D01*
X61255538Y-105409999D01*
X61233629Y-105187553D01*
X61225457Y-105104579D01*
X61136369Y-104810895D01*
X61097996Y-104739105D01*
X60991697Y-104540233D01*
X60845790Y-104362445D01*
X60797003Y-104302997D01*
X60737552Y-104254207D01*
X59575800Y-103092457D01*
X59527003Y-103032997D01*
X59289766Y-102838303D01*
X59019105Y-102693631D01*
X58725421Y-102604543D01*
X58496535Y-102582000D01*
X58496533Y-102582000D01*
X58420000Y-102574462D01*
X58343467Y-102582000D01*
X55827639Y-102582000D01*
X55990681Y-102337990D01*
X56108126Y-102054452D01*
X56168000Y-101753450D01*
X56168000Y-101446550D01*
X56108126Y-101145548D01*
X55990681Y-100862010D01*
X55820177Y-100606833D01*
X55603167Y-100389823D01*
X55513636Y-100330000D01*
X55603167Y-100270177D01*
X55820177Y-100053167D01*
X55990681Y-99797990D01*
X56108126Y-99514452D01*
X56168000Y-99213450D01*
X56168000Y-98906550D01*
X56108126Y-98605548D01*
X55990681Y-98322010D01*
X55820177Y-98066833D01*
X55603167Y-97849823D01*
X55513636Y-97790000D01*
X55603167Y-97730177D01*
X55820177Y-97513167D01*
X55990681Y-97257990D01*
X56108126Y-96974452D01*
X56168000Y-96673450D01*
X56168000Y-96366550D01*
X56108126Y-96065548D01*
X55990681Y-95782010D01*
X55820177Y-95526833D01*
X55603167Y-95309823D01*
X55513636Y-95250000D01*
X55603167Y-95190177D01*
X55820177Y-94973167D01*
X55990681Y-94717990D01*
X56108126Y-94434452D01*
X56168000Y-94133450D01*
X56168000Y-93826550D01*
X56108126Y-93525548D01*
X55990681Y-93242010D01*
X55820177Y-92986833D01*
X55603167Y-92769823D01*
X55516256Y-92711751D01*
X55539218Y-92692907D01*
X55603167Y-92650177D01*
X55657547Y-92595797D01*
X55717003Y-92547003D01*
X55765797Y-92487547D01*
X55820177Y-92433167D01*
X55862907Y-92369218D01*
X55911697Y-92309766D01*
X55947951Y-92241940D01*
X55990681Y-92177990D01*
X56020113Y-92106936D01*
X56056369Y-92039105D01*
X56078696Y-91965502D01*
X56108126Y-91894452D01*
X56123130Y-91819024D01*
X56145457Y-91745421D01*
X56152995Y-91668882D01*
X56168000Y-91593450D01*
X56168000Y-91516535D01*
X56175538Y-91440000D01*
X56168000Y-91363465D01*
X56168000Y-91286550D01*
X56152995Y-91211118D01*
X56145457Y-91134579D01*
X56123130Y-91060976D01*
X56108126Y-90985548D01*
X56078696Y-90914498D01*
X56056369Y-90840895D01*
X56020113Y-90773064D01*
X55990681Y-90702010D01*
X55947951Y-90638060D01*
X55911697Y-90570234D01*
X55862907Y-90510782D01*
X55820177Y-90446833D01*
X55765797Y-90392453D01*
X55717003Y-90332997D01*
X55657547Y-90284203D01*
X55603167Y-90229823D01*
X55539218Y-90187093D01*
X55516256Y-90168249D01*
X55603167Y-90110177D01*
X55820177Y-89893167D01*
X55990681Y-89637990D01*
X56108126Y-89354452D01*
X56168000Y-89053450D01*
X56168000Y-88746550D01*
X56108126Y-88445548D01*
X55990681Y-88162010D01*
X55820177Y-87906833D01*
X55603167Y-87689823D01*
X55513636Y-87630000D01*
X55603167Y-87570177D01*
X55820177Y-87353167D01*
X55990681Y-87097990D01*
X56108126Y-86814452D01*
X56168000Y-86513450D01*
X56168000Y-86206550D01*
X56108126Y-85905548D01*
X55990681Y-85622010D01*
X55820177Y-85366833D01*
X55603167Y-85149823D01*
X55513636Y-85090000D01*
X55603167Y-85030177D01*
X55820177Y-84813167D01*
X55990681Y-84557990D01*
X56108126Y-84274452D01*
X56168000Y-83973450D01*
X56168000Y-83666550D01*
X56108126Y-83365548D01*
X55990681Y-83082010D01*
X55820177Y-82826833D01*
X55603167Y-82609823D01*
X55347990Y-82439319D01*
X55064452Y-82321874D01*
X54763450Y-82262000D01*
X54456550Y-82262000D01*
X54155548Y-82321874D01*
X53872010Y-82439319D01*
X53616833Y-82609823D01*
X53399823Y-82826833D01*
X53229319Y-83082010D01*
X53111874Y-83365548D01*
X53052000Y-83666550D01*
X53052000Y-83973450D01*
X53111874Y-84274452D01*
X53229319Y-84557990D01*
X53399823Y-84813167D01*
X53616833Y-85030177D01*
X53706364Y-85090000D01*
X53616833Y-85149823D01*
X53399823Y-85366833D01*
X53229319Y-85622010D01*
X53111874Y-85905548D01*
X53052000Y-86206550D01*
X53052000Y-86513450D01*
X53111874Y-86814452D01*
X53229319Y-87097990D01*
X53399823Y-87353167D01*
X53616833Y-87570177D01*
X53706364Y-87630000D01*
X53616833Y-87689823D01*
X53399823Y-87906833D01*
X53229319Y-88162010D01*
X53111874Y-88445548D01*
X53052000Y-88746550D01*
X53052000Y-89053450D01*
X53111874Y-89354452D01*
X53229319Y-89637990D01*
X53392962Y-89882899D01*
X53173209Y-89904543D01*
X52879525Y-89993631D01*
X52776697Y-90048594D01*
X52608863Y-90138303D01*
X52497346Y-90229823D01*
X52371627Y-90332997D01*
X52322837Y-90392448D01*
X51022457Y-91692829D01*
X50962997Y-91741627D01*
X50813923Y-91923276D01*
X50768303Y-91978864D01*
X50697731Y-92110895D01*
X50623631Y-92249526D01*
X50534543Y-92543210D01*
X50524008Y-92650177D01*
X50504462Y-92848630D01*
X42718000Y-92848630D01*
X42718000Y-72157757D01*
X44632000Y-72157757D01*
X44632000Y-72622243D01*
X44722617Y-73077803D01*
X44900368Y-73506932D01*
X45158422Y-73893137D01*
X45486863Y-74221578D01*
X45873068Y-74479632D01*
X46302197Y-74657383D01*
X46757757Y-74748000D01*
X47222243Y-74748000D01*
X47677803Y-74657383D01*
X48106932Y-74479632D01*
X48493137Y-74221578D01*
X48821578Y-73893137D01*
X49079632Y-73506932D01*
X49257383Y-73077803D01*
X49300706Y-72860000D01*
X53048333Y-72860000D01*
X53048333Y-74460000D01*
X53062968Y-74608594D01*
X53106311Y-74751477D01*
X53176697Y-74883160D01*
X53271420Y-74998580D01*
X53386840Y-75093303D01*
X53469285Y-75137371D01*
X53399823Y-75206833D01*
X53229319Y-75462010D01*
X53111874Y-75745548D01*
X53052000Y-76046550D01*
X53052000Y-76353450D01*
X53111874Y-76654452D01*
X53229319Y-76937990D01*
X53399823Y-77193167D01*
X53616833Y-77410177D01*
X53706364Y-77470000D01*
X53616833Y-77529823D01*
X53399823Y-77746833D01*
X53229319Y-78002010D01*
X53111874Y-78285548D01*
X53052000Y-78586550D01*
X53052000Y-78893450D01*
X53111874Y-79194452D01*
X53229319Y-79477990D01*
X53399823Y-79733167D01*
X53616833Y-79950177D01*
X53872010Y-80120681D01*
X54155548Y-80238126D01*
X54456550Y-80298000D01*
X54763450Y-80298000D01*
X55064452Y-80238126D01*
X55347990Y-80120681D01*
X55603167Y-79950177D01*
X55820177Y-79733167D01*
X55990681Y-79477990D01*
X56108126Y-79194452D01*
X56168000Y-78893450D01*
X56168000Y-78586550D01*
X56108126Y-78285548D01*
X55990681Y-78002010D01*
X55820177Y-77746833D01*
X55603167Y-77529823D01*
X55513636Y-77470000D01*
X55603167Y-77410177D01*
X55820177Y-77193167D01*
X55990681Y-76937990D01*
X56108126Y-76654452D01*
X56168000Y-76353450D01*
X56168000Y-76046550D01*
X56108126Y-75745548D01*
X55990681Y-75462010D01*
X55820177Y-75206833D01*
X55750715Y-75137371D01*
X55833160Y-75093303D01*
X55948580Y-74998580D01*
X56043303Y-74883160D01*
X56113689Y-74751477D01*
X56157032Y-74608594D01*
X56171667Y-74460000D01*
X56171667Y-72860000D01*
X56157032Y-72711406D01*
X56113689Y-72568523D01*
X56043303Y-72436840D01*
X55948580Y-72321420D01*
X55833160Y-72226697D01*
X55701477Y-72156311D01*
X55558594Y-72112968D01*
X55410000Y-72098333D01*
X53810000Y-72098333D01*
X53661406Y-72112968D01*
X53518523Y-72156311D01*
X53386840Y-72226697D01*
X53271420Y-72321420D01*
X53176697Y-72436840D01*
X53106311Y-72568523D01*
X53062968Y-72711406D01*
X53048333Y-72860000D01*
X49300706Y-72860000D01*
X49348000Y-72622243D01*
X49348000Y-72157757D01*
X49257383Y-71702197D01*
X49079632Y-71273068D01*
X48977356Y-71120000D01*
X64474462Y-71120000D01*
X64482000Y-71196533D01*
X64482000Y-72313467D01*
X64474462Y-72390000D01*
X64482000Y-72466533D01*
X64482000Y-72466535D01*
X64504543Y-72695421D01*
X64593631Y-72989105D01*
X64593632Y-72989106D01*
X64738303Y-73259766D01*
X64810903Y-73348229D01*
X64932998Y-73497003D01*
X64992453Y-73545796D01*
X66154207Y-74707552D01*
X66202997Y-74767003D01*
X66262445Y-74815790D01*
X66440233Y-74961697D01*
X66594604Y-75044210D01*
X66710895Y-75106369D01*
X67004579Y-75195457D01*
X67233465Y-75218000D01*
X67233466Y-75218000D01*
X67309999Y-75225538D01*
X67386532Y-75218000D01*
X70003450Y-75218000D01*
X70078883Y-75202995D01*
X70155421Y-75195457D01*
X70229024Y-75173130D01*
X70304452Y-75158126D01*
X70375502Y-75128696D01*
X70449105Y-75106369D01*
X70516936Y-75070113D01*
X70587990Y-75040681D01*
X70651940Y-74997951D01*
X70719766Y-74961697D01*
X70779218Y-74912907D01*
X70843167Y-74870177D01*
X70897547Y-74815797D01*
X70957003Y-74767003D01*
X71005797Y-74707547D01*
X71060177Y-74653167D01*
X71102907Y-74589218D01*
X71151697Y-74529766D01*
X71187951Y-74461940D01*
X71230681Y-74397990D01*
X71260113Y-74326936D01*
X71296369Y-74259105D01*
X71318696Y-74185502D01*
X71348126Y-74114452D01*
X71363130Y-74039024D01*
X71385457Y-73965421D01*
X71392995Y-73888882D01*
X71408000Y-73813450D01*
X71408000Y-73736534D01*
X71415538Y-73660000D01*
X71408000Y-73583465D01*
X71408000Y-73506550D01*
X71392995Y-73431118D01*
X71385457Y-73354579D01*
X71363130Y-73280976D01*
X71348126Y-73205548D01*
X71318696Y-73134498D01*
X71296369Y-73060895D01*
X71260113Y-72993064D01*
X71230681Y-72922010D01*
X71187951Y-72858060D01*
X71151697Y-72790234D01*
X71102907Y-72730782D01*
X71060177Y-72666833D01*
X71005797Y-72612453D01*
X70957003Y-72552997D01*
X70897547Y-72504203D01*
X70843167Y-72449823D01*
X70779218Y-72407093D01*
X70719766Y-72358303D01*
X70651940Y-72322049D01*
X70587990Y-72279319D01*
X70516936Y-72249887D01*
X70449105Y-72213631D01*
X70375502Y-72191304D01*
X70304452Y-72161874D01*
X70229024Y-72146870D01*
X70155421Y-72124543D01*
X70078883Y-72117005D01*
X70003450Y-72102000D01*
X67955344Y-72102000D01*
X67608344Y-71755000D01*
X67955344Y-71408000D01*
X79364656Y-71408000D01*
X79439285Y-71482629D01*
X79356840Y-71526697D01*
X79241420Y-71621420D01*
X79146697Y-71736840D01*
X79076311Y-71868523D01*
X79032968Y-72011406D01*
X79018333Y-72160000D01*
X79018333Y-75160000D01*
X79032968Y-75308594D01*
X79076311Y-75451477D01*
X79146697Y-75583160D01*
X79241420Y-75698580D01*
X79356840Y-75793303D01*
X79488523Y-75863689D01*
X79631406Y-75907032D01*
X79780000Y-75921667D01*
X82780000Y-75921667D01*
X82928594Y-75907032D01*
X83071477Y-75863689D01*
X83203160Y-75793303D01*
X83318580Y-75698580D01*
X83413303Y-75583160D01*
X83483689Y-75451477D01*
X83527032Y-75308594D01*
X83541667Y-75160000D01*
X83541667Y-72160000D01*
X83527032Y-72011406D01*
X83483689Y-71868523D01*
X83413303Y-71736840D01*
X83318580Y-71621420D01*
X83203160Y-71526697D01*
X83071477Y-71456311D01*
X82928594Y-71412968D01*
X82838000Y-71404045D01*
X82838000Y-71196532D01*
X82845538Y-71119999D01*
X82822576Y-70886863D01*
X82815457Y-70814579D01*
X82726369Y-70520895D01*
X82726368Y-70520893D01*
X82581697Y-70250233D01*
X82435790Y-70072445D01*
X82387003Y-70012997D01*
X82327552Y-69964207D01*
X81165800Y-68802457D01*
X81117003Y-68742997D01*
X80879766Y-68548303D01*
X80609105Y-68403631D01*
X80315421Y-68314543D01*
X80086535Y-68292000D01*
X80086533Y-68292000D01*
X80010000Y-68284462D01*
X79933467Y-68292000D01*
X67386532Y-68292000D01*
X67309999Y-68284462D01*
X67233466Y-68292000D01*
X67233465Y-68292000D01*
X67004579Y-68314543D01*
X66710895Y-68403631D01*
X66710893Y-68403632D01*
X66440233Y-68548303D01*
X66317525Y-68649007D01*
X66202997Y-68742997D01*
X66154210Y-68802445D01*
X64992457Y-69964200D01*
X64932997Y-70012997D01*
X64783923Y-70194646D01*
X64738303Y-70250234D01*
X64711506Y-70300368D01*
X64593631Y-70520896D01*
X64504543Y-70814580D01*
X64496371Y-70897555D01*
X64474462Y-71120000D01*
X48977356Y-71120000D01*
X48821578Y-70886863D01*
X48493137Y-70558422D01*
X48106932Y-70300368D01*
X47677803Y-70122617D01*
X47222243Y-70032000D01*
X46757757Y-70032000D01*
X46302197Y-70122617D01*
X45873068Y-70300368D01*
X45486863Y-70558422D01*
X45158422Y-70886863D01*
X44900368Y-71273068D01*
X44722617Y-71702197D01*
X44632000Y-72157757D01*
X42718000Y-72157757D01*
X42718000Y-66848000D01*
X107142000Y-66848000D01*
X107142001Y-118572000D01*
G37*
X107142001Y-118572000D02*
X42718000Y-118572000D01*
X42718000Y-111527757D01*
X44632000Y-111527757D01*
X44632000Y-111992243D01*
X44722617Y-112447803D01*
X44900368Y-112876932D01*
X45158422Y-113263137D01*
X45486863Y-113591578D01*
X45873068Y-113849632D01*
X46302197Y-114027383D01*
X46757757Y-114118000D01*
X47222243Y-114118000D01*
X47677803Y-114027383D01*
X48106932Y-113849632D01*
X48493137Y-113591578D01*
X48821578Y-113263137D01*
X49079632Y-112876932D01*
X49257383Y-112447803D01*
X49348000Y-111992243D01*
X49348000Y-111527757D01*
X49257383Y-111072197D01*
X49079632Y-110643068D01*
X48821578Y-110256863D01*
X48493137Y-109928422D01*
X48106932Y-109670368D01*
X47677803Y-109492617D01*
X47222243Y-109402000D01*
X46757757Y-109402000D01*
X46302197Y-109492617D01*
X45873068Y-109670368D01*
X45486863Y-109928422D01*
X45158422Y-110256863D01*
X44900368Y-110643068D01*
X44722617Y-111072197D01*
X44632000Y-111527757D01*
X42718000Y-111527757D01*
X42718000Y-92848630D01*
X50504462Y-92848630D01*
X50512000Y-92925163D01*
X50512001Y-112953457D01*
X50504462Y-113030000D01*
X50534544Y-113335421D01*
X50623632Y-113629106D01*
X50768303Y-113899766D01*
X50840903Y-113988229D01*
X50962998Y-114137003D01*
X51022453Y-114185796D01*
X53454208Y-116617552D01*
X53502997Y-116677003D01*
X53562445Y-116725790D01*
X53740232Y-116871697D01*
X54010893Y-117016368D01*
X54010895Y-117016369D01*
X54304579Y-117105457D01*
X54533465Y-117128000D01*
X54533469Y-117128000D01*
X54609999Y-117135538D01*
X54686530Y-117128000D01*
X90093467Y-117128000D01*
X90170000Y-117135538D01*
X90246533Y-117128000D01*
X90246535Y-117128000D01*
X90475421Y-117105457D01*
X90769105Y-117016369D01*
X91039766Y-116871697D01*
X91277003Y-116677003D01*
X91325801Y-116617542D01*
X96415586Y-111527757D01*
X100512000Y-111527757D01*
X100512000Y-111992243D01*
X100602617Y-112447803D01*
X100780368Y-112876932D01*
X101038422Y-113263137D01*
X101366863Y-113591578D01*
X101753068Y-113849632D01*
X102182197Y-114027383D01*
X102637757Y-114118000D01*
X103102243Y-114118000D01*
X103557803Y-114027383D01*
X103986932Y-113849632D01*
X104373137Y-113591578D01*
X104701578Y-113263137D01*
X104959632Y-112876932D01*
X105137383Y-112447803D01*
X105228000Y-111992243D01*
X105228000Y-111527757D01*
X105137383Y-111072197D01*
X104959632Y-110643068D01*
X104701578Y-110256863D01*
X104373137Y-109928422D01*
X103986932Y-109670368D01*
X103557803Y-109492617D01*
X103102243Y-109402000D01*
X102637757Y-109402000D01*
X102182197Y-109492617D01*
X101753068Y-109670368D01*
X101366863Y-109928422D01*
X101038422Y-110256863D01*
X100780368Y-110643068D01*
X100602617Y-111072197D01*
X100512000Y-111527757D01*
X96415586Y-111527757D01*
X101377547Y-106565797D01*
X101437003Y-106517003D01*
X101572116Y-106352367D01*
X101631697Y-106279767D01*
X101776368Y-106009106D01*
X101776369Y-106009105D01*
X101865457Y-105715421D01*
X101888000Y-105486535D01*
X101888000Y-105486533D01*
X101895538Y-105410000D01*
X101888000Y-105333465D01*
X101888000Y-94056535D01*
X101895538Y-93980000D01*
X101888000Y-93903465D01*
X101888000Y-93826550D01*
X101872995Y-93751118D01*
X101865457Y-93674579D01*
X101843130Y-93600976D01*
X101828126Y-93525548D01*
X101798696Y-93454498D01*
X101776369Y-93380895D01*
X101740113Y-93313064D01*
X101710681Y-93242010D01*
X101667951Y-93178060D01*
X101631697Y-93110234D01*
X101582907Y-93050782D01*
X101540177Y-92986833D01*
X101485797Y-92932453D01*
X101437003Y-92872997D01*
X101377547Y-92824203D01*
X101323167Y-92769823D01*
X101259218Y-92727093D01*
X101199766Y-92678303D01*
X101131940Y-92642049D01*
X101067990Y-92599319D01*
X100996936Y-92569887D01*
X100929105Y-92533631D01*
X100855502Y-92511304D01*
X100784452Y-92481874D01*
X100709024Y-92466870D01*
X100635421Y-92444543D01*
X100558883Y-92437005D01*
X100483450Y-92422000D01*
X100406535Y-92422000D01*
X100330000Y-92414462D01*
X100253465Y-92422000D01*
X98435344Y-92422000D01*
X97675800Y-91662457D01*
X97627003Y-91602997D01*
X97389766Y-91408303D01*
X97119105Y-91263631D01*
X96825421Y-91174543D01*
X96596535Y-91152000D01*
X96596533Y-91152000D01*
X96520000Y-91144462D01*
X96443467Y-91152000D01*
X80298000Y-91152000D01*
X80298000Y-90357038D01*
X80299309Y-90355444D01*
X80325100Y-90376610D01*
X80622254Y-90535442D01*
X80944684Y-90633250D01*
X81280000Y-90666276D01*
X81615317Y-90633250D01*
X81937747Y-90535442D01*
X82234901Y-90376610D01*
X82495358Y-90162858D01*
X82709110Y-89902401D01*
X82867942Y-89605246D01*
X82965750Y-89282816D01*
X82990500Y-89031526D01*
X82990500Y-88768473D01*
X82965750Y-88517183D01*
X82867942Y-88194753D01*
X82838000Y-88138735D01*
X82838000Y-87005344D01*
X83195344Y-86648000D01*
X90093467Y-86648000D01*
X90170000Y-86655538D01*
X90246533Y-86648000D01*
X90246535Y-86648000D01*
X90475421Y-86625457D01*
X90769105Y-86536369D01*
X91039766Y-86391697D01*
X91277003Y-86197003D01*
X91325800Y-86137543D01*
X92487553Y-84975792D01*
X92547003Y-84927003D01*
X92663887Y-84784579D01*
X92741697Y-84689767D01*
X92886033Y-84419734D01*
X92943137Y-84381578D01*
X93216715Y-84108000D01*
X96443467Y-84108000D01*
X96520000Y-84115538D01*
X96596533Y-84108000D01*
X96596535Y-84108000D01*
X96825421Y-84085457D01*
X97119105Y-83996369D01*
X97389766Y-83851697D01*
X97627003Y-83657003D01*
X97675800Y-83597543D01*
X98837555Y-82435790D01*
X98897003Y-82387003D01*
X99013887Y-82244579D01*
X99091697Y-82149767D01*
X99236368Y-81879107D01*
X99241498Y-81862197D01*
X99325457Y-81585421D01*
X99348000Y-81356535D01*
X99348000Y-81356534D01*
X99355538Y-81280001D01*
X99348000Y-81203465D01*
X99348000Y-72157757D01*
X100512000Y-72157757D01*
X100512000Y-72622243D01*
X100602617Y-73077803D01*
X100780368Y-73506932D01*
X101038422Y-73893137D01*
X101366863Y-74221578D01*
X101753068Y-74479632D01*
X102182197Y-74657383D01*
X102637757Y-74748000D01*
X103102243Y-74748000D01*
X103557803Y-74657383D01*
X103986932Y-74479632D01*
X104373137Y-74221578D01*
X104701578Y-73893137D01*
X104959632Y-73506932D01*
X105137383Y-73077803D01*
X105228000Y-72622243D01*
X105228000Y-72157757D01*
X105137383Y-71702197D01*
X104959632Y-71273068D01*
X104701578Y-70886863D01*
X104373137Y-70558422D01*
X103986932Y-70300368D01*
X103557803Y-70122617D01*
X103102243Y-70032000D01*
X102637757Y-70032000D01*
X102182197Y-70122617D01*
X101753068Y-70300368D01*
X101366863Y-70558422D01*
X101038422Y-70886863D01*
X100780368Y-71273068D01*
X100602617Y-71702197D01*
X100512000Y-72157757D01*
X99348000Y-72157757D01*
X99348000Y-69926532D01*
X99355538Y-69849999D01*
X99333629Y-69627553D01*
X99325457Y-69544579D01*
X99236369Y-69250895D01*
X99236368Y-69250893D01*
X99091697Y-68980233D01*
X98945790Y-68802445D01*
X98897003Y-68742997D01*
X98837552Y-68694207D01*
X97675800Y-67532457D01*
X97627003Y-67472997D01*
X97389766Y-67278303D01*
X97119105Y-67133631D01*
X96825421Y-67044543D01*
X96596535Y-67022000D01*
X96596533Y-67022000D01*
X96520000Y-67014462D01*
X96443467Y-67022000D01*
X88976532Y-67022000D01*
X88899999Y-67014462D01*
X88823466Y-67022000D01*
X88823465Y-67022000D01*
X88594579Y-67044543D01*
X88300895Y-67133631D01*
X88300893Y-67133632D01*
X88030233Y-67278303D01*
X87907525Y-67379007D01*
X87792997Y-67472997D01*
X87744207Y-67532448D01*
X86582457Y-68694200D01*
X86522997Y-68742997D01*
X86373923Y-68924646D01*
X86328303Y-68980234D01*
X86222004Y-69179105D01*
X86183631Y-69250896D01*
X86094543Y-69544580D01*
X86086371Y-69627555D01*
X86064462Y-69850000D01*
X86072000Y-69926533D01*
X86072000Y-72024706D01*
X85876097Y-72220609D01*
X85628987Y-72590436D01*
X85458774Y-73001366D01*
X85372000Y-73437606D01*
X85372000Y-73882394D01*
X85458774Y-74318634D01*
X85628987Y-74729564D01*
X85876097Y-75099391D01*
X86190609Y-75413903D01*
X86560436Y-75661013D01*
X86971366Y-75831226D01*
X87407606Y-75918000D01*
X87852394Y-75918000D01*
X88288634Y-75831226D01*
X88699564Y-75661013D01*
X89069391Y-75413903D01*
X89383903Y-75099391D01*
X89631013Y-74729564D01*
X89801226Y-74318634D01*
X89888000Y-73882394D01*
X89888000Y-73437606D01*
X89801226Y-73001366D01*
X89631013Y-72590436D01*
X89383903Y-72220609D01*
X89188000Y-72024706D01*
X89188000Y-70495344D01*
X89545344Y-70138000D01*
X95874656Y-70138000D01*
X96232001Y-70495345D01*
X96232000Y-80634656D01*
X95874656Y-80992000D01*
X93216715Y-80992000D01*
X92943137Y-80718422D01*
X92556932Y-80460368D01*
X92127803Y-80282617D01*
X91672243Y-80192000D01*
X91207757Y-80192000D01*
X90752197Y-80282617D01*
X90323068Y-80460368D01*
X89936863Y-80718422D01*
X89608422Y-81046863D01*
X89350368Y-81433068D01*
X89172617Y-81862197D01*
X89082000Y-82317757D01*
X89082000Y-82782243D01*
X89172617Y-83237803D01*
X89294477Y-83532000D01*
X82626532Y-83532000D01*
X82549999Y-83524462D01*
X82473466Y-83532000D01*
X82473465Y-83532000D01*
X82244579Y-83554543D01*
X81950895Y-83643631D01*
X81950893Y-83643632D01*
X81680233Y-83788303D01*
X81557525Y-83889007D01*
X81442997Y-83982997D01*
X81394208Y-84042447D01*
X80232453Y-85204204D01*
X80172998Y-85252997D01*
X80056114Y-85395422D01*
X79978303Y-85490234D01*
X79833632Y-85760894D01*
X79744544Y-86054579D01*
X79714462Y-86360000D01*
X79722001Y-86436543D01*
X79722001Y-87141239D01*
X79692500Y-87138333D01*
X77787500Y-87138333D01*
X77638906Y-87152968D01*
X77496023Y-87196311D01*
X77364340Y-87266697D01*
X77248920Y-87361420D01*
X77154197Y-87476840D01*
X77083811Y-87608523D01*
X77040468Y-87751406D01*
X77025833Y-87900000D01*
X77025833Y-89900000D01*
X77040468Y-90048594D01*
X77083811Y-90191477D01*
X77154197Y-90323160D01*
X77182001Y-90357039D01*
X77182000Y-92633464D01*
X77174462Y-92710000D01*
X77204543Y-93015421D01*
X77293631Y-93309105D01*
X77438303Y-93579766D01*
X77552073Y-93718396D01*
X77632997Y-93817003D01*
X77870234Y-94011697D01*
X78140895Y-94156369D01*
X78434579Y-94245457D01*
X78740000Y-94275538D01*
X78816535Y-94268000D01*
X95874656Y-94268000D01*
X96634207Y-95027552D01*
X96682997Y-95087003D01*
X96742445Y-95135790D01*
X96920233Y-95281697D01*
X97190893Y-95426368D01*
X97190895Y-95426369D01*
X97484579Y-95515457D01*
X97713465Y-95538000D01*
X97713466Y-95538000D01*
X97789999Y-95545538D01*
X97866532Y-95538000D01*
X98772000Y-95538000D01*
X98772001Y-104764655D01*
X89524657Y-114012000D01*
X88851343Y-114012000D01*
X91217555Y-111645790D01*
X91277003Y-111597003D01*
X91325801Y-111537542D01*
X93757552Y-109105792D01*
X93817003Y-109057003D01*
X93925776Y-108924462D01*
X94011697Y-108819768D01*
X94156368Y-108549107D01*
X94156369Y-108549105D01*
X94245457Y-108255421D01*
X94268000Y-108026535D01*
X94268000Y-108026531D01*
X94275538Y-107950001D01*
X94268000Y-107873470D01*
X94268000Y-103279739D01*
X94318000Y-103028374D01*
X94318000Y-102711626D01*
X94256205Y-102400964D01*
X94134991Y-102108327D01*
X93959015Y-101844960D01*
X93735040Y-101620985D01*
X93471673Y-101445009D01*
X93179036Y-101323795D01*
X92868374Y-101262000D01*
X92551626Y-101262000D01*
X92240964Y-101323795D01*
X91948327Y-101445009D01*
X91684960Y-101620985D01*
X91460985Y-101844960D01*
X91440000Y-101876366D01*
X91419015Y-101844960D01*
X91195040Y-101620985D01*
X90931673Y-101445009D01*
X90639036Y-101323795D01*
X90328374Y-101262000D01*
X90011626Y-101262000D01*
X89700964Y-101323795D01*
X89408327Y-101445009D01*
X89194354Y-101587981D01*
X89183859Y-101481420D01*
X89165457Y-101294579D01*
X89076369Y-101000895D01*
X89002133Y-100862010D01*
X88931697Y-100730233D01*
X88813109Y-100585733D01*
X88737003Y-100492997D01*
X88677553Y-100444208D01*
X87581344Y-99348000D01*
X89078333Y-99348000D01*
X89078333Y-99390000D01*
X89092968Y-99538594D01*
X89136311Y-99681477D01*
X89206697Y-99813160D01*
X89301420Y-99928580D01*
X89416840Y-100023303D01*
X89548523Y-100093689D01*
X89691406Y-100137032D01*
X89840000Y-100151667D01*
X93040000Y-100151667D01*
X93188594Y-100137032D01*
X93331477Y-100093689D01*
X93463160Y-100023303D01*
X93578580Y-99928580D01*
X93673303Y-99813160D01*
X93743689Y-99681477D01*
X93787032Y-99538594D01*
X93801667Y-99390000D01*
X93801667Y-96190000D01*
X93787032Y-96041406D01*
X93743689Y-95898523D01*
X93673303Y-95766840D01*
X93578580Y-95651420D01*
X93463160Y-95556697D01*
X93331477Y-95486311D01*
X93188594Y-95442968D01*
X93040000Y-95428333D01*
X89840000Y-95428333D01*
X89691406Y-95442968D01*
X89548523Y-95486311D01*
X89416840Y-95556697D01*
X89301420Y-95651420D01*
X89206697Y-95766840D01*
X89136311Y-95898523D01*
X89092968Y-96041406D01*
X89078333Y-96190000D01*
X89078333Y-96232000D01*
X83896533Y-96232000D01*
X83820000Y-96224462D01*
X83743467Y-96232000D01*
X80086530Y-96232000D01*
X80009999Y-96224462D01*
X79933469Y-96232000D01*
X79933465Y-96232000D01*
X79704579Y-96254543D01*
X79410895Y-96343631D01*
X79410893Y-96343632D01*
X79140232Y-96488303D01*
X78995033Y-96607466D01*
X78902997Y-96682997D01*
X78854208Y-96742448D01*
X76824657Y-98772000D01*
X75575345Y-98772000D01*
X73948000Y-97144657D01*
X73948000Y-82817173D01*
X73965421Y-82815457D01*
X74259105Y-82726369D01*
X74529766Y-82581697D01*
X74767003Y-82387003D01*
X74815801Y-82327542D01*
X76845345Y-80298000D01*
X90093467Y-80298000D01*
X90170000Y-80305538D01*
X90246533Y-80298000D01*
X90246535Y-80298000D01*
X90475421Y-80275457D01*
X90769105Y-80186369D01*
X91039766Y-80041697D01*
X91277003Y-79847003D01*
X91325801Y-79787542D01*
X93757552Y-77355792D01*
X93817003Y-77307003D01*
X93925776Y-77174462D01*
X94011697Y-77069768D01*
X94156368Y-76799107D01*
X94156369Y-76799105D01*
X94245457Y-76505421D01*
X94268000Y-76276535D01*
X94268000Y-76276531D01*
X94275538Y-76200001D01*
X94268000Y-76123470D01*
X94268000Y-75915955D01*
X94358594Y-75907032D01*
X94501477Y-75863689D01*
X94633160Y-75793303D01*
X94748580Y-75698580D01*
X94843303Y-75583160D01*
X94913689Y-75451477D01*
X94957032Y-75308594D01*
X94971667Y-75160000D01*
X94971667Y-72160000D01*
X94957032Y-72011406D01*
X94913689Y-71868523D01*
X94843303Y-71736840D01*
X94748580Y-71621420D01*
X94633160Y-71526697D01*
X94501477Y-71456311D01*
X94358594Y-71412968D01*
X94210000Y-71398333D01*
X91210000Y-71398333D01*
X91061406Y-71412968D01*
X90918523Y-71456311D01*
X90786840Y-71526697D01*
X90671420Y-71621420D01*
X90576697Y-71736840D01*
X90506311Y-71868523D01*
X90462968Y-72011406D01*
X90448333Y-72160000D01*
X90448333Y-75160000D01*
X90462968Y-75308594D01*
X90506311Y-75451477D01*
X90576697Y-75583160D01*
X90671420Y-75698580D01*
X90786840Y-75793303D01*
X90869285Y-75837371D01*
X89524657Y-77182000D01*
X76276530Y-77182000D01*
X76199999Y-77174462D01*
X76123469Y-77182000D01*
X76123465Y-77182000D01*
X75894579Y-77204543D01*
X75600895Y-77293631D01*
X75600893Y-77293632D01*
X75330232Y-77438303D01*
X75185033Y-77557466D01*
X75092997Y-77632997D01*
X75044208Y-77692447D01*
X73014657Y-79722000D01*
X72466535Y-79722000D01*
X72390000Y-79714462D01*
X72313465Y-79722000D01*
X71067639Y-79722000D01*
X71230681Y-79477990D01*
X71348126Y-79194452D01*
X71408000Y-78893450D01*
X71408000Y-78586550D01*
X71348126Y-78285548D01*
X71230681Y-78002010D01*
X71060177Y-77746833D01*
X70843167Y-77529823D01*
X70587990Y-77359319D01*
X70304452Y-77241874D01*
X70003450Y-77182000D01*
X69696550Y-77182000D01*
X69395548Y-77241874D01*
X69112010Y-77359319D01*
X68856833Y-77529823D01*
X68639823Y-77746833D01*
X68469319Y-78002010D01*
X68351874Y-78285548D01*
X68292000Y-78586550D01*
X68292000Y-78893450D01*
X68351874Y-79194452D01*
X68469319Y-79477990D01*
X68639823Y-79733167D01*
X68856833Y-79950177D01*
X68943744Y-80008249D01*
X68920782Y-80027093D01*
X68856833Y-80069823D01*
X68802453Y-80124203D01*
X68742997Y-80172997D01*
X68694203Y-80232453D01*
X68639823Y-80286833D01*
X68597093Y-80350782D01*
X68548303Y-80410234D01*
X68512049Y-80478060D01*
X68469319Y-80542010D01*
X68439887Y-80613064D01*
X68403631Y-80680895D01*
X68381304Y-80754498D01*
X68351874Y-80825548D01*
X68336870Y-80900976D01*
X68314543Y-80974579D01*
X68307005Y-81051118D01*
X68292000Y-81126550D01*
X68292000Y-81203465D01*
X68284462Y-81280000D01*
X68292000Y-81356534D01*
X68292000Y-81433450D01*
X68307005Y-81508882D01*
X68314543Y-81585421D01*
X68336870Y-81659024D01*
X68351874Y-81734452D01*
X68381304Y-81805502D01*
X68403631Y-81879105D01*
X68439887Y-81946936D01*
X68469319Y-82017990D01*
X68512049Y-82081940D01*
X68548303Y-82149766D01*
X68597093Y-82209218D01*
X68639823Y-82273167D01*
X68694203Y-82327547D01*
X68742997Y-82387003D01*
X68802453Y-82435797D01*
X68856833Y-82490177D01*
X68920782Y-82532907D01*
X68943744Y-82551751D01*
X68856833Y-82609823D01*
X68639823Y-82826833D01*
X68469319Y-83082010D01*
X68351874Y-83365548D01*
X68292000Y-83666550D01*
X68292000Y-83973450D01*
X68351874Y-84274452D01*
X68469319Y-84557990D01*
X68639823Y-84813167D01*
X68856833Y-85030177D01*
X68946364Y-85090000D01*
X68856833Y-85149823D01*
X68639823Y-85366833D01*
X68469319Y-85622010D01*
X68351874Y-85905548D01*
X68292000Y-86206550D01*
X68292000Y-86513450D01*
X68351874Y-86814452D01*
X68469319Y-87097990D01*
X68639823Y-87353167D01*
X68856833Y-87570177D01*
X68946364Y-87630000D01*
X68856833Y-87689823D01*
X68639823Y-87906833D01*
X68469319Y-88162010D01*
X68351874Y-88445548D01*
X68292000Y-88746550D01*
X68292000Y-89053450D01*
X68351874Y-89354452D01*
X68469319Y-89637990D01*
X68639823Y-89893167D01*
X68856833Y-90110177D01*
X68946364Y-90170000D01*
X68856833Y-90229823D01*
X68639823Y-90446833D01*
X68469319Y-90702010D01*
X68351874Y-90985548D01*
X68292000Y-91286550D01*
X68292000Y-91593450D01*
X68351874Y-91894452D01*
X68469319Y-92177990D01*
X68639823Y-92433167D01*
X68856833Y-92650177D01*
X68946364Y-92710000D01*
X68856833Y-92769823D01*
X68639823Y-92986833D01*
X68469319Y-93242010D01*
X68351874Y-93525548D01*
X68292000Y-93826550D01*
X68292000Y-94133450D01*
X68351874Y-94434452D01*
X68469319Y-94717990D01*
X68639823Y-94973167D01*
X68856833Y-95190177D01*
X68946364Y-95250000D01*
X68856833Y-95309823D01*
X68639823Y-95526833D01*
X68469319Y-95782010D01*
X68351874Y-96065548D01*
X68292000Y-96366550D01*
X68292000Y-96673450D01*
X68351874Y-96974452D01*
X68469319Y-97257990D01*
X68639823Y-97513167D01*
X68856833Y-97730177D01*
X68946364Y-97790000D01*
X68856833Y-97849823D01*
X68639823Y-98066833D01*
X68469319Y-98322010D01*
X68351874Y-98605548D01*
X68292000Y-98906550D01*
X68292000Y-99213450D01*
X68351874Y-99514452D01*
X68469319Y-99797990D01*
X68639823Y-100053167D01*
X68856833Y-100270177D01*
X68946364Y-100330000D01*
X68856833Y-100389823D01*
X68639823Y-100606833D01*
X68469319Y-100862010D01*
X68351874Y-101145548D01*
X68292000Y-101446550D01*
X68292000Y-101753450D01*
X68351874Y-102054452D01*
X68469319Y-102337990D01*
X68639823Y-102593167D01*
X68856833Y-102810177D01*
X68946364Y-102870000D01*
X68856833Y-102929823D01*
X68639823Y-103146833D01*
X68469319Y-103402010D01*
X68351874Y-103685548D01*
X68292000Y-103986550D01*
X68292000Y-104293450D01*
X68351874Y-104594452D01*
X68469319Y-104877990D01*
X68639823Y-105133167D01*
X68856833Y-105350177D01*
X68946364Y-105410000D01*
X68856833Y-105469823D01*
X68639823Y-105686833D01*
X68469319Y-105942010D01*
X68351874Y-106225548D01*
X68292000Y-106526550D01*
X68292000Y-106833450D01*
X68351874Y-107134452D01*
X68469319Y-107417990D01*
X68639823Y-107673167D01*
X68856833Y-107890177D01*
X68946364Y-107950000D01*
X68856833Y-108009823D01*
X68639823Y-108226833D01*
X68469319Y-108482010D01*
X68351874Y-108765548D01*
X68292000Y-109066550D01*
X68292000Y-109373450D01*
X68351874Y-109674452D01*
X68469319Y-109957990D01*
X68639823Y-110213167D01*
X68856833Y-110430177D01*
X69112010Y-110600681D01*
X69395548Y-110718126D01*
X69696550Y-110778000D01*
X70003450Y-110778000D01*
X70304452Y-110718126D01*
X70587990Y-110600681D01*
X70843167Y-110430177D01*
X71060177Y-110213167D01*
X71230681Y-109957990D01*
X71348126Y-109674452D01*
X71408000Y-109373450D01*
X71408000Y-109066550D01*
X71348126Y-108765548D01*
X71230681Y-108482010D01*
X71060177Y-108226833D01*
X70843167Y-108009823D01*
X70753636Y-107950000D01*
X70843167Y-107890177D01*
X71060177Y-107673167D01*
X71230681Y-107417990D01*
X71348126Y-107134452D01*
X71408000Y-106833450D01*
X71408000Y-106526550D01*
X71348126Y-106225548D01*
X71230681Y-105942010D01*
X71060177Y-105686833D01*
X70843167Y-105469823D01*
X70753636Y-105410000D01*
X70843167Y-105350177D01*
X71060177Y-105133167D01*
X71230681Y-104877990D01*
X71348126Y-104594452D01*
X71408000Y-104293450D01*
X71408000Y-103986550D01*
X71348126Y-103685548D01*
X71230681Y-103402010D01*
X71060177Y-103146833D01*
X70843167Y-102929823D01*
X70753636Y-102870000D01*
X70843167Y-102810177D01*
X71060177Y-102593167D01*
X71230681Y-102337990D01*
X71348126Y-102054452D01*
X71408000Y-101753450D01*
X71408000Y-101446550D01*
X71348126Y-101145548D01*
X71230681Y-100862010D01*
X71060177Y-100606833D01*
X70843167Y-100389823D01*
X70753636Y-100330000D01*
X70843167Y-100270177D01*
X71060177Y-100053167D01*
X71230681Y-99797990D01*
X71348126Y-99514452D01*
X71408000Y-99213450D01*
X71408000Y-99011343D01*
X73774208Y-101377552D01*
X73822997Y-101437003D01*
X73882445Y-101485790D01*
X74060232Y-101631697D01*
X74305878Y-101762997D01*
X74330895Y-101776369D01*
X74624579Y-101865457D01*
X74642001Y-101867173D01*
X74642001Y-103154045D01*
X74551406Y-103162968D01*
X74408523Y-103206311D01*
X74276840Y-103276697D01*
X74161420Y-103371420D01*
X74066697Y-103486840D01*
X73996311Y-103618523D01*
X73952968Y-103761406D01*
X73938333Y-103910000D01*
X73938333Y-106910000D01*
X73952968Y-107058594D01*
X73996311Y-107201477D01*
X74066697Y-107333160D01*
X74161420Y-107448580D01*
X74276840Y-107543303D01*
X74408523Y-107613689D01*
X74551406Y-107657032D01*
X74700000Y-107671667D01*
X77700000Y-107671667D01*
X77848594Y-107657032D01*
X77991477Y-107613689D01*
X78123160Y-107543303D01*
X78238580Y-107448580D01*
X78333303Y-107333160D01*
X78403689Y-107201477D01*
X78447032Y-107058594D01*
X78461667Y-106910000D01*
X78461667Y-103910000D01*
X78447032Y-103761406D01*
X78403689Y-103618523D01*
X78333303Y-103486840D01*
X78238580Y-103371420D01*
X78123160Y-103276697D01*
X77991477Y-103206311D01*
X77848594Y-103162968D01*
X77758000Y-103154045D01*
X77758000Y-102245344D01*
X78517555Y-101485790D01*
X78577003Y-101437003D01*
X78625801Y-101377542D01*
X80655345Y-99348000D01*
X83174657Y-99348000D01*
X86018333Y-102191678D01*
X86018333Y-103720000D01*
X86032968Y-103868594D01*
X86076311Y-104011477D01*
X86146697Y-104143160D01*
X86241420Y-104258580D01*
X86356840Y-104353303D01*
X86488523Y-104423689D01*
X86631406Y-104467032D01*
X86780000Y-104481667D01*
X88480000Y-104481667D01*
X88612000Y-104468666D01*
X88612001Y-109844654D01*
X86984657Y-111472000D01*
X62875345Y-111472000D01*
X61248000Y-109844657D01*
X61248000Y-105486532D01*
X61255538Y-105409999D01*
X61233629Y-105187553D01*
X61225457Y-105104579D01*
X61136369Y-104810895D01*
X61097996Y-104739105D01*
X60991697Y-104540233D01*
X60845790Y-104362445D01*
X60797003Y-104302997D01*
X60737552Y-104254207D01*
X59575800Y-103092457D01*
X59527003Y-103032997D01*
X59289766Y-102838303D01*
X59019105Y-102693631D01*
X58725421Y-102604543D01*
X58496535Y-102582000D01*
X58496533Y-102582000D01*
X58420000Y-102574462D01*
X58343467Y-102582000D01*
X55827639Y-102582000D01*
X55990681Y-102337990D01*
X56108126Y-102054452D01*
X56168000Y-101753450D01*
X56168000Y-101446550D01*
X56108126Y-101145548D01*
X55990681Y-100862010D01*
X55820177Y-100606833D01*
X55603167Y-100389823D01*
X55513636Y-100330000D01*
X55603167Y-100270177D01*
X55820177Y-100053167D01*
X55990681Y-99797990D01*
X56108126Y-99514452D01*
X56168000Y-99213450D01*
X56168000Y-98906550D01*
X56108126Y-98605548D01*
X55990681Y-98322010D01*
X55820177Y-98066833D01*
X55603167Y-97849823D01*
X55513636Y-97790000D01*
X55603167Y-97730177D01*
X55820177Y-97513167D01*
X55990681Y-97257990D01*
X56108126Y-96974452D01*
X56168000Y-96673450D01*
X56168000Y-96366550D01*
X56108126Y-96065548D01*
X55990681Y-95782010D01*
X55820177Y-95526833D01*
X55603167Y-95309823D01*
X55513636Y-95250000D01*
X55603167Y-95190177D01*
X55820177Y-94973167D01*
X55990681Y-94717990D01*
X56108126Y-94434452D01*
X56168000Y-94133450D01*
X56168000Y-93826550D01*
X56108126Y-93525548D01*
X55990681Y-93242010D01*
X55820177Y-92986833D01*
X55603167Y-92769823D01*
X55516256Y-92711751D01*
X55539218Y-92692907D01*
X55603167Y-92650177D01*
X55657547Y-92595797D01*
X55717003Y-92547003D01*
X55765797Y-92487547D01*
X55820177Y-92433167D01*
X55862907Y-92369218D01*
X55911697Y-92309766D01*
X55947951Y-92241940D01*
X55990681Y-92177990D01*
X56020113Y-92106936D01*
X56056369Y-92039105D01*
X56078696Y-91965502D01*
X56108126Y-91894452D01*
X56123130Y-91819024D01*
X56145457Y-91745421D01*
X56152995Y-91668882D01*
X56168000Y-91593450D01*
X56168000Y-91516535D01*
X56175538Y-91440000D01*
X56168000Y-91363465D01*
X56168000Y-91286550D01*
X56152995Y-91211118D01*
X56145457Y-91134579D01*
X56123130Y-91060976D01*
X56108126Y-90985548D01*
X56078696Y-90914498D01*
X56056369Y-90840895D01*
X56020113Y-90773064D01*
X55990681Y-90702010D01*
X55947951Y-90638060D01*
X55911697Y-90570234D01*
X55862907Y-90510782D01*
X55820177Y-90446833D01*
X55765797Y-90392453D01*
X55717003Y-90332997D01*
X55657547Y-90284203D01*
X55603167Y-90229823D01*
X55539218Y-90187093D01*
X55516256Y-90168249D01*
X55603167Y-90110177D01*
X55820177Y-89893167D01*
X55990681Y-89637990D01*
X56108126Y-89354452D01*
X56168000Y-89053450D01*
X56168000Y-88746550D01*
X56108126Y-88445548D01*
X55990681Y-88162010D01*
X55820177Y-87906833D01*
X55603167Y-87689823D01*
X55513636Y-87630000D01*
X55603167Y-87570177D01*
X55820177Y-87353167D01*
X55990681Y-87097990D01*
X56108126Y-86814452D01*
X56168000Y-86513450D01*
X56168000Y-86206550D01*
X56108126Y-85905548D01*
X55990681Y-85622010D01*
X55820177Y-85366833D01*
X55603167Y-85149823D01*
X55513636Y-85090000D01*
X55603167Y-85030177D01*
X55820177Y-84813167D01*
X55990681Y-84557990D01*
X56108126Y-84274452D01*
X56168000Y-83973450D01*
X56168000Y-83666550D01*
X56108126Y-83365548D01*
X55990681Y-83082010D01*
X55820177Y-82826833D01*
X55603167Y-82609823D01*
X55347990Y-82439319D01*
X55064452Y-82321874D01*
X54763450Y-82262000D01*
X54456550Y-82262000D01*
X54155548Y-82321874D01*
X53872010Y-82439319D01*
X53616833Y-82609823D01*
X53399823Y-82826833D01*
X53229319Y-83082010D01*
X53111874Y-83365548D01*
X53052000Y-83666550D01*
X53052000Y-83973450D01*
X53111874Y-84274452D01*
X53229319Y-84557990D01*
X53399823Y-84813167D01*
X53616833Y-85030177D01*
X53706364Y-85090000D01*
X53616833Y-85149823D01*
X53399823Y-85366833D01*
X53229319Y-85622010D01*
X53111874Y-85905548D01*
X53052000Y-86206550D01*
X53052000Y-86513450D01*
X53111874Y-86814452D01*
X53229319Y-87097990D01*
X53399823Y-87353167D01*
X53616833Y-87570177D01*
X53706364Y-87630000D01*
X53616833Y-87689823D01*
X53399823Y-87906833D01*
X53229319Y-88162010D01*
X53111874Y-88445548D01*
X53052000Y-88746550D01*
X53052000Y-89053450D01*
X53111874Y-89354452D01*
X53229319Y-89637990D01*
X53392962Y-89882899D01*
X53173209Y-89904543D01*
X52879525Y-89993631D01*
X52776697Y-90048594D01*
X52608863Y-90138303D01*
X52497346Y-90229823D01*
X52371627Y-90332997D01*
X52322837Y-90392448D01*
X51022457Y-91692829D01*
X50962997Y-91741627D01*
X50813923Y-91923276D01*
X50768303Y-91978864D01*
X50697731Y-92110895D01*
X50623631Y-92249526D01*
X50534543Y-92543210D01*
X50524008Y-92650177D01*
X50504462Y-92848630D01*
X42718000Y-92848630D01*
X42718000Y-72157757D01*
X44632000Y-72157757D01*
X44632000Y-72622243D01*
X44722617Y-73077803D01*
X44900368Y-73506932D01*
X45158422Y-73893137D01*
X45486863Y-74221578D01*
X45873068Y-74479632D01*
X46302197Y-74657383D01*
X46757757Y-74748000D01*
X47222243Y-74748000D01*
X47677803Y-74657383D01*
X48106932Y-74479632D01*
X48493137Y-74221578D01*
X48821578Y-73893137D01*
X49079632Y-73506932D01*
X49257383Y-73077803D01*
X49300706Y-72860000D01*
X53048333Y-72860000D01*
X53048333Y-74460000D01*
X53062968Y-74608594D01*
X53106311Y-74751477D01*
X53176697Y-74883160D01*
X53271420Y-74998580D01*
X53386840Y-75093303D01*
X53469285Y-75137371D01*
X53399823Y-75206833D01*
X53229319Y-75462010D01*
X53111874Y-75745548D01*
X53052000Y-76046550D01*
X53052000Y-76353450D01*
X53111874Y-76654452D01*
X53229319Y-76937990D01*
X53399823Y-77193167D01*
X53616833Y-77410177D01*
X53706364Y-77470000D01*
X53616833Y-77529823D01*
X53399823Y-77746833D01*
X53229319Y-78002010D01*
X53111874Y-78285548D01*
X53052000Y-78586550D01*
X53052000Y-78893450D01*
X53111874Y-79194452D01*
X53229319Y-79477990D01*
X53399823Y-79733167D01*
X53616833Y-79950177D01*
X53872010Y-80120681D01*
X54155548Y-80238126D01*
X54456550Y-80298000D01*
X54763450Y-80298000D01*
X55064452Y-80238126D01*
X55347990Y-80120681D01*
X55603167Y-79950177D01*
X55820177Y-79733167D01*
X55990681Y-79477990D01*
X56108126Y-79194452D01*
X56168000Y-78893450D01*
X56168000Y-78586550D01*
X56108126Y-78285548D01*
X55990681Y-78002010D01*
X55820177Y-77746833D01*
X55603167Y-77529823D01*
X55513636Y-77470000D01*
X55603167Y-77410177D01*
X55820177Y-77193167D01*
X55990681Y-76937990D01*
X56108126Y-76654452D01*
X56168000Y-76353450D01*
X56168000Y-76046550D01*
X56108126Y-75745548D01*
X55990681Y-75462010D01*
X55820177Y-75206833D01*
X55750715Y-75137371D01*
X55833160Y-75093303D01*
X55948580Y-74998580D01*
X56043303Y-74883160D01*
X56113689Y-74751477D01*
X56157032Y-74608594D01*
X56171667Y-74460000D01*
X56171667Y-72860000D01*
X56157032Y-72711406D01*
X56113689Y-72568523D01*
X56043303Y-72436840D01*
X55948580Y-72321420D01*
X55833160Y-72226697D01*
X55701477Y-72156311D01*
X55558594Y-72112968D01*
X55410000Y-72098333D01*
X53810000Y-72098333D01*
X53661406Y-72112968D01*
X53518523Y-72156311D01*
X53386840Y-72226697D01*
X53271420Y-72321420D01*
X53176697Y-72436840D01*
X53106311Y-72568523D01*
X53062968Y-72711406D01*
X53048333Y-72860000D01*
X49300706Y-72860000D01*
X49348000Y-72622243D01*
X49348000Y-72157757D01*
X49257383Y-71702197D01*
X49079632Y-71273068D01*
X48977356Y-71120000D01*
X64474462Y-71120000D01*
X64482000Y-71196533D01*
X64482000Y-72313467D01*
X64474462Y-72390000D01*
X64482000Y-72466533D01*
X64482000Y-72466535D01*
X64504543Y-72695421D01*
X64593631Y-72989105D01*
X64593632Y-72989106D01*
X64738303Y-73259766D01*
X64810903Y-73348229D01*
X64932998Y-73497003D01*
X64992453Y-73545796D01*
X66154207Y-74707552D01*
X66202997Y-74767003D01*
X66262445Y-74815790D01*
X66440233Y-74961697D01*
X66594604Y-75044210D01*
X66710895Y-75106369D01*
X67004579Y-75195457D01*
X67233465Y-75218000D01*
X67233466Y-75218000D01*
X67309999Y-75225538D01*
X67386532Y-75218000D01*
X70003450Y-75218000D01*
X70078883Y-75202995D01*
X70155421Y-75195457D01*
X70229024Y-75173130D01*
X70304452Y-75158126D01*
X70375502Y-75128696D01*
X70449105Y-75106369D01*
X70516936Y-75070113D01*
X70587990Y-75040681D01*
X70651940Y-74997951D01*
X70719766Y-74961697D01*
X70779218Y-74912907D01*
X70843167Y-74870177D01*
X70897547Y-74815797D01*
X70957003Y-74767003D01*
X71005797Y-74707547D01*
X71060177Y-74653167D01*
X71102907Y-74589218D01*
X71151697Y-74529766D01*
X71187951Y-74461940D01*
X71230681Y-74397990D01*
X71260113Y-74326936D01*
X71296369Y-74259105D01*
X71318696Y-74185502D01*
X71348126Y-74114452D01*
X71363130Y-74039024D01*
X71385457Y-73965421D01*
X71392995Y-73888882D01*
X71408000Y-73813450D01*
X71408000Y-73736534D01*
X71415538Y-73660000D01*
X71408000Y-73583465D01*
X71408000Y-73506550D01*
X71392995Y-73431118D01*
X71385457Y-73354579D01*
X71363130Y-73280976D01*
X71348126Y-73205548D01*
X71318696Y-73134498D01*
X71296369Y-73060895D01*
X71260113Y-72993064D01*
X71230681Y-72922010D01*
X71187951Y-72858060D01*
X71151697Y-72790234D01*
X71102907Y-72730782D01*
X71060177Y-72666833D01*
X71005797Y-72612453D01*
X70957003Y-72552997D01*
X70897547Y-72504203D01*
X70843167Y-72449823D01*
X70779218Y-72407093D01*
X70719766Y-72358303D01*
X70651940Y-72322049D01*
X70587990Y-72279319D01*
X70516936Y-72249887D01*
X70449105Y-72213631D01*
X70375502Y-72191304D01*
X70304452Y-72161874D01*
X70229024Y-72146870D01*
X70155421Y-72124543D01*
X70078883Y-72117005D01*
X70003450Y-72102000D01*
X67955344Y-72102000D01*
X67608344Y-71755000D01*
X67955344Y-71408000D01*
X79364656Y-71408000D01*
X79439285Y-71482629D01*
X79356840Y-71526697D01*
X79241420Y-71621420D01*
X79146697Y-71736840D01*
X79076311Y-71868523D01*
X79032968Y-72011406D01*
X79018333Y-72160000D01*
X79018333Y-75160000D01*
X79032968Y-75308594D01*
X79076311Y-75451477D01*
X79146697Y-75583160D01*
X79241420Y-75698580D01*
X79356840Y-75793303D01*
X79488523Y-75863689D01*
X79631406Y-75907032D01*
X79780000Y-75921667D01*
X82780000Y-75921667D01*
X82928594Y-75907032D01*
X83071477Y-75863689D01*
X83203160Y-75793303D01*
X83318580Y-75698580D01*
X83413303Y-75583160D01*
X83483689Y-75451477D01*
X83527032Y-75308594D01*
X83541667Y-75160000D01*
X83541667Y-72160000D01*
X83527032Y-72011406D01*
X83483689Y-71868523D01*
X83413303Y-71736840D01*
X83318580Y-71621420D01*
X83203160Y-71526697D01*
X83071477Y-71456311D01*
X82928594Y-71412968D01*
X82838000Y-71404045D01*
X82838000Y-71196532D01*
X82845538Y-71119999D01*
X82822576Y-70886863D01*
X82815457Y-70814579D01*
X82726369Y-70520895D01*
X82726368Y-70520893D01*
X82581697Y-70250233D01*
X82435790Y-70072445D01*
X82387003Y-70012997D01*
X82327552Y-69964207D01*
X81165800Y-68802457D01*
X81117003Y-68742997D01*
X80879766Y-68548303D01*
X80609105Y-68403631D01*
X80315421Y-68314543D01*
X80086535Y-68292000D01*
X80086533Y-68292000D01*
X80010000Y-68284462D01*
X79933467Y-68292000D01*
X67386532Y-68292000D01*
X67309999Y-68284462D01*
X67233466Y-68292000D01*
X67233465Y-68292000D01*
X67004579Y-68314543D01*
X66710895Y-68403631D01*
X66710893Y-68403632D01*
X66440233Y-68548303D01*
X66317525Y-68649007D01*
X66202997Y-68742997D01*
X66154210Y-68802445D01*
X64992457Y-69964200D01*
X64932997Y-70012997D01*
X64783923Y-70194646D01*
X64738303Y-70250234D01*
X64711506Y-70300368D01*
X64593631Y-70520896D01*
X64504543Y-70814580D01*
X64496371Y-70897555D01*
X64474462Y-71120000D01*
X48977356Y-71120000D01*
X48821578Y-70886863D01*
X48493137Y-70558422D01*
X48106932Y-70300368D01*
X47677803Y-70122617D01*
X47222243Y-70032000D01*
X46757757Y-70032000D01*
X46302197Y-70122617D01*
X45873068Y-70300368D01*
X45486863Y-70558422D01*
X45158422Y-70886863D01*
X44900368Y-71273068D01*
X44722617Y-71702197D01*
X44632000Y-72157757D01*
X42718000Y-72157757D01*
X42718000Y-66848000D01*
X107142000Y-66848000D01*
X107142001Y-118572000D01*
%TD*%
M02*
